<svg width="146" height="21" viewBox="0 0 146 21" fill="none" xmlns="http://www.w3.org/2000/svg">
<g opacity="0.4" clip-path="url(#clip0_1514_1279)">
<path fill-rule="evenodd" clip-rule="evenodd" d="M88.333 3.44809V20.5201H85.153V3.44809H77.7469V1.05709H96.078V3.44809H88.333ZM99.298 20.5201V1.05709H102.474V20.5201H99.298ZM122.853 20.7881L110.82 6.55709V20.5201H107.799V1.05709H109.073L120.784 14.5171V1.05709H123.808V20.7881H122.853ZM141.798 20.5201L140.198 16.4151H131.531L129.817 20.5201H126.257L135.711 0.788086H136.552L145.323 20.5201H141.798ZM135.978 5.88809L132.368 14.4581H139.282L135.978 5.88809Z" fill="#1E1E1E"/>
<path fill-rule="evenodd" clip-rule="evenodd" d="M16.097 20.576L14.502 16.503H5.90703L4.20703 20.576H0.676025L10.056 0.999023H10.892L19.592 20.576H16.097ZM10.327 6.06302L6.74703 14.563H13.606L10.326 6.06302H10.327ZM26.676 20.576H22.021V1.26602C24.987 1.17502 26.89 1.13702 27.721 1.13702C30.488 0.985477 33.2137 1.85997 35.376 3.59302C36.3067 4.40254 37.0435 5.41099 37.5318 6.54374C38.0201 7.67648 38.2475 8.90454 38.197 10.137C38.197 17.0997 34.356 20.5794 26.674 20.576H26.676ZM25.176 3.63802V18.069C26.0456 18.1695 26.9207 18.2152 27.796 18.206C28.7626 18.2566 29.7287 18.0971 30.6277 17.7385C31.5268 17.38 32.3375 16.8309 33.004 16.129C34.3433 14.5157 35.018 12.4529 34.891 10.36C34.891 5.79602 32.437 3.51236 27.529 3.50902C27.229 3.50902 26.453 3.55502 25.177 3.64202L25.176 3.63802ZM54.954 20.576L53.36 16.503H44.76L43.06 20.576H39.532L48.912 0.999023H49.745L58.45 20.576H54.954ZM49.182 6.06302L45.603 14.563H52.46L49.182 6.06302Z" fill="#1E1E1E"/>
<path opacity="0.5" d="M67.075 9.47705H61.667V12.1001H67.075V9.47705Z" fill="#1E1E1E"/>
<path opacity="0.5" d="M77.9169 9.47607H72.5079V12.1001H77.9169V9.47607Z" fill="#1E1E1E"/>
<path d="M72.497 9.47607H67.087V12.1001H72.497V9.47607Z" fill="white"/>
</g>
<defs>
<clipPath id="clip0_1514_1279">
<rect width="144.648" height="20" fill="white" transform="translate(0.676025 0.788086)"/>
</clipPath>
</defs>
</svg>
