<svg width="165" height="29" viewBox="0 0 165 29" fill="none" xmlns="http://www.w3.org/2000/svg">
<g opacity="0.4">
<path d="M77.2939 27.2909C77.0949 27.2909 76.9324 27.1258 76.9324 26.9239C76.9324 26.7216 77.0949 26.5591 77.2939 26.5591C77.4973 26.5591 77.6598 26.7216 77.6598 26.9239C77.6598 27.1254 77.4973 27.2909 77.2939 27.2909ZM77.2939 26.6134C77.1273 26.6134 76.9925 26.7548 76.9925 26.9239C76.9925 27.0948 77.1273 27.2366 77.2939 27.2366C77.4648 27.2366 77.6019 27.0948 77.6019 26.9239C77.6019 26.7548 77.4648 26.6134 77.2939 26.6134ZM77.3846 27.1225L77.2935 26.9603H77.2305V27.1225H77.1755V26.7242H77.3136C77.3832 26.7242 77.4389 26.7767 77.4389 26.8441C77.4389 26.902 77.4029 26.9381 77.3526 26.9523L77.4488 27.1222H77.3846V27.1225ZM77.3088 26.7719H77.2309V26.9137H77.3088C77.3515 26.9137 77.3832 26.8831 77.3832 26.8441C77.3832 26.8055 77.3515 26.7719 77.3088 26.7719Z" fill="#1E1E1E"/>
<path d="M34.2148 24.7202C30.9348 22.7303 26.5025 22.4165 19.3772 24.3619C11.7705 26.1389 9.24094 27.2538 5.88551 25.077C4.59902 24.0037 4.12889 22.2562 4.45106 19.7473C5.21457 15.6575 7.33381 11.7026 11.12 7.30266C13.2323 5.01177 15.1941 3.04377 17.8025 2.24053C19.7982 1.73942 19.6203 3.24712 19.3809 3.45814C19.1298 3.46397 18.6972 3.50771 18.3673 3.71872C18.0991 3.91953 17.3633 4.56678 17.3349 5.43306C17.2828 6.76401 18.7205 6.47683 19.3342 5.73992C19.9931 4.91591 20.9688 3.32804 20.1841 1.87536C19.8532 1.35348 19.2905 1.00142 18.5897 0.880793C16.1978 0.761984 13.9798 1.87536 11.9338 3.09005C7.46355 6.1153 3.89965 10.2783 1.90323 14.8284C0.749036 17.5654 -0.281611 21.4974 1.3347 24.6622C2.58 26.8704 5.14241 28.0217 8.18442 27.7509C10.3179 27.5286 12.897 26.8438 14.6333 26.4305C16.3662 26.0169 25.2382 23.0204 28.2008 28.0876C28.2008 28.0876 29.156 26.2785 31.5814 26.2224C33.5825 26.0358 36.4649 26.7417 38.5743 28.1988C37.8662 27.1911 35.8756 25.7289 34.2148 24.7202Z" fill="#1E1E1E"/>
<path d="M20.1557 7.74454C18.4843 6.71499 15.153 8.73255 12.5035 12.1769C10.0792 15.2663 9.04998 18.8455 10.2126 20.4877C11.9378 22.4167 15.0954 19.5704 16.4322 18.047L16.6053 17.8684C17.5167 16.9176 18.2194 15.7783 18.8998 14.6752C18.8998 14.6752 19.5208 13.6813 19.5533 13.6347C19.941 13.5625 20.4108 13.4485 20.9392 13.299C20.9352 13.3165 19.1793 16.1311 19.1564 18.1931C19.1505 18.6429 19.1877 20.4844 21.0274 21.0121C23.4688 21.3875 25.4121 19.5667 27.1173 17.9373C27.1173 17.9373 27.4092 17.6629 27.5718 17.5105C27.5328 17.6724 27.4836 17.8805 27.4836 17.8805C26.7838 20.2676 27.7489 20.7647 28.359 20.9421C30.1852 21.4309 32.3405 18.8889 32.3452 18.8849C32.2964 19.6837 32.1371 20.3463 33.0213 20.8623C33.8551 21.1426 34.6879 20.7147 35.3238 20.3102C37.6125 18.734 39.4472 16.2824 40.9275 14.2021L39.9749 14.2076C39.9607 14.2192 37.641 17.4613 36.1282 18.1844C36.1282 18.1844 35.849 18.3098 35.6872 18.2099C35.4875 18.0485 35.5636 17.6833 35.6854 17.4497C35.6908 17.438 41.4891 7.625 41.4891 7.625L38.7161 7.64395C38.7161 7.64395 38.4194 8.13559 38.3906 8.16802C38.3746 8.1509 38.3254 8.08056 38.2977 8.04921C36.5622 5.78347 32.6991 9.31383 29.8029 13.3894C28.6899 14.9569 27.2656 16.7255 25.7918 18.0076C25.7918 18.0076 23.6008 19.9585 22.647 18.5751C22.2979 17.9942 22.3977 17.1414 22.5887 16.5794C23.6631 13.5793 25.5272 10.8573 27.6676 9.20778C28.2693 8.75223 28.9337 8.6192 29.258 8.80288C29.5707 8.97964 29.6228 9.41697 29.4271 9.71764C28.9308 9.70015 28.5299 9.85248 28.2044 10.1765C27.5696 10.8277 27.3509 11.4531 27.559 12.0373C28.5583 13.3759 30.5197 10.6863 30.4141 9.06747C30.3703 8.48254 30.0434 7.93223 29.5572 7.66218C28.8302 7.25728 27.7263 7.37608 27.0131 7.70664C26.0549 8.06233 24.5556 9.27812 23.6733 10.2213C22.5785 11.401 20.6757 12.7236 20.0781 12.5836C20.2716 12.0778 21.8565 8.91805 20.1557 7.74454ZM33.5501 12.3117C34.0844 11.5978 35.6365 9.67063 36.0177 9.34627C37.2995 8.25403 37.8177 8.72453 37.8604 9.05727C36.6737 11.1277 35.279 13.4922 33.9616 15.6209L33.5468 16.2303C32.9706 17.0994 32.3788 17.8389 31.4195 18.3637C31.2832 18.4009 31.0544 18.4158 30.9031 18.3112C30.7209 18.203 30.6466 18.0116 30.6626 17.8046C30.7209 17.149 31.4053 15.1256 33.5501 12.3117ZM18.4843 13.6657C18.4843 13.6657 18.4596 13.7273 18.4472 13.7539L17.2558 15.645C16.5353 16.5776 15.6322 17.7536 14.5046 18.3233C14.1679 18.4304 13.7025 18.5066 13.4627 18.2172C12.9572 17.6538 13.2119 16.8494 13.4153 16.2124L13.4875 15.973C14.0826 14.3989 15.0265 13.0126 15.9438 11.7254C15.9562 11.717 15.9846 11.7064 15.9934 11.7122C15.9934 11.7122 16.0003 11.717 16.0003 11.7254C16.5954 12.8027 17.6993 13.2885 18.5186 13.5144C18.5186 13.5144 18.5292 13.525 18.5292 13.5399C18.5288 13.5629 18.5175 13.596 18.4843 13.6657ZM19.6072 11.4393C19.605 11.4487 19.0784 12.6248 19.0784 12.6248C19.004 12.6809 18.8827 12.6514 18.7427 12.619L18.5051 12.5851C17.7551 12.369 17.1873 11.9007 17.0058 11.327C16.758 10.2242 17.738 9.3572 18.1684 9.03722C18.5849 8.75368 19.2344 8.60718 19.6119 8.89072C19.8455 9.15421 19.9388 9.48221 19.9407 9.85175C19.9443 10.3478 19.7887 10.9105 19.6072 11.4393Z" fill="#1E1E1E"/>
<path d="M46.0429 7.58057L43.459 7.60717L41.9917 10.0212L44.5796 10.0048L46.0429 7.58057Z" fill="#1E1E1E"/>
<path d="M77.5286 24.6288C77.2484 24.8122 76.8497 24.6624 76.9955 24.2382C77.3566 23.1649 78.8159 20.941 78.8159 20.941L82.8608 13.9277L80.0477 13.9488C79.9165 14.1846 79.638 14.6624 79.638 14.6624C79.5028 14.4572 79.114 14.0028 78.9496 13.9047C78.2641 13.4951 77.2575 13.7039 76.5654 14.0826C73.5595 15.7929 71.3786 19.1516 69.6632 21.7698C69.6632 21.7698 67.8559 24.681 66.8424 24.9033C66.0523 24.9707 66.1245 23.9459 66.1569 23.7053C66.4506 21.9863 67.1496 20.3463 67.853 18.8568C69.3057 17.8834 70.9599 16.6009 72.4629 15.2014C75.5479 12.3351 78.1679 9.12067 78.7783 8.13594C78.6489 8.15124 78.259 8.21866 77.8009 8.23105C75.2691 11.6156 70.2591 16.434 68.7178 17.1607C69.3986 15.5553 73.8252 7.90488 77.6125 4.23056L78.2098 3.66676C79.1311 2.79392 80.0896 1.89192 80.8367 1.74905C80.9143 1.73265 81.0153 1.7414 81.1075 1.92217C81.1447 2.59821 80.8859 3.09422 80.5881 3.6704L80.1745 4.50243C80.1745 4.50243 80.7707 4.38726 81.1625 4.2608C81.6075 3.43643 82.1112 2.51038 81.9165 1.41085C81.8528 1.06645 81.5809 0.801498 81.2292 0.735534C80.0914 0.538005 78.857 1.35728 77.8639 2.01036L77.8231 2.03915C72.7205 5.9183 68.431 11.5012 64.7017 19.0973C64.4262 19.301 63.3689 19.5416 63.1874 19.4304C63.557 18.6968 64.0209 17.6997 64.2483 16.6173C64.2891 16.3148 64.3186 15.9999 64.3186 15.6952C64.3135 15.036 64.1437 14.4076 63.5238 13.9867C62.7934 13.646 61.8973 13.8132 61.2952 14.0786C58.5925 15.1806 56.5902 17.8451 55.147 20.046C54.3744 21.4389 53.6014 22.9364 53.3959 24.6409C53.2541 25.9795 53.5737 26.8381 54.3701 27.2641C55.1886 27.653 56.2127 27.2328 56.6121 27.0331C59.3473 25.6267 61.2395 22.8423 62.7355 20.2898C62.7934 20.285 63.6204 20.2584 64.2414 20.0988C64.249 20.1025 64.2516 20.1072 64.2669 20.1072C64.2319 20.2176 63.9192 21.1477 63.9192 21.1477C62.9819 23.8398 62.5511 25.6708 63.4666 26.743C64.7709 28.266 66.8989 26.6701 68.6231 24.564C68.2663 27.071 69.6253 27.4588 70.6596 27.2583C71.8451 26.9343 73.1553 25.7174 73.7676 25.0891C73.5737 25.8198 73.64 27.1158 74.7173 27.2405C75.4586 27.368 76.0111 27.0068 76.65 26.6701C78.9412 25.4609 81.6633 21.4163 82.3692 20.3109L81.43 20.3175C80.4241 21.7578 79.1504 23.701 77.5286 24.6288ZM56.8891 24.4969C56.7448 24.2885 56.6923 24.0501 56.6876 23.8056C56.6478 22.2971 58.3181 19.6152 59.5043 18.1013C60.0113 19.2139 61.1502 19.8244 61.8393 20.1028C61.0007 21.9148 58.118 25.8352 56.8891 24.4969ZM62.3098 19.3014C62.2307 19.3506 60.7985 18.902 60.512 17.6403C60.2722 16.5524 61.047 15.6912 61.804 15.2586C62.1283 15.0108 62.62 14.9219 62.9789 15.0411C63.315 15.2586 63.4108 15.6446 63.4126 16.0469C63.4137 16.3028 63.3813 16.5666 63.351 16.8071C63.351 16.8071 63.3499 16.8502 63.3452 16.8585C63.1142 17.7099 62.7559 18.5528 62.3098 19.3014ZM73.8161 23.8814L73.5489 24.1128C73.163 24.4485 72.7686 24.7998 72.2901 24.6241C72.1531 24.5815 72.0631 24.4197 72.0372 24.2801C72.0095 23.3394 72.4498 22.4593 72.8736 21.6029L72.9811 21.3882C74.2056 19.3896 75.6277 17.0462 77.7353 15.4132C78.0862 15.165 78.474 14.9576 78.8818 15.1136C78.974 15.1949 79.0881 15.3417 79.0899 15.4879C79.0899 15.5352 79.0491 15.657 79.0225 15.6952C78.4379 16.6114 77.8807 17.5743 77.3435 18.5022C76.287 20.3299 75.1918 22.217 73.8161 23.8814Z" fill="#1E1E1E"/>
<path d="M73.9429 3.75991L73.8791 3.72456C72.5992 2.99239 71.1545 2.29193 69.8214 1.61152C66.798 0.0626301 64.3475 0.629337 63.1029 1.06667C62.6149 1.24233 62.1681 1.39066 62.1681 1.39066C61.2311 0.426709 59.7125 0.536042 58.5984 0.803908C54.5789 1.93514 50.8605 4.66082 46.8935 9.36688C43.9721 13.0576 42.1685 16.2312 41.2224 19.3658C40.4855 21.4675 40.2821 24.5697 42.1277 26.3853C43.6999 27.9371 45.763 27.5792 47.2197 27.0089C50.3652 25.4924 53.1794 22.2664 54.5723 18.5574C54.9003 17.4623 55.2703 15.9079 54.6722 14.7337C54.4025 14.1805 53.7622 13.8328 53.0912 13.8703C50.8915 14.0835 48.7602 15.8277 47.6505 18.3118C47.0706 19.5935 46.7558 20.645 46.5564 22.3192C47.235 21.5648 48.6162 20.317 50.191 19.6282C50.191 19.6282 50.3944 18.0304 51.4811 16.5843C51.89 15.9914 52.714 15.0365 53.6478 15.2771C54.4645 15.5347 54.1933 17.7003 53.1281 19.794C52.3376 21.3378 51.1265 22.8775 49.8918 23.9465C48.8021 24.8452 47.1858 25.9352 45.7601 25.113C44.8694 24.6189 44.4014 23.5631 44.4853 22.1924C44.8818 18.3096 46.7033 14.9946 49.3116 11.2157C52.0089 7.69809 54.9816 4.09775 59.008 2.15162C59.8294 1.74818 60.5937 1.6516 61.2584 1.88339C61.2584 1.88339 57.4726 3.91116 55.6959 7.61755C55.2444 8.5549 54.6103 9.82972 55.2652 10.95C55.607 11.5269 56.2054 11.5659 56.6847 11.5382C58.8998 11.0233 60.3182 9.03779 61.4713 7.21666C62.1422 5.83104 62.7359 4.46329 62.7231 2.9421C62.7195 2.75659 62.706 2.51825 62.6892 2.32838C63.7483 1.78645 65.9226 2.72088 65.9226 2.72088C67.4733 3.19356 70.2693 5.21295 71.7449 5.98375C72.7617 4.81024 73.6718 4.00992 73.9429 3.75991ZM61.8518 3.10501C61.468 7.70064 57.7569 10.4223 56.8377 10.6439C56.2787 10.7612 55.322 10.5262 56.1635 8.59499C57.3975 5.98812 59.5175 3.76756 61.808 2.62503C61.8678 2.81199 61.8678 2.93299 61.8518 3.10501Z" fill="#1E1E1E"/>
<path d="M83.9816 3.52072C82.0996 4.56194 80.4202 5.2624 78.0881 5.14578C77.8115 5.46139 76.8017 6.62688 76.2258 7.56678C79.5991 8.09085 82.7818 6.25587 84.7509 4.51529C86.9419 2.66719 88.0506 0.342773 88.0506 0.342773C88.0506 0.342773 86.416 2.17447 83.9816 3.52072Z" fill="#1E1E1E"/>
<path d="M163.789 20.404C157.929 20.5133 150.197 21.2987 150.197 21.2987C159.435 21.2549 162.697 21.5953 163.576 21.7207C163.661 21.7531 163.753 21.7703 163.849 21.7655C164.225 21.748 164.517 21.431 164.499 21.0541C164.482 20.6787 164.165 20.3879 163.789 20.404Z" fill="#1E1E1E"/>
<path d="M95.9561 20.5354C95.6525 21.4472 95.1393 21.9039 94.4742 21.9039C93.6196 21.9039 93.0121 21.2956 93.0121 20.4406C93.0121 20.1359 93.05 19.8331 93.1652 19.5477L96.6777 10.0132C97.1711 8.66508 97.8927 8.01855 99.0323 8.01855C100.078 8.01855 100.875 8.64503 101.292 9.80397L104.712 19.5098C104.845 19.8889 104.921 20.2121 104.921 20.4774C104.921 21.3514 104.257 21.9217 103.401 21.9217C102.604 21.9217 102.091 21.4283 101.786 20.4209L101.406 19.1673H96.4127L95.9561 20.5354ZM100.514 16.3384L98.9565 11.3233L97.2848 16.3384H100.514Z" fill="#1E1E1E"/>
<path d="M107.618 21.8839C106.572 21.8839 106.079 21.1623 106.079 19.6998V10.1076C106.079 8.75956 106.516 8.05582 107.504 8.05582C108.188 8.05582 108.643 8.39803 109.137 9.04492L114.815 16.5477V10.2217C114.815 8.75956 115.31 8.0376 116.354 8.0376C117.4 8.0376 117.893 8.75956 117.893 10.2217V20.0424C117.893 21.3143 117.475 21.9601 116.487 21.9601C115.84 21.9601 115.309 21.6186 114.72 20.8394L109.155 13.4893V19.7002C109.155 21.1623 108.662 21.8839 107.618 21.8839Z" fill="#1E1E1E"/>
<path d="M128.908 9.15812C130.674 10.2799 131.776 12.4068 131.776 14.8187C131.776 19.016 129.306 21.7128 125.186 21.7128H122.373C120.741 21.7128 120.285 21.2376 120.285 19.7755V10.3739C120.285 8.87312 120.703 8.20947 122.412 8.20947H124.881C126.552 8.20911 127.863 8.49337 128.908 9.15812ZM124.768 18.8633C127.237 18.8633 128.433 17.5152 128.433 14.7993C128.433 12.3106 127.198 11.0776 124.71 11.0776H123.362V18.8636H124.768V18.8633Z" fill="#1E1E1E"/>
<path d="M142.044 20.939C142.161 20.611 142.221 20.2003 142.221 19.6999V13.4891L147.57 20.5567C148.765 20.4904 149.903 20.4416 150.942 20.4131C150.951 20.2962 150.957 20.1726 150.957 20.0425V10.2226C150.957 8.75969 150.463 8.03809 149.419 8.03809C148.374 8.03809 147.881 8.76005 147.881 10.2226V16.5475L142.201 9.04468C141.707 8.39925 141.252 8.05595 140.568 8.05595C139.581 8.05595 139.143 8.75932 139.143 10.1074V19.6996C139.143 20.3195 139.233 20.8042 139.415 21.1599C140.281 21.0834 141.161 21.009 142.044 20.939Z" fill="#1E1E1E"/>
<path d="M134.281 21.6453C134.895 21.5845 135.538 21.5207 136.205 21.458C136.52 21.0994 136.675 20.5152 136.675 19.7003V10.2218C136.675 8.75969 136.18 8.03809 135.137 8.03809C134.092 8.03809 133.598 8.75969 133.598 10.2218V19.7003C133.597 20.6792 133.821 21.3243 134.281 21.6453Z" fill="#1E1E1E"/>
<path d="M155.247 20.083L155.553 19.1671H160.548L160.754 19.8461C161.755 19.8169 162.818 19.7911 163.938 19.7728C163.912 19.6883 163.884 19.6008 163.853 19.5093L160.433 9.80384C160.016 8.64564 159.218 8.01807 158.172 8.01807C157.034 8.01807 156.312 8.66459 155.819 10.0127L152.304 19.5472C152.211 19.7841 152.17 20.0338 152.157 20.286C152.937 20.2266 153.976 20.1551 155.247 20.083ZM158.098 11.3232L159.656 16.338H156.427L158.098 11.3232Z" fill="#1E1E1E"/>
<path d="M150.089 21.3013C132.64 21.7481 113.631 25.6097 113.631 25.6097V25.6108C113.032 25.7212 112.579 26.2431 112.579 26.8733C112.579 27.5416 113.09 28.0836 113.741 28.1463C113.738 28.1528 113.736 28.1594 113.736 28.1594C113.736 28.1594 113.753 28.1557 113.782 28.151C113.81 28.1521 113.836 28.1594 113.864 28.1594C113.971 28.1594 114.072 28.1422 114.171 28.1189L114.171 28.1222C114.242 28.0989 114.315 28.0759 114.387 28.0537C116 27.8143 120.49 27.2741 126.551 27.5967C126.551 27.5967 122.864 26.8525 119.096 26.7526C131.223 23.7755 150.089 21.3013 150.089 21.3013Z" fill="#1E1E1E"/>
</g>
</svg>
