<svg width="115" height="49" viewBox="0 0 115 49" fill="none" xmlns="http://www.w3.org/2000/svg">
<rect y="19" width="97" height="30" rx="15" fill="#1E1E1E"/>
<path d="M17.474 39.21C16.774 39.21 16.1207 39.0793 15.514 38.818C14.9167 38.5473 14.3893 38.174 13.932 37.698C13.484 37.222 13.134 36.6667 12.882 36.032C12.63 35.388 12.504 34.6973 12.504 33.96C12.504 33.2227 12.63 32.5367 12.882 31.902C13.134 31.2673 13.484 30.7167 13.932 30.25C14.3893 29.774 14.9167 29.4053 15.514 29.144C16.1207 28.8733 16.774 28.738 17.474 28.738C18.314 28.738 19.0793 28.9107 19.77 29.256C20.47 29.6013 21.0487 30.0867 21.506 30.712C21.9727 31.3373 22.2667 32.0653 22.388 32.896H20.75C20.6567 32.3547 20.456 31.874 20.148 31.454C19.84 31.034 19.4573 30.7073 19 30.474C18.552 30.2407 18.048 30.124 17.488 30.124C16.9933 30.124 16.536 30.2173 16.116 30.404C15.7053 30.5907 15.346 30.8567 15.038 31.202C14.7393 31.5473 14.506 31.9533 14.338 32.42C14.1793 32.8867 14.1 33.4 14.1 33.96C14.1 34.52 14.1793 35.038 14.338 35.514C14.506 35.9807 14.7393 36.3867 15.038 36.732C15.346 37.0773 15.7053 37.348 16.116 37.544C16.536 37.7307 16.9933 37.824 17.488 37.824C18.048 37.824 18.5567 37.7073 19.014 37.474C19.4713 37.2313 19.8493 36.9 20.148 36.48C20.456 36.06 20.6567 35.5793 20.75 35.038H22.388C22.2667 35.8687 21.9727 36.5967 21.506 37.222C21.0487 37.8473 20.47 38.3373 19.77 38.692C19.0793 39.0373 18.314 39.21 17.474 39.21ZM26.9845 39.14C26.4618 39.14 25.9765 39.0467 25.5285 38.86C25.0898 38.664 24.7072 38.3933 24.3805 38.048C24.0538 37.6933 23.7972 37.2827 23.6105 36.816C23.4332 36.3493 23.3445 35.8407 23.3445 35.29C23.3445 34.7393 23.4332 34.2307 23.6105 33.764C23.7972 33.2973 24.0538 32.8913 24.3805 32.546C24.7072 32.1913 25.0898 31.9207 25.5285 31.734C25.9765 31.538 26.4618 31.44 26.9845 31.44C27.5165 31.44 28.0018 31.538 28.4405 31.734C28.8885 31.9207 29.2712 32.1913 29.5885 32.546C29.9152 32.8913 30.1672 33.2973 30.3445 33.764C30.5312 34.2307 30.6245 34.7393 30.6245 35.29C30.6245 35.8407 30.5312 36.3493 30.3445 36.816C30.1672 37.2827 29.9152 37.6933 29.5885 38.048C29.2712 38.3933 28.8885 38.664 28.4405 38.86C28.0018 39.0467 27.5165 39.14 26.9845 39.14ZM26.9845 37.894C27.3952 37.894 27.7638 37.7913 28.0905 37.586C28.4265 37.3713 28.6878 37.068 28.8745 36.676C29.0705 36.284 29.1685 35.822 29.1685 35.29C29.1685 34.7487 29.0705 34.2867 28.8745 33.904C28.6878 33.512 28.4265 33.2133 28.0905 33.008C27.7638 32.8027 27.3952 32.7 26.9845 32.7C26.5832 32.7 26.2145 32.8027 25.8785 33.008C25.5518 33.2133 25.2905 33.512 25.0945 33.904C24.9078 34.2867 24.8145 34.7487 24.8145 35.29C24.8145 35.822 24.9078 36.284 25.0945 36.676C25.2905 37.068 25.5518 37.3713 25.8785 37.586C26.2145 37.7913 26.5832 37.894 26.9845 37.894ZM39.1499 35.29C39.1499 36.0367 39.0146 36.6993 38.7439 37.278C38.4733 37.8567 38.0906 38.314 37.5959 38.65C37.1106 38.9767 36.5366 39.14 35.8739 39.14C35.3699 39.14 34.9126 39.0187 34.5019 38.776C34.0913 38.5333 33.7506 38.188 33.4799 37.74V41.702H32.0659V31.58H33.3819V32.938C33.6433 32.462 33.9933 32.0933 34.4319 31.832C34.8706 31.5707 35.3513 31.44 35.8739 31.44C36.5366 31.44 37.1106 31.608 37.5959 31.944C38.0906 32.2707 38.4733 32.7233 38.7439 33.302C39.0146 33.8807 39.1499 34.5433 39.1499 35.29ZM37.6799 35.29C37.6799 34.4593 37.4793 33.82 37.0779 33.372C36.6859 32.9147 36.1866 32.686 35.5799 32.686C35.1879 32.686 34.8333 32.7887 34.5159 32.994C34.1986 33.1993 33.9466 33.4933 33.7599 33.876C33.5733 34.2587 33.4799 34.73 33.4799 35.29C33.4799 35.8313 33.5733 36.298 33.7599 36.69C33.9466 37.0727 34.1986 37.3667 34.5159 37.572C34.8333 37.7773 35.1879 37.88 35.5799 37.88C36.1866 37.88 36.6859 37.656 37.0779 37.208C37.4793 36.76 37.6799 36.1207 37.6799 35.29ZM46.5111 31.58L42.8011 41.702H41.2611L42.3251 38.902L39.3991 31.58H40.9251L43.0811 37.236L45.0831 31.58H46.5111ZM53.7155 39L52.0355 33.484L50.3415 39H48.9135L46.7715 31.58H48.1575L49.6555 36.984L51.3355 31.58H52.7355L54.3875 36.998L55.8855 31.58H57.2855L55.1295 39H53.7155ZM59.853 35.206V39H58.439V31.58H59.755V33.148C60.0163 32.6347 60.4037 32.2287 60.917 31.93C61.4397 31.6313 62.0043 31.482 62.611 31.482V32.952C62.079 32.924 61.603 32.9847 61.183 33.134C60.7723 33.2833 60.4457 33.5307 60.203 33.876C59.9697 34.212 59.853 34.6553 59.853 35.206ZM65.144 39H63.73V31.58H65.144V39ZM65.452 29.858C65.452 30.1193 65.354 30.3433 65.158 30.53C64.9713 30.7073 64.7287 30.796 64.43 30.796C64.122 30.796 63.87 30.7073 63.674 30.53C63.4873 30.3433 63.394 30.1193 63.394 29.858C63.394 29.578 63.4873 29.354 63.674 29.186C63.87 29.0087 64.122 28.92 64.43 28.92C64.7287 28.92 64.9713 29.0087 65.158 29.186C65.354 29.354 65.452 29.578 65.452 29.858ZM71.293 37.628V38.874C71.0783 38.9767 70.8683 39.0467 70.663 39.084C70.467 39.1213 70.257 39.14 70.033 39.14C69.5756 39.14 69.1696 39.056 68.815 38.888C68.4696 38.72 68.199 38.4587 68.003 38.104C67.807 37.7493 67.709 37.3013 67.709 36.76V32.784H66.071V31.58H67.709V29.382H69.123V31.58H71.363V32.784H69.123V36.438C69.123 36.9513 69.235 37.3107 69.459 37.516C69.6923 37.7213 69.9956 37.824 70.369 37.824C70.537 37.824 70.6956 37.81 70.845 37.782C71.0036 37.7447 71.153 37.6933 71.293 37.628ZM75.5593 39.14C74.8407 39.14 74.2107 38.9813 73.6693 38.664C73.1373 38.3373 72.722 37.88 72.4233 37.292C72.1247 36.704 71.9753 36.0227 71.9753 35.248C71.9753 34.5107 72.1293 33.8573 72.4373 33.288C72.7453 32.7187 73.1653 32.2707 73.6973 31.944C74.2293 31.608 74.836 31.44 75.5173 31.44C76.0773 31.44 76.5767 31.5473 77.0153 31.762C77.4633 31.9673 77.8413 32.2613 78.1493 32.644C78.4667 33.0173 78.6953 33.4607 78.8353 33.974C78.9753 34.478 79.0127 35.0333 78.9473 35.64H72.8013V34.702H77.4493C77.4213 34.0113 77.23 33.4747 76.8753 33.092C76.53 32.7 76.068 32.504 75.4893 32.504C75.0693 32.504 74.7007 32.616 74.3833 32.84C74.0753 33.0547 73.8327 33.3673 73.6553 33.778C73.4873 34.1793 73.4033 34.6693 73.4033 35.248C73.4033 35.8267 73.4873 36.326 73.6553 36.746C73.8233 37.1567 74.066 37.474 74.3833 37.698C74.7007 37.922 75.0833 38.034 75.5313 38.034C76.0633 38.034 76.502 37.8987 76.8473 37.628C77.202 37.3573 77.4353 36.9793 77.5473 36.494H78.9473C78.77 37.3153 78.378 37.964 77.7713 38.44C77.174 38.9067 76.4367 39.14 75.5593 39.14ZM81.8647 35.206V39H80.4507V31.58H81.7667V33.148C82.028 32.6347 82.4154 32.2287 82.9287 31.93C83.4514 31.6313 84.016 31.482 84.6227 31.482V32.952C84.0907 32.924 83.6147 32.9847 83.1947 33.134C82.784 33.2833 82.4574 33.5307 82.2147 33.876C81.9814 34.212 81.8647 34.6553 81.8647 35.206Z" fill="white"/>
<path d="M91.8609 12.0242L105.913 6.6093C106.933 6.21949 107.919 7.22158 107.514 8.23492L101.88 22.201C101.452 23.2804 99.8395 23.2016 99.5168 22.0721L98.2474 17.6647C98.1611 17.3989 98.2077 17.0899 98.4084 16.8483L101.845 12.4998C101.912 12.434 101.913 12.3014 101.826 12.2124C101.76 12.1456 101.627 12.1445 101.56 12.2103L97.1588 15.579C96.8922 15.7537 96.6045 15.8178 96.34 15.7273L91.953 14.3894C90.8286 14.0491 90.7749 12.4356 91.8609 12.0242Z" fill="#1E1E1E"/>
</svg>
