<svg width="170" height="19" viewBox="0 0 170 19" fill="none" xmlns="http://www.w3.org/2000/svg">
<g opacity="0.4">
<path d="M17.4542 10.835L24.8414 15.9999L25.3954 15.0395L18.0144 9.88086L17.4542 10.835Z" fill="#1E1E1E"/>
<path d="M30.4864 7.61504L23.0993 2.4502L22.5391 3.40437L29.92 8.56921L30.4864 7.61504Z" fill="#1E1E1E"/>
<path d="M44.8359 3.03505C43.1553 1.32985 40.9084 0.387989 38.5137 0.387989C35.6451 0.387989 32.9611 1.79155 31.3051 4.08772L32.2162 4.72793C33.669 2.72109 36.0144 1.50221 38.5137 1.50221C40.6068 1.50221 42.5705 2.32712 44.0479 3.81686C45.5192 5.3066 46.3133 7.28265 46.2825 9.38183C46.2271 13.5063 42.8229 16.9413 38.7046 17.0337C38.6369 17.0337 38.5691 17.0337 38.5076 17.0337C36.9501 17.0337 35.4235 16.5412 34.0876 15.6116L23.9549 8.58772L14.4563 2.00084C12.9296 0.942021 11.1813 0.387992 9.40226 0.381836C9.32839 0.381836 9.25452 0.381836 9.18065 0.381836C6.88448 0.437239 4.71758 1.37294 3.08626 3.01658C1.44878 4.67253 0.53154 6.84558 0.50076 9.1479C0.46998 11.5426 1.3749 13.808 3.05548 15.5132C4.73605 17.2184 6.98297 18.1602 9.37764 18.1602C12.2832 18.1602 14.998 16.7259 16.654 14.3682L15.7429 13.7279C14.2962 15.784 11.92 17.0398 9.38379 17.0398C7.29077 17.0398 5.32702 16.2211 3.85575 14.7252C2.38448 13.2355 1.59036 11.2594 1.62114 9.16021C1.67655 5.03573 5.08079 1.60071 9.19911 1.50221C9.26683 1.50221 9.33455 1.50221 9.39611 1.50221C10.9536 1.50221 12.4802 1.99469 13.8161 2.92424L23.9488 9.95434L33.4474 16.5412C34.9679 17.6 36.7224 18.1541 38.5014 18.1602C38.5753 18.1602 38.6492 18.1602 38.723 18.1602C41.0192 18.1048 43.1861 17.1691 44.8113 15.5255C46.4426 13.8818 47.3598 11.7088 47.3906 9.40646C47.4214 7.01179 46.5165 4.7464 44.8359 3.0412" fill="#1E1E1E"/>
<path d="M61.4507 9.25305C61.4507 6.54444 63.2852 4.91926 66.0246 4.91926C67.0095 4.91926 67.9452 5.09778 68.8378 5.41174V4.50066C68.0191 4.21749 67.0034 4.05127 65.8153 4.05127C62.7742 4.05127 60.3303 5.75032 60.3303 9.32692C60.3303 12.2448 61.9247 14.4979 65.9445 14.4979C67.1696 14.4979 68.1484 14.3194 69.0902 14.0362V13.1559C68.0314 13.5007 67.1819 13.6299 66.0984 13.6299C62.7927 13.6299 61.4507 11.7524 61.4507 9.24689" fill="#1E1E1E"/>
<path d="M76.8407 13.6297C73.892 13.6297 72.6547 11.6906 72.6547 9.26516C72.6547 6.83972 73.8797 4.91291 76.8407 4.91291C79.8017 4.91291 81.0268 6.87666 81.0268 9.26516C81.0268 11.6537 79.8079 13.6297 76.8407 13.6297ZM76.8715 4.05107C73.221 4.05107 71.5651 6.35956 71.5651 9.30826C71.5651 12.257 73.1718 14.4916 76.8222 14.4916C80.4727 14.4916 82.1102 12.2139 82.1102 9.2467C82.1102 6.27953 80.485 4.04492 76.8653 4.04492" fill="#1E1E1E"/>
<path d="M93.2032 11.0071C93.2032 12.7492 92.1136 13.6172 89.9837 13.6172C87.8537 13.6172 86.7826 12.7554 86.7826 10.9948V4.21709H85.7114V10.9332C85.7114 13.3771 87.3181 14.4914 89.959 14.4914C92.5999 14.4914 94.262 13.3279 94.262 10.9148V4.21094H93.2032V11.0009V11.0071Z" fill="#1E1E1E"/>
<path d="M101.741 8.90792H99.6546V5.09123H101.618C103.422 5.09123 104.684 5.55293 104.684 6.95033C104.684 8.19999 103.57 8.90177 101.735 8.90177M105.774 6.87646C105.774 4.96812 104.241 4.21094 101.631 4.21094H98.5773V14.2944H99.6484V9.75129H101.791L105.22 14.2944H106.426L102.849 9.52968C104.61 9.23419 105.767 8.23077 105.767 6.87646" fill="#1E1E1E"/>
<path d="M113.998 13.6297C111.049 13.6297 109.812 11.6906 109.812 9.26516C109.812 6.83972 111.037 4.91291 113.998 4.91291C116.959 4.91291 118.184 6.87666 118.184 9.26516C118.184 11.6537 116.965 13.6297 113.998 13.6297ZM114.029 4.05107C110.378 4.05107 108.722 6.35956 108.722 9.30826C108.722 12.257 110.329 14.4916 113.979 14.4916C117.63 14.4916 119.267 12.2139 119.267 9.2467C119.267 6.27953 117.642 4.04492 114.023 4.04492" fill="#1E1E1E"/>
<path d="M129.215 9.53602H133.968V8.65573H129.215V5.09143H134.62V4.21729H128.138V14.3007H134.663V13.4204H129.215V9.53602Z" fill="#1E1E1E"/>
<path d="M144.144 9.25305C144.144 6.54444 145.978 4.91926 148.717 4.91926C149.702 4.91926 150.638 5.09778 151.531 5.41174V4.50066C150.712 4.21749 149.696 4.05127 148.508 4.05127C145.467 4.05127 143.023 5.75032 143.023 9.32692C143.023 12.2448 144.618 14.4979 148.637 14.4979C149.862 14.4979 150.841 14.3194 151.783 14.0362V13.1559C150.724 13.5007 149.875 13.6299 148.791 13.6299C145.486 13.6299 144.144 11.7524 144.144 9.24689" fill="#1E1E1E"/>
<path d="M157.016 4.21729H155.945V14.3007H157.016V4.21729Z" fill="#1E1E1E"/>
<path d="M164.914 13.6111C162.913 13.6111 161.842 12.977 161.842 11.5427C161.842 10.8532 162.076 10.3115 162.538 9.9175C162.605 9.85594 162.685 9.80054 162.765 9.75129C163.381 9.35731 164.304 9.16032 165.542 9.16032H168.497V12.1583C168.318 12.4168 166.871 13.6111 164.914 13.6111ZM169.5 5.11586V4.21094H162.224L162.211 5.10355H168.478L168.49 8.27386H165.351C161.836 8.27386 160.826 9.60354 160.826 11.6412C160.826 13.4202 162.076 14.4852 164.686 14.4852C166.157 14.4852 167.444 14.0174 168.49 13.2479V14.2882H169.494V5.1097L169.5 5.11586Z" fill="#1E1E1E"/>
</g>
</svg>
