<svg width="169" height="49" viewBox="0 0 169 49" fill="none" xmlns="http://www.w3.org/2000/svg">
<rect x="20.0005" y="18.9998" width="149" height="30" rx="15" fill="#1E1E1E"/>
<path d="M37.4745 39.2098C36.7745 39.2098 36.1212 39.0791 35.5145 38.8178C34.9172 38.5471 34.3898 38.1738 33.9325 37.6978C33.4845 37.2218 33.1345 36.6664 32.8825 36.0318C32.6305 35.3878 32.5045 34.6971 32.5045 33.9598C32.5045 33.2224 32.6305 32.5364 32.8825 31.9018C33.1345 31.2671 33.4845 30.7164 33.9325 30.2498C34.3898 29.7738 34.9172 29.4051 35.5145 29.1438C36.1212 28.8731 36.7745 28.7378 37.4745 28.7378C38.3145 28.7378 39.0798 28.9104 39.7705 29.2558C40.4705 29.6011 41.0492 30.0864 41.5065 30.7118C41.9732 31.3371 42.2672 32.0651 42.3885 32.8958H40.7505C40.6572 32.3544 40.4565 31.8738 40.1485 31.4538C39.8405 31.0338 39.4578 30.7071 39.0005 30.4738C38.5525 30.2404 38.0485 30.1238 37.4885 30.1238C36.9938 30.1238 36.5365 30.2171 36.1165 30.4038C35.7058 30.5904 35.3465 30.8564 35.0385 31.2018C34.7398 31.5471 34.5065 31.9531 34.3385 32.4198C34.1798 32.8864 34.1005 33.3998 34.1005 33.9598C34.1005 34.5198 34.1798 35.0378 34.3385 35.5138C34.5065 35.9804 34.7398 36.3864 35.0385 36.7318C35.3465 37.0771 35.7058 37.3478 36.1165 37.5438C36.5365 37.7304 36.9938 37.8238 37.4885 37.8238C38.0485 37.8238 38.5572 37.7071 39.0145 37.4738C39.4718 37.2311 39.8498 36.8998 40.1485 36.4798C40.4565 36.0598 40.6572 35.5791 40.7505 35.0378H42.3885C42.2672 35.8684 41.9732 36.5964 41.5065 37.2218C41.0492 37.8471 40.4705 38.3371 39.7705 38.6918C39.0798 39.0371 38.3145 39.2098 37.4745 39.2098ZM48.511 35.9478V31.5798H49.925V38.9998H48.609V37.8378C48.4223 38.2111 48.1236 38.5238 47.713 38.7758C47.3023 39.0184 46.845 39.1398 46.341 39.1398C45.8463 39.1398 45.403 39.0418 45.011 38.8458C44.6283 38.6498 44.3296 38.3464 44.115 37.9358C43.9096 37.5158 43.807 36.9884 43.807 36.3538V31.5798H45.221V36.0738C45.221 36.7178 45.3656 37.1844 45.655 37.4738C45.9443 37.7538 46.3223 37.8938 46.789 37.8938C47.1063 37.8938 47.3956 37.8144 47.657 37.6558C47.9183 37.4878 48.1236 37.2591 48.273 36.9698C48.4316 36.6711 48.511 36.3304 48.511 35.9478ZM57.7687 36.7878C57.7687 37.5158 57.498 38.0898 56.9567 38.5098C56.4154 38.9298 55.65 39.1398 54.6607 39.1398C53.69 39.1398 52.92 38.9111 52.3507 38.4538C51.7907 37.9964 51.4734 37.3711 51.3987 36.5778H52.7567C52.7754 37.0444 52.9574 37.4131 53.3027 37.6838C53.6574 37.9451 54.1194 38.0758 54.6887 38.0758C55.1834 38.0758 55.58 37.9871 55.8787 37.8098C56.1867 37.6324 56.3407 37.3711 56.3407 37.0258C56.3407 36.7178 56.238 36.4844 56.0327 36.3258C55.8367 36.1671 55.5054 36.0458 55.0387 35.9618L53.8347 35.7378C53.1534 35.6071 52.626 35.3691 52.2527 35.0238C51.8794 34.6691 51.6927 34.2118 51.6927 33.6518C51.6927 33.2131 51.8094 32.8304 52.0427 32.5038C52.2854 32.1678 52.6214 31.9064 53.0507 31.7198C53.48 31.5331 53.9794 31.4398 54.5487 31.4398C55.146 31.4398 55.6687 31.5424 56.1167 31.7478C56.5647 31.9438 56.924 32.2284 57.1947 32.6018C57.4654 32.9658 57.6194 33.4044 57.6567 33.9178H56.2987C56.252 33.4791 56.0747 33.1338 55.7667 32.8818C55.4587 32.6298 55.0574 32.5038 54.5627 32.5038C54.1147 32.5038 53.7507 32.5971 53.4707 32.7838C53.2 32.9611 53.0647 33.2084 53.0647 33.5258C53.0647 33.8244 53.1627 34.0531 53.3587 34.2118C53.564 34.3611 53.8907 34.4824 54.3387 34.5758L55.5987 34.8138C56.336 34.9444 56.882 35.1731 57.2367 35.4998C57.5914 35.8264 57.7687 36.2558 57.7687 36.7878ZM63.4028 37.6278V38.8738C63.1881 38.9764 62.9781 39.0464 62.7728 39.0838C62.5768 39.1211 62.3668 39.1398 62.1428 39.1398C61.6855 39.1398 61.2795 39.0558 60.9248 38.8878C60.5795 38.7198 60.3088 38.4584 60.1128 38.1038C59.9168 37.7491 59.8188 37.3011 59.8188 36.7598V32.7838H58.1808V31.5798H59.8188V29.3818H61.2328V31.5798H63.4728V32.7838H61.2328V36.4378C61.2328 36.9511 61.3448 37.3104 61.5688 37.5158C61.8021 37.7211 62.1055 37.8238 62.4788 37.8238C62.6468 37.8238 62.8055 37.8098 62.9548 37.7818C63.1135 37.7444 63.2628 37.6931 63.4028 37.6278ZM67.7252 39.1398C67.2025 39.1398 66.7172 39.0464 66.2692 38.8598C65.8305 38.6638 65.4479 38.3931 65.1212 38.0478C64.7945 37.6931 64.5379 37.2824 64.3512 36.8158C64.1739 36.3491 64.0852 35.8404 64.0852 35.2898C64.0852 34.7391 64.1739 34.2304 64.3512 33.7638C64.5379 33.2971 64.7945 32.8911 65.1212 32.5458C65.4479 32.1911 65.8305 31.9204 66.2692 31.7338C66.7172 31.5378 67.2025 31.4398 67.7252 31.4398C68.2572 31.4398 68.7425 31.5378 69.1812 31.7338C69.6292 31.9204 70.0119 32.1911 70.3292 32.5458C70.6559 32.8911 70.9079 33.2971 71.0852 33.7638C71.2719 34.2304 71.3652 34.7391 71.3652 35.2898C71.3652 35.8404 71.2719 36.3491 71.0852 36.8158C70.9079 37.2824 70.6559 37.6931 70.3292 38.0478C70.0119 38.3931 69.6292 38.6638 69.1812 38.8598C68.7425 39.0464 68.2572 39.1398 67.7252 39.1398ZM67.7252 37.8938C68.1359 37.8938 68.5045 37.7911 68.8312 37.5858C69.1672 37.3711 69.4285 37.0678 69.6152 36.6758C69.8112 36.2838 69.9092 35.8218 69.9092 35.2898C69.9092 34.7484 69.8112 34.2864 69.6152 33.9038C69.4285 33.5118 69.1672 33.2131 68.8312 33.0078C68.5045 32.8024 68.1359 32.6998 67.7252 32.6998C67.3239 32.6998 66.9552 32.8024 66.6192 33.0078C66.2925 33.2131 66.0312 33.5118 65.8352 33.9038C65.6485 34.2864 65.5552 34.7484 65.5552 35.2898C65.5552 35.8218 65.6485 36.2838 65.8352 36.6758C66.0312 37.0678 66.2925 37.3711 66.6192 37.5858C66.9552 37.7911 67.3239 37.8938 67.7252 37.8938ZM74.2207 38.9998H72.8067V31.5798H74.1227V32.8118C74.3747 32.3824 74.6967 32.0464 75.0887 31.8038C75.4807 31.5611 75.9333 31.4398 76.4467 31.4398C76.988 31.4398 77.4547 31.5751 77.8467 31.8458C78.248 32.1071 78.5327 32.4851 78.7007 32.9798C78.962 32.5038 79.3027 32.1304 79.7227 31.8598C80.1427 31.5798 80.6373 31.4398 81.2067 31.4398C81.972 31.4398 82.5787 31.6824 83.0267 32.1678C83.484 32.6438 83.7127 33.3204 83.7127 34.1978V38.9998H82.2987V34.6458C82.2987 34.0204 82.1633 33.5398 81.8927 33.2038C81.622 32.8584 81.23 32.6858 80.7167 32.6858C80.3993 32.6858 80.1053 32.7744 79.8347 32.9518C79.5733 33.1198 79.3633 33.3578 79.2047 33.6658C79.046 33.9738 78.9667 34.3331 78.9667 34.7438V38.9998H77.5527V34.6458C77.5527 34.0204 77.4173 33.5398 77.1467 33.2038C76.8853 32.8584 76.4933 32.6858 75.9707 32.6858C75.644 32.6858 75.3453 32.7744 75.0747 32.9518C74.8133 33.1198 74.6033 33.3578 74.4447 33.6658C74.2953 33.9738 74.2207 34.3331 74.2207 34.7438V38.9998ZM88.6555 39.1398C87.9369 39.1398 87.3069 38.9811 86.7655 38.6638C86.2335 38.3371 85.8182 37.8798 85.5195 37.2918C85.2209 36.7038 85.0715 36.0224 85.0715 35.2478C85.0715 34.5104 85.2255 33.8571 85.5335 33.2878C85.8415 32.7184 86.2615 32.2704 86.7935 31.9438C87.3255 31.6078 87.9322 31.4398 88.6135 31.4398C89.1735 31.4398 89.6729 31.5471 90.1115 31.7618C90.5595 31.9671 90.9375 32.2611 91.2455 32.6438C91.5629 33.0171 91.7915 33.4604 91.9315 33.9738C92.0715 34.4778 92.1089 35.0331 92.0435 35.6398H85.8975V34.7018H90.5455C90.5175 34.0111 90.3262 33.4744 89.9715 33.0918C89.6262 32.6998 89.1642 32.5038 88.5855 32.5038C88.1655 32.5038 87.7969 32.6158 87.4795 32.8398C87.1715 33.0544 86.9289 33.3671 86.7515 33.7778C86.5835 34.1791 86.4995 34.6691 86.4995 35.2478C86.4995 35.8264 86.5835 36.3258 86.7515 36.7458C86.9195 37.1564 87.1622 37.4738 87.4795 37.6978C87.7969 37.9218 88.1795 38.0338 88.6275 38.0338C89.1595 38.0338 89.5982 37.8984 89.9435 37.6278C90.2982 37.3571 90.5315 36.9791 90.6435 36.4938H92.0435C91.8662 37.3151 91.4742 37.9638 90.8675 38.4398C90.2702 38.9064 89.5329 39.1398 88.6555 39.1398ZM94.9609 35.2058V38.9998H93.5469V31.5798H94.8629V33.1478C95.1242 32.6344 95.5116 32.2284 96.0249 31.9298C96.5476 31.6311 97.1122 31.4818 97.7189 31.4818V32.9518C97.1869 32.9238 96.7109 32.9844 96.2909 33.1338C95.8802 33.2831 95.5536 33.5304 95.3109 33.8758C95.0776 34.2118 94.9609 34.6551 94.9609 35.2058ZM109.226 36.0598C109.226 36.6384 109.072 37.1611 108.764 37.6278C108.465 38.0944 108.031 38.4631 107.462 38.7338C106.892 39.0044 106.202 39.1398 105.39 39.1398C104.578 39.1398 103.878 39.0044 103.29 38.7338C102.711 38.4538 102.258 38.0618 101.932 37.5578C101.605 37.0538 101.418 36.4704 101.372 35.8078H102.94C102.977 36.4424 103.196 36.9511 103.598 37.3338C104.008 37.7164 104.596 37.9078 105.362 37.9078C105.791 37.9078 106.174 37.8424 106.51 37.7118C106.846 37.5811 107.107 37.3944 107.294 37.1518C107.49 36.9091 107.588 36.6151 107.588 36.2698C107.588 35.8498 107.448 35.5231 107.168 35.2898C106.888 35.0564 106.458 34.8791 105.88 34.7578L104.424 34.4778C104.069 34.4031 103.728 34.3004 103.402 34.1698C103.084 34.0391 102.795 33.8711 102.534 33.6658C102.282 33.4511 102.081 33.1898 101.932 32.8818C101.792 32.5644 101.722 32.1958 101.722 31.7758C101.722 31.2064 101.871 30.6978 102.17 30.2498C102.478 29.8018 102.898 29.4518 103.43 29.1998C103.971 28.9384 104.592 28.8078 105.292 28.8078C105.992 28.8078 106.617 28.9431 107.168 29.2138C107.728 29.4844 108.176 29.8624 108.512 30.3478C108.857 30.8331 109.048 31.4118 109.086 32.0838H107.518C107.49 31.6824 107.378 31.3278 107.182 31.0198C106.995 30.7118 106.743 30.4738 106.426 30.3058C106.108 30.1284 105.735 30.0398 105.306 30.0398C104.876 30.0398 104.512 30.1191 104.214 30.2778C103.915 30.4271 103.686 30.6278 103.528 30.8798C103.369 31.1224 103.29 31.3884 103.29 31.6778C103.29 31.9951 103.369 32.2518 103.528 32.4478C103.696 32.6344 103.915 32.7838 104.186 32.8958C104.456 33.0078 104.746 33.0964 105.054 33.1618L106.538 33.4558C107.406 33.6331 108.068 33.9224 108.526 34.3238C108.992 34.7251 109.226 35.3038 109.226 36.0598ZM115.394 35.9478V31.5798H116.808V38.9998H115.492V37.8378C115.305 38.2111 115.006 38.5238 114.596 38.7758C114.185 39.0184 113.728 39.1398 113.224 39.1398C112.729 39.1398 112.286 39.0418 111.894 38.8458C111.511 38.6498 111.212 38.3464 110.998 37.9358C110.792 37.5158 110.69 36.9884 110.69 36.3538V31.5798H112.104V36.0738C112.104 36.7178 112.248 37.1844 112.538 37.4738C112.827 37.7538 113.205 37.8938 113.672 37.8938C113.989 37.8938 114.278 37.8144 114.54 37.6558C114.801 37.4878 115.006 37.2591 115.156 36.9698C115.314 36.6711 115.394 36.3304 115.394 35.9478ZM121.698 39.1538C121.016 39.1538 120.414 38.9904 119.892 38.6638C119.378 38.3371 118.972 37.8844 118.674 37.3058C118.384 36.7178 118.24 36.0458 118.24 35.2898C118.24 34.5431 118.389 33.8804 118.688 33.3018C118.986 32.7231 119.397 32.2704 119.92 31.9438C120.442 31.6078 121.035 31.4398 121.698 31.4398C122.314 31.4398 122.86 31.5704 123.336 31.8318C123.821 32.0838 124.218 32.4478 124.526 32.9238C124.843 33.3904 125.044 33.9458 125.128 34.5898H123.644C123.569 33.9924 123.359 33.5258 123.014 33.1898C122.668 32.8538 122.234 32.6858 121.712 32.6858C121.301 32.6858 120.946 32.7978 120.648 33.0218C120.349 33.2364 120.116 33.5351 119.948 33.9178C119.78 34.3004 119.696 34.7578 119.696 35.2898C119.696 35.8124 119.78 36.2698 119.948 36.6618C120.116 37.0538 120.349 37.3571 120.648 37.5718C120.946 37.7864 121.301 37.8938 121.712 37.8938C122.244 37.8938 122.678 37.7258 123.014 37.3898C123.359 37.0538 123.574 36.5871 123.658 35.9898H125.128C125.053 36.6431 124.862 37.2078 124.554 37.6838C124.246 38.1504 123.849 38.5144 123.364 38.7758C122.878 39.0278 122.323 39.1538 121.698 39.1538ZM129.408 39.1538C128.727 39.1538 128.125 38.9904 127.602 38.6638C127.089 38.3371 126.683 37.8844 126.384 37.3058C126.095 36.7178 125.95 36.0458 125.95 35.2898C125.95 34.5431 126.1 33.8804 126.398 33.3018C126.697 32.7231 127.108 32.2704 127.63 31.9438C128.153 31.6078 128.746 31.4398 129.408 31.4398C130.024 31.4398 130.57 31.5704 131.046 31.8318C131.532 32.0838 131.928 32.4478 132.236 32.9238C132.554 33.3904 132.754 33.9458 132.838 34.5898H131.354C131.28 33.9924 131.07 33.5258 130.724 33.1898C130.379 32.8538 129.945 32.6858 129.422 32.6858C129.012 32.6858 128.657 32.7978 128.358 33.0218C128.06 33.2364 127.826 33.5351 127.658 33.9178C127.49 34.3004 127.406 34.7578 127.406 35.2898C127.406 35.8124 127.49 36.2698 127.658 36.6618C127.826 37.0538 128.06 37.3571 128.358 37.5718C128.657 37.7864 129.012 37.8938 129.422 37.8938C129.954 37.8938 130.388 37.7258 130.724 37.3898C131.07 37.0538 131.284 36.5871 131.368 35.9898H132.838C132.764 36.6431 132.572 37.2078 132.264 37.6838C131.956 38.1504 131.56 38.5144 131.074 38.7758C130.589 39.0278 130.034 39.1538 129.408 39.1538ZM137.245 39.1398C136.527 39.1398 135.897 38.9811 135.355 38.6638C134.823 38.3371 134.408 37.8798 134.109 37.2918C133.811 36.7038 133.661 36.0224 133.661 35.2478C133.661 34.5104 133.815 33.8571 134.123 33.2878C134.431 32.7184 134.851 32.2704 135.383 31.9438C135.915 31.6078 136.522 31.4398 137.203 31.4398C137.763 31.4398 138.263 31.5471 138.701 31.7618C139.149 31.9671 139.527 32.2611 139.835 32.6438C140.153 33.0171 140.381 33.4604 140.521 33.9738C140.661 34.4778 140.699 35.0331 140.633 35.6398H134.487V34.7018H139.135C139.107 34.0111 138.916 33.4744 138.561 33.0918C138.216 32.6998 137.754 32.5038 137.175 32.5038C136.755 32.5038 136.387 32.6158 136.069 32.8398C135.761 33.0544 135.519 33.3671 135.341 33.7778C135.173 34.1791 135.089 34.6691 135.089 35.2478C135.089 35.8264 135.173 36.3258 135.341 36.7458C135.509 37.1564 135.752 37.4738 136.069 37.6978C136.387 37.9218 136.769 38.0338 137.217 38.0338C137.749 38.0338 138.188 37.8984 138.533 37.6278C138.888 37.3571 139.121 36.9791 139.233 36.4938H140.633C140.456 37.3151 140.064 37.9638 139.457 38.4398C138.86 38.9064 138.123 39.1398 137.245 39.1398ZM148.017 36.7878C148.017 37.5158 147.746 38.0898 147.205 38.5098C146.663 38.9298 145.898 39.1398 144.909 39.1398C143.938 39.1398 143.168 38.9111 142.599 38.4538C142.039 37.9964 141.721 37.3711 141.647 36.5778H143.005C143.023 37.0444 143.205 37.4131 143.551 37.6838C143.905 37.9451 144.367 38.0758 144.937 38.0758C145.431 38.0758 145.828 37.9871 146.127 37.8098C146.435 37.6324 146.589 37.3711 146.589 37.0258C146.589 36.7178 146.486 36.4844 146.281 36.3258C146.085 36.1671 145.753 36.0458 145.287 35.9618L144.083 35.7378C143.401 35.6071 142.874 35.3691 142.501 35.0238C142.127 34.6691 141.941 34.2118 141.941 33.6518C141.941 33.2131 142.057 32.8304 142.291 32.5038C142.533 32.1678 142.869 31.9064 143.299 31.7198C143.728 31.5331 144.227 31.4398 144.797 31.4398C145.394 31.4398 145.917 31.5424 146.365 31.7478C146.813 31.9438 147.172 32.2284 147.443 32.6018C147.713 32.9658 147.867 33.4044 147.905 33.9178H146.547C146.5 33.4791 146.323 33.1338 146.015 32.8818C145.707 32.6298 145.305 32.5038 144.811 32.5038C144.363 32.5038 143.999 32.5971 143.719 32.7838C143.448 32.9611 143.313 33.2084 143.313 33.5258C143.313 33.8244 143.411 34.0531 143.607 34.2118C143.812 34.3611 144.139 34.4824 144.587 34.5758L145.847 34.8138C146.584 34.9444 147.13 35.1731 147.485 35.4998C147.839 35.8264 148.017 36.2558 148.017 36.7878ZM155.441 36.7878C155.441 37.5158 155.17 38.0898 154.629 38.5098C154.087 38.9298 153.322 39.1398 152.333 39.1398C151.362 39.1398 150.592 38.9111 150.023 38.4538C149.463 37.9964 149.145 37.3711 149.071 36.5778H150.429C150.447 37.0444 150.629 37.4131 150.975 37.6838C151.329 37.9451 151.791 38.0758 152.361 38.0758C152.855 38.0758 153.252 37.9871 153.551 37.8098C153.859 37.6324 154.013 37.3711 154.013 37.0258C154.013 36.7178 153.91 36.4844 153.705 36.3258C153.509 36.1671 153.177 36.0458 152.711 35.9618L151.507 35.7378C150.825 35.6071 150.298 35.3691 149.925 35.0238C149.551 34.6691 149.365 34.2118 149.365 33.6518C149.365 33.2131 149.481 32.8304 149.715 32.5038C149.957 32.1678 150.293 31.9064 150.723 31.7198C151.152 31.5331 151.651 31.4398 152.221 31.4398C152.818 31.4398 153.341 31.5424 153.789 31.7478C154.237 31.9438 154.596 32.2284 154.867 32.6018C155.137 32.9658 155.291 33.4044 155.329 33.9178H153.971C153.924 33.4791 153.747 33.1338 153.439 32.8818C153.131 32.6298 152.729 32.5038 152.235 32.5038C151.787 32.5038 151.423 32.5971 151.143 32.7838C150.872 32.9611 150.737 33.2084 150.737 33.5258C150.737 33.8244 150.835 34.0531 151.031 34.2118C151.236 34.3611 151.563 34.4824 152.011 34.5758L153.271 34.8138C154.008 34.9444 154.554 35.1731 154.909 35.4998C155.263 35.8264 155.441 36.2558 155.441 36.7878Z" fill="white"/>
<path d="M22.1911 12.0242L8.13889 6.6093C7.11935 6.21949 6.13276 7.22158 6.53842 8.23492L12.1717 22.201C12.6 23.2804 14.2125 23.2016 14.5352 22.0721L15.8046 17.6647C15.8909 17.3989 15.8443 17.0899 15.6436 16.8483L12.2066 12.4998C12.1398 12.434 12.1388 12.3014 12.2265 12.2124C12.2922 12.1456 12.4248 12.1445 12.4916 12.2103L16.8932 15.579C17.1598 15.7537 17.4475 15.8178 17.712 15.7273L22.099 14.3894C23.2234 14.0491 23.2771 12.4356 22.1911 12.0242Z" fill="#1E1E1E"/>
</svg>
