<svg width="30" height="29" viewBox="0 0 30 29" fill="none" xmlns="http://www.w3.org/2000/svg">
<path d="M8.31066 28.9961C13.8255 28.9961 16.9622 26.4708 20.6098 18.7306C22.5989 14.4664 24.2998 10.2853 26.2484 6.14662L28.5704 6.89243C29.1916 7.09916 29.5244 6.72626 29.2342 6.14662L26.4148 0.3927C26.2078 -0.0207782 25.751 -0.0632861 25.4609 0.0623032L18.4541 2.71127C17.8736 2.918 17.9142 3.45708 18.4947 3.62131L20.5672 4.28404C18.8681 8.13479 16.7532 13.9293 15.0523 17.5713C13.1444 21.6289 12.1923 24.4846 8.95889 24.4846C5.72546 24.4846 5.18558 21.9593 6.55366 18.3577C8.12876 14.1766 10.7817 12.9342 13.8081 13.8036C14.6382 12.6444 15.2594 10.9055 15.5071 9.33272C14.6363 9.08348 13.5991 9.00233 12.7303 9.00233C7.83851 9.00233 2.98739 11.5276 0.998178 16.8256C-1.57154 23.6557 0.804676 28.9961 8.30872 28.9961H8.31066Z" fill="#02F67C"/>
</svg>
