<svg width="103" height="49" viewBox="0 0 103 49" fill="none" xmlns="http://www.w3.org/2000/svg">
<rect y="19" width="83" height="30" rx="15" fill="#1E1E1E"/>
<path d="M16.27 39H13.092V28.948H16.27C17.3433 28.948 18.258 29.1627 19.014 29.592C19.77 30.012 20.344 30.5953 20.736 31.342C21.128 32.0887 21.324 32.952 21.324 33.932C21.324 34.9027 21.1233 35.7707 20.722 36.536C20.3207 37.292 19.7373 37.894 18.972 38.342C18.216 38.7807 17.3153 39 16.27 39ZM14.632 30.278V37.67H16.2C16.9747 37.67 17.6233 37.5207 18.146 37.222C18.678 36.914 19.0793 36.48 19.35 35.92C19.6207 35.36 19.756 34.6973 19.756 33.932C19.756 33.176 19.6207 32.5273 19.35 31.986C19.0793 31.4353 18.678 31.0153 18.146 30.726C17.6233 30.4273 16.9747 30.278 16.2 30.278H14.632ZM25.8758 39.14C25.1571 39.14 24.5271 38.9813 23.9858 38.664C23.4538 38.3373 23.0384 37.88 22.7398 37.292C22.4411 36.704 22.2918 36.0227 22.2918 35.248C22.2918 34.5107 22.4458 33.8573 22.7538 33.288C23.0618 32.7187 23.4818 32.2707 24.0138 31.944C24.5458 31.608 25.1524 31.44 25.8338 31.44C26.3938 31.44 26.8931 31.5473 27.3318 31.762C27.7798 31.9673 28.1578 32.2613 28.4658 32.644C28.7831 33.0173 29.0118 33.4607 29.1518 33.974C29.2918 34.478 29.3291 35.0333 29.2638 35.64H23.1178V34.702H27.7658C27.7378 34.0113 27.5464 33.4747 27.1918 33.092C26.8464 32.7 26.3844 32.504 25.8058 32.504C25.3858 32.504 25.0171 32.616 24.6998 32.84C24.3918 33.0547 24.1491 33.3673 23.9718 33.778C23.8038 34.1793 23.7198 34.6693 23.7198 35.248C23.7198 35.8267 23.8038 36.326 23.9718 36.746C24.1398 37.1567 24.3824 37.474 24.6998 37.698C25.0171 37.922 25.3998 38.034 25.8478 38.034C26.3798 38.034 26.8184 37.8987 27.1638 37.628C27.5184 37.3573 27.7518 36.9793 27.8638 36.494H29.2638C29.0864 37.3153 28.6944 37.964 28.0878 38.44C27.4904 38.9067 26.7531 39.14 25.8758 39.14ZM36.6471 36.788C36.6471 37.516 36.3764 38.09 35.8351 38.51C35.2938 38.93 34.5284 39.14 33.5391 39.14C32.5684 39.14 31.7984 38.9113 31.2291 38.454C30.6691 37.9967 30.3518 37.3713 30.2771 36.578H31.6351C31.6538 37.0447 31.8358 37.4133 32.1811 37.684C32.5358 37.9453 32.9978 38.076 33.5671 38.076C34.0618 38.076 34.4584 37.9873 34.7571 37.81C35.0651 37.6327 35.2191 37.3713 35.2191 37.026C35.2191 36.718 35.1164 36.4847 34.9111 36.326C34.7151 36.1673 34.3838 36.046 33.9171 35.962L32.7131 35.738C32.0318 35.6073 31.5044 35.3693 31.1311 35.024C30.7578 34.6693 30.5711 34.212 30.5711 33.652C30.5711 33.2133 30.6878 32.8307 30.9211 32.504C31.1638 32.168 31.4998 31.9067 31.9291 31.72C32.3584 31.5333 32.8578 31.44 33.4271 31.44C34.0244 31.44 34.5471 31.5427 34.9951 31.748C35.4431 31.944 35.8024 32.2287 36.0731 32.602C36.3438 32.966 36.4978 33.4047 36.5351 33.918H35.1771C35.1304 33.4793 34.9531 33.134 34.6451 32.882C34.3371 32.63 33.9358 32.504 33.4411 32.504C32.9931 32.504 32.6291 32.5973 32.3491 32.784C32.0784 32.9613 31.9431 33.2087 31.9431 33.526C31.9431 33.8247 32.0411 34.0533 32.2371 34.212C32.4424 34.3613 32.7691 34.4827 33.2171 34.576L34.4771 34.814C35.2144 34.9447 35.7604 35.1733 36.1151 35.5C36.4698 35.8267 36.6471 36.256 36.6471 36.788ZM39.6049 39H38.1909V31.58H39.6049V39ZM39.9129 29.858C39.9129 30.1193 39.8149 30.3433 39.6189 30.53C39.4323 30.7073 39.1896 30.796 38.8909 30.796C38.5829 30.796 38.3309 30.7073 38.1349 30.53C37.9483 30.3433 37.8549 30.1193 37.8549 29.858C37.8549 29.578 37.9483 29.354 38.1349 29.186C38.3309 29.0087 38.5829 28.92 38.8909 28.92C39.1896 28.92 39.4323 29.0087 39.6189 29.186C39.8149 29.354 39.9129 29.578 39.9129 29.858ZM44.5359 41.856C43.8919 41.856 43.3272 41.744 42.8419 41.52C42.3566 41.3053 41.9739 40.9927 41.6939 40.582C41.4232 40.1713 41.2739 39.6907 41.2459 39.14H42.6179C42.6646 39.6533 42.8466 40.0453 43.1639 40.316C43.4906 40.596 43.9432 40.736 44.5219 40.736C45.1659 40.736 45.6512 40.568 45.9779 40.232C46.3046 39.9053 46.4679 39.42 46.4679 38.776V37.432C46.2532 37.8707 45.9452 38.216 45.5439 38.468C45.1519 38.72 44.7039 38.846 44.1999 38.846C43.5839 38.846 43.0379 38.6873 42.5619 38.37C42.0859 38.0527 41.7126 37.614 41.4419 37.054C41.1712 36.494 41.0359 35.8547 41.0359 35.136C41.0359 34.3987 41.1666 33.7547 41.4279 33.204C41.6892 32.644 42.0532 32.21 42.5199 31.902C42.9959 31.594 43.5419 31.44 44.1579 31.44C44.6899 31.44 45.1612 31.566 45.5719 31.818C45.9826 32.07 46.3139 32.4293 46.5659 32.896V31.58H47.8819V38.748C47.8819 39.728 47.5879 40.4887 46.9999 41.03C46.4119 41.5807 45.5906 41.856 44.5359 41.856ZM42.4639 35.136C42.4639 35.9013 42.6412 36.508 42.9959 36.956C43.3506 37.3947 43.8359 37.614 44.4519 37.614C44.8532 37.614 45.2032 37.516 45.5019 37.32C45.8099 37.1147 46.0479 36.83 46.2159 36.466C46.3839 36.0927 46.4679 35.6633 46.4679 35.178C46.4679 34.4127 46.2859 33.8013 45.9219 33.344C45.5579 32.8867 45.0679 32.658 44.4519 32.658C43.8452 32.658 43.3599 32.882 42.9959 33.33C42.6412 33.7687 42.4639 34.3707 42.4639 35.136ZM51.2534 34.814V39H49.8394V31.58H51.1554V32.812C51.4074 32.4013 51.734 32.07 52.1354 31.818C52.546 31.566 53.008 31.44 53.5214 31.44C54.2867 31.44 54.898 31.678 55.3554 32.154C55.822 32.63 56.0554 33.3113 56.0554 34.198V39H54.6414V34.674C54.6414 34.0393 54.506 33.5493 54.2354 33.204C53.9647 32.8587 53.5634 32.686 53.0314 32.686C52.7047 32.686 52.406 32.7747 52.1354 32.952C51.8647 33.12 51.65 33.3627 51.4914 33.68C51.3327 33.9973 51.2534 34.3753 51.2534 34.814ZM60.9851 39.14C60.2665 39.14 59.6365 38.9813 59.0951 38.664C58.5631 38.3373 58.1478 37.88 57.8491 37.292C57.5505 36.704 57.4011 36.0227 57.4011 35.248C57.4011 34.5107 57.5551 33.8573 57.8631 33.288C58.1711 32.7187 58.5911 32.2707 59.1231 31.944C59.6551 31.608 60.2618 31.44 60.9431 31.44C61.5031 31.44 62.0025 31.5473 62.4411 31.762C62.8891 31.9673 63.2671 32.2613 63.5751 32.644C63.8925 33.0173 64.1211 33.4607 64.2611 33.974C64.4011 34.478 64.4385 35.0333 64.3731 35.64H58.2271V34.702H62.8751C62.8471 34.0113 62.6558 33.4747 62.3011 33.092C61.9558 32.7 61.4938 32.504 60.9151 32.504C60.4951 32.504 60.1265 32.616 59.8091 32.84C59.5011 33.0547 59.2585 33.3673 59.0811 33.778C58.9131 34.1793 58.8291 34.6693 58.8291 35.248C58.8291 35.8267 58.9131 36.326 59.0811 36.746C59.2491 37.1567 59.4918 37.474 59.8091 37.698C60.1265 37.922 60.5091 38.034 60.9571 38.034C61.4891 38.034 61.9278 37.8987 62.2731 37.628C62.6278 37.3573 62.8611 36.9793 62.9731 36.494H64.3731C64.1958 37.3153 63.8038 37.964 63.1971 38.44C62.5998 38.9067 61.8625 39.14 60.9851 39.14ZM67.2905 35.206V39H65.8765V31.58H67.1925V33.148C67.4538 32.6347 67.8412 32.2287 68.3545 31.93C68.8772 31.6313 69.4418 31.482 70.0485 31.482V32.952C69.5165 32.924 69.0405 32.9847 68.6205 33.134C68.2098 33.2833 67.8832 33.5307 67.6405 33.876C67.4072 34.212 67.2905 34.6553 67.2905 35.206Z" fill="white"/>
<path d="M79.8609 12.0242L93.9131 6.6093C94.9327 6.21949 95.9192 7.22158 95.5136 8.23492L89.8803 22.201C89.452 23.2804 87.8395 23.2016 87.5168 22.0721L86.2474 17.6647C86.1611 17.3989 86.2077 17.0899 86.4084 16.8483L89.8454 12.4998C89.9122 12.434 89.9132 12.3014 89.8255 12.2124C89.7598 12.1456 89.6272 12.1445 89.5604 12.2103L85.1588 15.579C84.8922 15.7537 84.6045 15.8178 84.34 15.7273L79.953 14.3894C78.8286 14.0491 78.7749 12.4356 79.8609 12.0242Z" fill="#1E1E1E"/>
</svg>
