<svg width="110" height="49" viewBox="0 0 110 49" fill="none" xmlns="http://www.w3.org/2000/svg">
<rect x="20.0005" y="18.9998" width="90" height="30" rx="15" fill="#1E1E1E"/>
<path d="M36.2705 38.9998H33.0925V28.9478H36.2705C37.3438 28.9478 38.2585 29.1624 39.0145 29.5918C39.7705 30.0118 40.3445 30.5951 40.7365 31.3418C41.1285 32.0884 41.3245 32.9518 41.3245 33.9318C41.3245 34.9024 41.1238 35.7704 40.7225 36.5358C40.3212 37.2918 39.7378 37.8938 38.9725 38.3418C38.2165 38.7804 37.3158 38.9998 36.2705 38.9998ZM34.6325 30.2778V37.6698H36.2005C36.9752 37.6698 37.6238 37.5204 38.1465 37.2218C38.6785 36.9138 39.0798 36.4798 39.3505 35.9198C39.6212 35.3598 39.7565 34.6971 39.7565 33.9318C39.7565 33.1758 39.6212 32.5271 39.3505 31.9858C39.0798 31.4351 38.6785 31.0151 38.1465 30.7258C37.6238 30.4271 36.9752 30.2778 36.2005 30.2778H34.6325ZM45.8762 39.1398C45.1576 39.1398 44.5276 38.9811 43.9862 38.6638C43.4542 38.3371 43.0389 37.8798 42.7402 37.2918C42.4416 36.7038 42.2922 36.0224 42.2922 35.2478C42.2922 34.5104 42.4462 33.8571 42.7542 33.2878C43.0622 32.7184 43.4822 32.2704 44.0142 31.9438C44.5462 31.6078 45.1529 31.4398 45.8342 31.4398C46.3942 31.4398 46.8936 31.5471 47.3322 31.7618C47.7802 31.9671 48.1582 32.2611 48.4662 32.6438C48.7836 33.0171 49.0122 33.4604 49.1522 33.9738C49.2922 34.4778 49.3296 35.0331 49.2642 35.6398H43.1182V34.7018H47.7662C47.7382 34.0111 47.5469 33.4744 47.1922 33.0918C46.8469 32.6998 46.3849 32.5038 45.8062 32.5038C45.3862 32.5038 45.0176 32.6158 44.7002 32.8398C44.3922 33.0544 44.1496 33.3671 43.9722 33.7778C43.8042 34.1791 43.7202 34.6691 43.7202 35.2478C43.7202 35.8264 43.8042 36.3258 43.9722 36.7458C44.1402 37.1564 44.3829 37.4738 44.7002 37.6978C45.0176 37.9218 45.4002 38.0338 45.8482 38.0338C46.3802 38.0338 46.8189 37.8984 47.1642 37.6278C47.5189 37.3571 47.7522 36.9791 47.8642 36.4938H49.2642C49.0869 37.3151 48.6949 37.9638 48.0882 38.4398C47.4909 38.9064 46.7536 39.1398 45.8762 39.1398ZM56.6952 31.5798L53.9092 38.9998H52.3692L49.5832 31.5798H51.1092L53.1672 37.3758L55.2532 31.5798H56.6952ZM60.5188 39.1398C59.8001 39.1398 59.1701 38.9811 58.6288 38.6638C58.0968 38.3371 57.6815 37.8798 57.3828 37.2918C57.0841 36.7038 56.9348 36.0224 56.9348 35.2478C56.9348 34.5104 57.0888 33.8571 57.3968 33.2878C57.7048 32.7184 58.1248 32.2704 58.6568 31.9438C59.1888 31.6078 59.7955 31.4398 60.4768 31.4398C61.0368 31.4398 61.5362 31.5471 61.9748 31.7618C62.4228 31.9671 62.8008 32.2611 63.1088 32.6438C63.4262 33.0171 63.6548 33.4604 63.7948 33.9738C63.9348 34.4778 63.9721 35.0331 63.9068 35.6398H57.7608V34.7018H62.4088C62.3808 34.0111 62.1895 33.4744 61.8348 33.0918C61.4895 32.6998 61.0275 32.5038 60.4488 32.5038C60.0288 32.5038 59.6601 32.6158 59.3428 32.8398C59.0348 33.0544 58.7921 33.3671 58.6148 33.7778C58.4468 34.1791 58.3628 34.6691 58.3628 35.2478C58.3628 35.8264 58.4468 36.3258 58.6148 36.7458C58.7828 37.1564 59.0255 37.4738 59.3428 37.6978C59.6601 37.9218 60.0428 38.0338 60.4908 38.0338C61.0228 38.0338 61.4615 37.8984 61.8068 37.6278C62.1615 37.3571 62.3948 36.9791 62.5068 36.4938H63.9068C63.7295 37.3151 63.3375 37.9638 62.7308 38.4398C62.1335 38.9064 61.3962 39.1398 60.5188 39.1398ZM66.8382 38.9998H65.4102V28.9478H66.8382V38.9998ZM71.9088 39.1398C71.3861 39.1398 70.9008 39.0464 70.4528 38.8598C70.0141 38.6638 69.6315 38.3931 69.3048 38.0478C68.9781 37.6931 68.7215 37.2824 68.5348 36.8158C68.3575 36.3491 68.2688 35.8404 68.2688 35.2898C68.2688 34.7391 68.3575 34.2304 68.5348 33.7638C68.7215 33.2971 68.9781 32.8911 69.3048 32.5458C69.6315 32.1911 70.0141 31.9204 70.4528 31.7338C70.9008 31.5378 71.3861 31.4398 71.9088 31.4398C72.4408 31.4398 72.9261 31.5378 73.3648 31.7338C73.8128 31.9204 74.1955 32.1911 74.5128 32.5458C74.8395 32.8911 75.0915 33.2971 75.2688 33.7638C75.4555 34.2304 75.5488 34.7391 75.5488 35.2898C75.5488 35.8404 75.4555 36.3491 75.2688 36.8158C75.0915 37.2824 74.8395 37.6931 74.5128 38.0478C74.1955 38.3931 73.8128 38.6638 73.3648 38.8598C72.9261 39.0464 72.4408 39.1398 71.9088 39.1398ZM71.9088 37.8938C72.3195 37.8938 72.6881 37.7911 73.0148 37.5858C73.3508 37.3711 73.6121 37.0678 73.7988 36.6758C73.9948 36.2838 74.0928 35.8218 74.0928 35.2898C74.0928 34.7484 73.9948 34.2864 73.7988 33.9038C73.6121 33.5118 73.3508 33.2131 73.0148 33.0078C72.6881 32.8024 72.3195 32.6998 71.9088 32.6998C71.5075 32.6998 71.1388 32.8024 70.8028 33.0078C70.4761 33.2131 70.2148 33.5118 70.0188 33.9038C69.8321 34.2864 69.7388 34.7484 69.7388 35.2898C69.7388 35.8218 69.8321 36.2838 70.0188 36.6758C70.2148 37.0678 70.4761 37.3711 70.8028 37.5858C71.1388 37.7911 71.5075 37.8938 71.9088 37.8938ZM84.0743 35.2898C84.0743 36.0364 83.9389 36.6991 83.6683 37.2778C83.3976 37.8564 83.0149 38.3138 82.5203 38.6498C82.0349 38.9764 81.4609 39.1398 80.7983 39.1398C80.2943 39.1398 79.8369 39.0184 79.4263 38.7758C79.0156 38.5331 78.6749 38.1878 78.4043 37.7398V41.7018H76.9903V31.5798H78.3063V32.9378C78.5676 32.4618 78.9176 32.0931 79.3563 31.8318C79.7949 31.5704 80.2756 31.4398 80.7983 31.4398C81.4609 31.4398 82.0349 31.6078 82.5203 31.9438C83.0149 32.2704 83.3976 32.7231 83.6683 33.3018C83.9389 33.8804 84.0743 34.5431 84.0743 35.2898ZM82.6043 35.2898C82.6043 34.4591 82.4036 33.8198 82.0023 33.3718C81.6103 32.9144 81.1109 32.6858 80.5043 32.6858C80.1123 32.6858 79.7576 32.7884 79.4403 32.9938C79.1229 33.1991 78.8709 33.4931 78.6843 33.8758C78.4976 34.2584 78.4043 34.7298 78.4043 35.2898C78.4043 35.8311 78.4976 36.2978 78.6843 36.6898C78.8709 37.0724 79.1229 37.3664 79.4403 37.5718C79.7576 37.7771 80.1123 37.8798 80.5043 37.8798C81.1109 37.8798 81.6103 37.6558 82.0023 37.2078C82.4036 36.7598 82.6043 36.1204 82.6043 35.2898ZM88.5598 39.1398C87.8412 39.1398 87.2112 38.9811 86.6698 38.6638C86.1378 38.3371 85.7225 37.8798 85.4238 37.2918C85.1252 36.7038 84.9758 36.0224 84.9758 35.2478C84.9758 34.5104 85.1298 33.8571 85.4378 33.2878C85.7458 32.7184 86.1658 32.2704 86.6978 31.9438C87.2298 31.6078 87.8365 31.4398 88.5178 31.4398C89.0778 31.4398 89.5772 31.5471 90.0158 31.7618C90.4638 31.9671 90.8418 32.2611 91.1498 32.6438C91.4672 33.0171 91.6958 33.4604 91.8358 33.9738C91.9758 34.4778 92.0132 35.0331 91.9478 35.6398H85.8018V34.7018H90.4498C90.4218 34.0111 90.2305 33.4744 89.8758 33.0918C89.5305 32.6998 89.0685 32.5038 88.4898 32.5038C88.0698 32.5038 87.7012 32.6158 87.3838 32.8398C87.0758 33.0544 86.8332 33.3671 86.6558 33.7778C86.4878 34.1791 86.4038 34.6691 86.4038 35.2478C86.4038 35.8264 86.4878 36.3258 86.6558 36.7458C86.8238 37.1564 87.0665 37.4738 87.3838 37.6978C87.7012 37.9218 88.0838 38.0338 88.5318 38.0338C89.0638 38.0338 89.5025 37.8984 89.8478 37.6278C90.2025 37.3571 90.4358 36.9791 90.5478 36.4938H91.9478C91.7705 37.3151 91.3785 37.9638 90.7718 38.4398C90.1745 38.9064 89.4372 39.1398 88.5598 39.1398ZM94.8652 35.2058V38.9998H93.4512V31.5798H94.7672V33.1478C95.0285 32.6344 95.4159 32.2284 95.9292 31.9298C96.4519 31.6311 97.0165 31.4818 97.6232 31.4818V32.9518C97.0912 32.9238 96.6152 32.9844 96.1952 33.1338C95.7845 33.2831 95.4579 33.5304 95.2152 33.8758C94.9819 34.2118 94.8652 34.6551 94.8652 35.2058Z" fill="white"/>
<path d="M22.1911 12.0242L8.13889 6.6093C7.11935 6.21949 6.13276 7.22158 6.53842 8.23492L12.1717 22.201C12.6 23.2804 14.2125 23.2016 14.5352 22.0721L15.8046 17.6647C15.8909 17.3989 15.8443 17.0899 15.6436 16.8483L12.2066 12.4998C12.1398 12.434 12.1388 12.3014 12.2265 12.2124C12.2922 12.1456 12.4248 12.1445 12.4916 12.2103L16.8932 15.579C17.1598 15.7537 17.4475 15.8178 17.712 15.7273L22.099 14.3894C23.2234 14.0491 23.2771 12.4356 22.1911 12.0242Z" fill="#1E1E1E"/>
</svg>
