<svg width="116" height="21" viewBox="0 0 116 21" fill="none" xmlns="http://www.w3.org/2000/svg">
<g opacity="0.4">
<path d="M5.47099 19.9106C5.76877 19.9223 6.0724 19.9339 6.38186 19.9514C6.69132 19.969 6.99493 19.9806 7.30439 19.9923C7.61385 20.004 7.89995 20.004 8.17437 20.004C8.81081 20.004 9.37134 19.9923 9.86181 19.9748C10.3523 19.9573 10.8019 19.9223 11.2106 19.8639C11.6193 19.8113 12.0163 19.7296 12.4075 19.6186C12.7987 19.5077 13.2074 19.3559 13.6454 19.1574C14.4219 18.8304 15.1518 18.3983 15.8349 17.867C16.5122 17.3298 17.1078 16.6992 17.6158 15.9635C18.1238 15.2278 18.5208 14.387 18.8127 13.4353C19.1047 12.4836 19.2448 11.4092 19.2448 10.2123C19.2448 9.17879 19.1222 8.19203 18.877 7.25197C18.6317 6.31192 18.2522 5.44193 17.7325 4.64201C17.2129 3.84209 16.5531 3.14143 15.7473 2.53419C14.9416 1.92695 13.984 1.44233 12.8805 1.08032C12.5009 0.951867 12.1389 0.846769 11.8061 0.765025C11.4675 0.683281 11.1172 0.619053 10.7435 0.578181C10.3698 0.531471 9.97274 0.502277 9.5465 0.48476C9.12027 0.467244 8.63565 0.455566 8.09264 0.455566C7.84157 0.455566 7.58465 0.455567 7.33358 0.467244C7.08251 0.478922 6.82561 0.478921 6.57454 0.478921C6.32347 0.496438 6.06657 0.508116 5.8155 0.519794C5.56443 0.531472 5.30751 0.531471 5.05644 0.531471H0V0.910996H3.01869V19.5077H0V19.8872H4.61852C4.89295 19.8872 5.17905 19.8872 5.47683 19.8989M5.73374 0.905157C6.07823 0.887641 6.4344 0.870124 6.80809 0.852608C7.18177 0.835091 7.59049 0.823413 8.04592 0.823413C9.56985 0.823413 10.8486 1.05113 11.882 1.50072C12.9155 1.95615 13.7446 2.59258 14.3694 3.41586C14.9941 4.23913 15.4437 5.23757 15.7123 6.40534C15.9809 7.57311 16.121 8.87517 16.121 10.3057C16.121 11.5202 16.0101 12.6412 15.7824 13.663C15.5547 14.6848 15.1518 15.6891 14.5738 16.67C14.1942 17.3065 13.7621 17.8144 13.2834 18.2056C12.8046 18.5968 12.2849 18.8946 11.7302 19.1048C11.1755 19.315 10.5975 19.4493 9.99026 19.5135C9.38302 19.5778 8.76993 19.607 8.15686 19.607C7.66639 19.607 7.21681 19.6011 6.81393 19.5778C6.40521 19.5602 6.04905 19.531 5.73959 19.496V0.899318L5.73374 0.905157Z" fill="#1E1E1E"/>
<path d="M22.1292 19.5138H19.1105V19.8992H27.8629V19.5138H24.8442V0.922961H27.8629V0.537598H19.1105V0.922961H22.1292V19.5138Z" fill="#1E1E1E"/>
<path d="M37.7131 19.4552C37.8123 19.3442 37.9992 19.2917 38.2678 19.2917C38.5772 19.2917 38.9392 19.3618 39.3538 19.5077C39.7683 19.6537 40.1595 19.7763 40.5216 19.8872C40.831 19.9748 41.1113 20.0449 41.3624 20.0916C41.6193 20.1383 41.8703 20.1792 42.1214 20.2142C42.3725 20.2493 42.6469 20.2726 42.9388 20.2843C43.2308 20.296 43.5636 20.296 43.9431 20.296C45.0116 20.296 45.975 20.1208 46.8275 19.7646C47.68 19.4085 48.404 18.9414 48.9995 18.3516C49.5951 17.7619 50.0564 17.0846 50.3717 16.3139C50.687 15.5432 50.8446 14.7316 50.8446 13.8791C50.8446 12.9565 50.6694 12.1917 50.3133 11.5961C49.9629 10.9947 49.5309 10.5159 49.0346 10.1539C48.5383 9.7919 48.0245 9.51747 47.499 9.33647C46.9735 9.15546 46.5355 9.00949 46.1969 8.90439L42.9096 7.87092C42.4367 7.72495 41.9696 7.55562 41.5083 7.36878C41.0471 7.1761 40.6266 6.94254 40.2588 6.66228C39.8851 6.38202 39.5815 6.03752 39.3479 5.62881C39.1144 5.22009 38.9918 4.72962 38.9918 4.14574C38.9918 3.42172 39.1436 2.82032 39.4414 2.35322C39.7391 1.88027 40.1187 1.50075 40.5682 1.21464C41.0237 0.922701 41.5083 0.718342 42.0338 0.601565C42.5593 0.484788 43.0381 0.4264 43.476 0.4264C44.2526 0.4264 44.9415 0.566532 45.5313 0.846796C46.121 1.12706 46.6231 1.50075 47.0377 1.96201C47.4522 2.42328 47.7967 2.96045 48.0595 3.56769C48.3222 4.17493 48.5091 4.80553 48.6142 5.45948H48.9412V0.537337H48.5616C48.4156 0.794246 48.3047 0.951895 48.223 1.01612C48.1412 1.08035 47.9836 1.10954 47.7442 1.10954C47.4931 1.10954 47.242 1.05699 46.9968 0.946057C46.7516 0.835119 46.4772 0.712502 46.1677 0.578209C45.8582 0.443916 45.4904 0.321301 45.0642 0.210363C44.6379 0.0994249 44.1066 0.046875 43.476 0.046875C42.606 0.046875 41.8061 0.192846 41.0704 0.484788C40.3347 0.77673 39.7041 1.17377 39.1786 1.68175C38.6531 2.18973 38.2444 2.79113 37.9583 3.49179C37.6664 4.18661 37.5262 4.94566 37.5262 5.7631C37.5262 7.01261 37.8999 8.01105 38.6531 8.75258C39.4063 9.49412 40.5157 10.0955 41.9813 10.5451L45.105 11.4968C45.4846 11.6078 45.8874 11.7596 46.3137 11.9581C46.7399 12.1566 47.1311 12.4135 47.4931 12.7347C47.8551 13.05 48.1529 13.4353 48.3923 13.8908C48.6259 14.3462 48.7426 14.8892 48.7426 15.5198C48.7426 15.9519 48.6726 16.4307 48.5266 16.9445C48.3806 17.4583 48.1295 17.9429 47.7675 18.3867C47.4055 18.8304 46.9151 19.1983 46.302 19.4902C45.6831 19.7821 44.8948 19.9223 43.9373 19.9223C43.5928 19.9223 43.2249 19.9106 42.8337 19.8931C42.4425 19.8756 42.0338 19.8113 41.6134 19.7004C41.1872 19.5895 40.7668 19.4201 40.3464 19.1807C39.9318 18.9472 39.5289 18.6085 39.1494 18.1765C38.7699 17.7386 38.4196 17.1897 38.1043 16.5182C37.789 15.8468 37.5262 15.0235 37.3277 14.0426H37.0299V19.8872H37.4386C37.5087 19.7062 37.5963 19.5603 37.6955 19.4493" fill="#1E1E1E"/>
<path d="M70.5565 2.914C70.9827 2.28925 71.4265 1.83382 71.8877 1.54188C72.349 1.24994 72.8103 1.07477 73.2599 1.01054C73.7095 0.946317 74.1182 0.917122 74.486 0.917122H76.0625V19.5138H73.0438V19.8933H81.7963V19.5138H78.7775V0.917122H80.354C80.716 0.917122 81.1248 0.952156 81.5802 1.01054C82.0356 1.07477 82.4911 1.24994 82.9523 1.54188C83.4136 1.83382 83.8574 2.28925 84.2836 2.914C84.7098 3.53876 85.0777 4.40291 85.3871 5.51229H85.6849V0.537598H69.1552V5.51229H69.4529C69.7624 4.40875 70.1303 3.53876 70.5565 2.914Z" fill="#1E1E1E"/>
<path d="M96.2883 19.514H93.2696V9.69895H95.9905C96.2999 9.69895 96.6619 9.72231 97.0765 9.76902C97.4911 9.81573 97.8939 9.95586 98.2851 10.1894C98.6763 10.423 99.015 10.7967 99.3069 11.3046C99.5989 11.8126 99.7799 12.5191 99.8499 13.4241L100.043 15.8998C100.095 16.5888 100.194 17.1902 100.329 17.7098C100.463 18.2295 100.679 18.6616 100.965 19.0177C101.257 19.3739 101.642 19.6367 102.121 19.8177C102.6 19.9987 103.201 20.0862 103.931 20.0862C104.311 20.0862 104.632 20.0629 104.895 20.0162C105.157 19.9695 105.379 19.9111 105.56 19.841C105.741 19.771 105.893 19.6892 106.01 19.6075C106.127 19.5257 106.232 19.4498 106.325 19.3739L106.08 19.0761C105.881 19.2746 105.654 19.4206 105.403 19.514C105.152 19.6016 104.906 19.6483 104.667 19.6483C104.141 19.6483 103.762 19.4557 103.523 19.0761C103.289 18.6966 103.114 18.2704 103.009 17.7974C102.939 17.488 102.886 17.1084 102.857 16.6588C102.828 16.2034 102.804 15.7363 102.775 15.2458C102.746 14.7554 102.711 14.2824 102.664 13.8212C102.618 13.3599 102.542 12.9453 102.431 12.5833C102.25 11.9644 101.94 11.4623 101.508 11.0769C101.076 10.6857 100.597 10.3763 100.078 10.1369C99.5639 9.90331 99.0559 9.73399 98.5537 9.63473C98.0574 9.53547 97.6604 9.4654 97.3684 9.43037V9.37782C98.4194 9.24936 99.2602 8.99829 99.8967 8.63045C100.533 8.25676 101.018 7.85388 101.351 7.41013C101.683 6.96638 101.905 6.52847 102.004 6.10223C102.104 5.67599 102.156 5.32567 102.156 5.05708C102.156 4.51407 102.022 3.93602 101.759 3.31711C101.497 2.70403 101.047 2.14934 100.416 1.65888C99.7098 1.09835 98.9508 0.759694 98.1333 0.637079C97.3159 0.520302 96.3758 0.461914 95.3073 0.461914C95.0913 0.461914 94.8752 0.461914 94.6534 0.473592C94.4373 0.48527 94.2155 0.485269 93.9994 0.485269C93.7834 0.502785 93.5615 0.514463 93.3455 0.526141C93.1294 0.537818 92.9134 0.537818 92.6915 0.537818H87.5242V0.917343H90.5428V19.514H87.5242V19.8936H96.2766V19.514H96.2883ZM93.2696 0.917343C93.5031 0.88231 93.7892 0.858955 94.1279 0.847277C94.4607 0.8356 94.7935 0.835599 95.1205 0.835599C95.5934 0.835599 96.0664 0.88231 96.5452 0.969892C97.024 1.06331 97.4619 1.25016 97.8531 1.5421C98.2443 1.83404 98.5596 2.26028 98.8048 2.83248C99.05 3.40469 99.1727 4.1579 99.1727 5.10379C99.1727 5.93874 99.0909 6.62773 98.9274 7.17074C98.7639 7.71375 98.5304 8.14582 98.2326 8.46112C97.9348 8.77642 97.5728 8.99829 97.1583 9.12675C96.7437 9.2552 96.2766 9.31943 95.7686 9.31943H93.2696V0.917343Z" fill="#1E1E1E"/>
<path d="M116 19.5138H112.981V0.922961H116V0.537598H107.248V0.922961H110.266V19.5138H107.248V19.8992H116V19.5138Z" fill="#1E1E1E"/>
<path d="M54.4004 18.439C54.6631 18.7192 54.9259 18.9644 55.5506 19.3148C56.333 19.7585 57.4482 19.8928 58.435 19.8928C59.4218 19.8928 60.0465 19.7877 60.6829 19.5483C61.3252 19.3031 61.9909 18.9586 62.4989 18.4039C62.8258 18.0536 63.4155 17.3121 63.6608 16.7632C63.8885 17.6857 64.2505 18.4273 64.7643 18.9586C65.3365 19.5483 66.2649 19.8461 67.5436 19.8461C68.2384 19.8461 68.8223 19.7352 69.3011 19.5191C69.7799 19.3031 70.1944 19.052 70.5389 18.7601L70.2178 18.2813C69.9258 18.5149 69.6164 18.6842 69.2952 18.801C68.9741 18.9177 68.6705 18.9761 68.3727 18.9761C67.9173 18.9761 67.3743 18.7601 67.024 18.5791C66.0839 18.1003 65.8328 17.1486 65.8328 16.3778L66.0839 4.95707C66.1072 3.6083 65.6577 2.45805 65.2665 1.87417C64.8519 1.25525 64.4023 0.939955 63.5732 0.607141C62.7441 0.274328 61.7223 0.11084 60.4903 0.11084C60.3852 0.11084 60.2801 0.116679 60.1808 0.122518C60.1224 0.122518 60.064 0.11084 59.9998 0.11084C59.3634 0.11084 58.8379 0.16339 58.4117 0.274328C57.9854 0.385266 57.6176 0.507881 57.3081 0.642174C56.9987 0.776467 56.7242 0.899083 56.479 1.01002C56.2337 1.12096 55.9827 1.17351 55.7316 1.17351C55.4981 1.17351 55.3404 1.14431 55.2528 1.08009C55.1711 1.01586 55.0601 0.858211 54.9142 0.607141H54.5347V5.52928H54.8616C54.9726 4.87533 55.1594 4.24474 55.4222 3.6375C55.6849 3.03026 56.0236 2.49892 56.4439 2.03182C56.7242 1.72236 57.0571 1.46545 57.4191 1.23774C57.4483 1.22606 57.4658 1.20854 57.495 1.19686C58.1022 0.9166 59.451 0.630496 60.3268 0.630496C60.9924 0.630496 61.7748 0.823178 62.1777 1.02754C62.5747 1.2319 62.8842 1.52384 63.1002 1.91504C63.3104 2.30624 63.4622 2.77335 63.5381 3.3222C63.6199 3.87105 63.6608 4.48997 63.6608 5.18479C63.6608 6.04894 63.6024 6.73792 63.4798 7.24006C63.3572 7.74804 63.1411 8.1626 62.82 8.49541C62.4988 8.82822 62.0551 9.10849 61.4771 9.3362C60.9049 9.56392 60.175 9.83834 59.2991 10.1595C58.5518 10.4164 57.8103 10.6616 57.0804 10.8952C56.3447 11.1287 55.7958 11.374 55.247 11.8235C54.3537 12.5476 54.1727 12.9096 54.05 13.1081C53.6764 13.7153 53.4194 14.3342 53.4194 15.3444C53.4194 15.7764 53.4778 16.1735 53.5829 16.6815C53.7815 17.6682 54.1668 18.2054 54.3945 18.4448M55.7024 15.1167C55.8075 14.1124 56.0294 13.5577 56.5199 12.9037C57.2439 11.9403 58.2949 11.4382 59.1473 11.0645L62.1485 9.76828C62.9718 9.39459 63.4155 9.02091 63.4681 8.64138H63.5498V12.968C63.5498 13.546 63.5031 14.1883 63.4097 14.8948C63.3163 15.6013 63.2579 16.0334 62.9543 16.6289C62.5047 17.5047 62.0784 18.0186 61.4829 18.3572C61.1617 18.5382 60.0056 19.0228 58.7912 18.9586C58.5109 18.9469 58.0497 18.871 57.676 18.7426C57.2439 18.5966 56.8877 18.3981 56.5724 18.1061C56.1637 17.7325 56.0469 17.388 55.8776 16.9442C55.7083 16.5005 55.6616 15.5779 55.7083 15.1167" fill="#1E1E1E"/>
<path d="M31.5062 10.7085C32.1426 11.3449 32.9542 11.6252 33.7717 11.1872C34.122 11.0004 34.4548 10.7143 34.4548 10.0895C34.4548 9.44143 33.579 8.58312 32.9776 8.31453C31.9324 7.84742 31.4303 7.70729 29.2758 7.92333L30.0874 9.06774C30.537 9.63411 30.9982 10.2005 31.5062 10.7085Z" fill="#1E1E1E"/>
</g>
</svg>
