<svg width="172" height="38" viewBox="0 0 172 38" fill="none" xmlns="http://www.w3.org/2000/svg">
<path opacity="0.5" d="M21.8524 19.6587C21.8524 19.6587 22.981 16.3083 14.314 15.8234C6.22016 15.3649 6.73153 17.7631 6.73153 17.7631C6.73153 17.7631 7.86009 18.3626 8.82112 18.8123C8.82112 18.8123 10.1436 18.0629 15.2398 18.1158C20.3359 18.1687 21.4204 18.8652 21.4204 18.8652C21.4204 18.8652 21.1647 20.2142 21.8436 19.6675" fill="#1E1E1E" fill-opacity="0.4"/>
<path d="M7.74551 31.0766C3.58397 30.3448 2.68465 33.1839 2.68465 33.1839C2.68465 33.1839 2.69347 33.1662 2.71992 33.1486L2.68465 33.1839C2.4995 33.7129 2.73755 33.8099 2.56121 34.6122C2.19091 36.3667 1.26514 37.4071 0.894831 37.7686C0.797846 37.8656 0.806663 37.8744 0.930099 37.7863C1.20342 37.5835 1.75006 37.0985 2.45541 36.0846C3.02851 35.2382 3.38118 34.3036 3.43408 33.3337C3.46053 32.8047 3.82202 32.5491 4.03362 32.4256C4.77424 32.2052 5.87634 32.0818 7.49864 32.2757C11.4927 32.7607 13.2296 30.4418 13.7674 29.4984C13.8997 29.2604 13.882 29.2516 13.7233 29.4632C13.1414 30.1861 11.4309 31.7291 7.75433 31.0855" fill="#1E1E1E" fill-opacity="0.4"/>
<path d="M11.8453 27.7966C10.946 27.8142 10.3905 27.8319 9.56173 27.726C8.62714 27.6908 6.1937 27.1618 7.51622 26.668C7.62202 26.6328 7.72783 26.5799 7.48096 26.6239C7.04893 26.7033 6.41412 26.8532 6.22896 27.0383C6.22896 27.0383 5.47953 28.1933 5.37373 28.3344C5.27675 28.4843 5.1974 28.5548 5.29438 28.7312C5.40018 28.934 6.76679 30.0008 12.2509 29.4453C16.4036 29.0309 17.6732 26.4652 18.0435 25.2485C18.1581 24.8606 18.1493 24.887 17.9289 25.2838C17.4175 26.1919 15.9539 27.6996 11.8453 27.8054" fill="#1E1E1E" fill-opacity="0.4"/>
<path d="M21.7907 20.4787C21.4645 21.5015 20.1684 23.6351 14.9841 23.882C13.7145 23.9437 12.9298 23.979 11.6778 23.882C10.4611 23.785 5.46192 23.0797 8.06288 21.6778C8.15105 21.6337 8.22159 21.5632 8.04525 21.6073C7.57796 21.7307 6.66982 22.0305 6.37005 22.5154C6.32597 22.5859 6.22898 23.1238 6.27307 23.8291C6.30833 24.3846 6.42295 24.7284 6.46704 24.8519C6.47585 24.8783 6.5023 24.9136 6.51994 24.9312C6.82853 25.1693 9.05919 26.677 14.6226 25.8394C20.8385 24.9136 21.7466 21.6602 21.87 20.417C21.8965 20.1172 21.8789 20.1437 21.7731 20.4699" fill="#1E1E1E" fill-opacity="0.4"/>
<path d="M19.7188 18.9445C16.5447 19.8526 14.2524 19.7292 11.9776 19.4912C10.1878 19.3854 4.85361 17.4633 9.37665 15.9732C9.37665 15.9732 7.02256 16.3524 6.52881 17.2869C6.51118 17.3222 6.50236 17.3487 6.50236 17.3487C6.26431 18.2744 6.6258 20.0466 6.6787 20.3464C6.70515 20.4786 6.81095 20.5668 6.8374 20.5844C7.30469 20.8578 12.9563 24.0054 20.2478 20.893C26.1022 18.3979 26.2697 11.3708 26.2697 11.3708C26.2697 11.3708 25.7583 17.2076 19.71 18.9357" fill="#1E1E1E" fill-opacity="0.4"/>
<path fill-rule="evenodd" clip-rule="evenodd" d="M28.8353 10.8419C28.7383 12.2702 28.2181 13.4164 27.4952 13.2577C26.9661 13.1431 26.4724 11.6795 26.4107 11.3621C26.3754 11.1769 26.3313 11.027 26.4548 10.7802C27.4775 9.03444 28.3945 7.52676 29.8228 6.39821C32.7941 4.05293 31.3393 9.58108 29.0293 10.6215C28.8706 10.692 28.8353 10.7096 28.8265 10.8507M26.1021 11.1417C25.9787 11.4503 25.3438 12.7199 23.9332 13.8308C22.3726 14.9505 20.2565 12.7551 22.3197 9.96902C22.4431 9.8015 22.4607 9.81914 22.258 9.73097C18.114 7.99405 18.4138 -0.805147 23.8362 5.48126C25.432 7.34161 25.9963 9.30776 26.1374 10.692C26.1638 10.8331 26.1374 11.0535 26.1021 11.1417ZM26.2696 12.0057C26.446 12.9403 26.7634 13.7603 27.4599 13.919C28.3504 14.1041 29.188 13.0196 29.4084 11.2122C29.426 11.0799 29.4525 11.124 29.5759 11.0535C32.2651 9.58108 33.9314 1.91925 30.2548 4.9787C28.0859 6.78615 26.7986 9.51055 26.4812 10.2952C26.4283 10.4187 26.3842 10.3834 26.3754 10.3129C26.155 8.44371 25.9787 6.03672 23.4041 2.77449C16.43 -5.337 16.333 7.76481 21.2969 9.93376C21.4997 10.0219 21.3851 10.0484 21.3146 10.1365C18.9693 12.8786 21.1911 16.2554 23.7215 14.7125C24.9559 13.963 25.8552 12.5083 26.1814 11.9881C26.2079 11.944 26.2608 11.9264 26.2784 11.9969L26.2696 12.0057Z" fill="#1E1E1E" fill-opacity="0.4"/>
<path d="M37.7139 27.2675C37.1409 27.2675 36.6824 26.7914 36.6824 26.2183V10.9564C36.6824 10.3745 37.1409 9.90718 37.7139 9.90718H47.677C48.2501 9.90718 48.7085 10.3657 48.7174 10.9564V11.168C48.7085 11.7587 48.2501 12.2172 47.677 12.2172H39.2304C39.2304 12.2172 39.1599 12.2525 39.1599 12.2877V17.0753C39.1599 17.0753 39.1864 17.1546 39.2304 17.1546H47.0069C47.58 17.1546 48.0473 17.6307 48.0473 18.2126V18.4066C48.0473 18.9885 47.58 19.4646 47.0069 19.4646H39.2304C39.2304 19.4646 39.1599 19.4911 39.1599 19.544V24.887C39.1599 24.887 39.1952 24.9575 39.2304 24.9575H47.7299C48.2941 24.9575 48.7526 25.4336 48.7526 26.0067V26.2095C48.7526 26.7914 48.2941 27.2587 47.7299 27.2587H37.7051L37.7139 27.2675ZM86.7708 27.2675C86.1977 27.2675 85.7392 26.7914 85.7392 26.2183V10.9564C85.7392 10.3745 86.1977 9.90718 86.7708 9.90718H96.7338C97.3069 9.90718 97.7654 10.3657 97.7742 10.9564V11.168C97.7654 11.7587 97.3069 12.2172 96.7338 12.2172H88.2873C88.2873 12.2172 88.2168 12.2525 88.2168 12.2877V17.0753C88.2168 17.0753 88.2432 17.1546 88.2873 17.1546H96.0726C96.6457 17.1546 97.1129 17.6307 97.1129 18.2126V18.4066C97.1129 18.9885 96.6457 19.4646 96.0726 19.4646H88.2873C88.2873 19.4646 88.2168 19.4999 88.2168 19.544V24.887C88.2168 24.887 88.252 24.9575 88.2873 24.9575H96.7955C97.3598 24.9575 97.8183 25.4336 97.8183 26.0067V26.2095C97.8183 26.7914 97.3598 27.2587 96.7955 27.2587H86.7708V27.2675ZM129.559 27.2675C128.986 27.2675 128.527 26.7914 128.527 26.2183V10.9564C128.527 10.3745 128.995 9.90718 129.559 9.90718H139.522C140.095 9.90718 140.553 10.3657 140.562 10.9564V11.168C140.553 11.7587 140.095 12.2172 139.522 12.2172H131.075C131.075 12.2172 131.005 12.2525 131.005 12.2877V17.0753C131.005 17.1193 131.04 17.1546 131.075 17.1546H138.861C139.434 17.1546 139.901 17.6307 139.901 18.2126V18.4066C139.901 18.9885 139.434 19.4646 138.861 19.4646H131.075C131.075 19.4646 131.005 19.4911 131.005 19.544V24.887C131.005 24.887 131.04 24.9575 131.075 24.9575H139.584C140.148 24.9575 140.606 25.4336 140.606 26.0067V26.2095C140.606 26.7914 140.148 27.2587 139.584 27.2587H129.559V27.2675ZM160.7 27.2675C160.136 27.2675 159.668 26.7914 159.668 26.2183V10.9564C159.668 10.3745 160.127 9.90718 160.7 9.90718H170.663C171.236 9.90718 171.695 10.3657 171.703 10.9564V11.168C171.695 11.7587 171.236 12.2172 170.663 12.2172H162.216C162.216 12.2172 162.146 12.2525 162.146 12.2877V17.0753C162.146 17.1193 162.181 17.1546 162.216 17.1546H170.002C170.575 17.1546 171.042 17.6307 171.042 18.2126V18.4066C171.042 18.9885 170.575 19.4646 170.002 19.4646H162.216C162.216 19.4646 162.146 19.4911 162.146 19.544V24.887C162.146 24.887 162.181 24.9575 162.216 24.9575H170.725C171.289 24.9575 171.747 25.4336 171.747 26.0067V26.2095C171.747 26.7914 171.289 27.2587 170.725 27.2587H160.7V27.2675ZM65.8925 27.3292C65.3459 27.3292 64.8962 26.8531 64.8962 26.2712V15.1532L60.7788 26.5005C60.5936 26.9942 60.1351 27.3292 59.6326 27.3381H59.3152C58.8038 27.3292 58.3542 27.003 58.1602 26.5093L54.0251 15.1532V26.28C54.0251 26.8619 53.5754 27.3381 53.0288 27.3381H52.632C52.0854 27.3381 51.6357 26.8619 51.6357 26.28V10.9035C51.6357 10.3216 52.0854 9.85428 52.632 9.85428H53.7077C54.2102 9.87191 54.6599 10.1981 54.8627 10.7007L59.4827 23.4234L64.0763 10.7095C64.2702 10.2069 64.7199 9.87191 65.2225 9.85428H66.3069C66.8536 9.85428 67.2944 10.3304 67.2944 10.9035V26.2624C67.2944 26.8443 66.8536 27.3204 66.3069 27.3204H65.9102L65.8925 27.3292ZM72.417 12.1731C72.417 12.1731 72.3465 12.2172 72.3465 12.2436V16.9959C72.3465 17.04 72.3817 17.0753 72.417 17.0753H77.037C79.0032 17.0576 80.0965 16.2377 80.1141 14.7653C80.0876 12.9578 79.1971 12.1996 77.037 12.1643H72.417V12.1731ZM72.417 19.4029C72.417 19.4029 72.3465 19.4382 72.3465 19.4823V24.9311C72.3465 24.9311 72.3817 25.0104 72.417 25.0104H77.134C79.5939 24.984 80.696 24.0846 80.7048 22.1009C80.6872 20.311 79.4881 19.4294 77.037 19.4029H72.417ZM70.9093 27.3204C70.3362 27.3204 69.8866 26.8531 69.8866 26.2624V10.9035C69.8866 10.3216 70.345 9.85428 70.9093 9.85428H77.037C78.6241 9.85428 79.8849 10.1805 80.8194 10.8065C81.6218 11.3267 82.5828 12.3759 82.574 14.3861C82.574 15.8762 81.8598 17.2428 80.7136 18.0098C82.2478 18.724 83.1824 20.2758 83.1735 22.1538C83.1735 23.4498 82.8297 24.5343 82.1596 25.3895C81.1633 26.668 79.4528 27.3204 77.0811 27.3292H70.9181L70.9093 27.3204ZM101.504 27.3204C100.939 27.3204 100.472 26.8443 100.472 26.2624V10.9035C100.472 10.3216 100.931 9.85428 101.504 9.85428H101.918C102.482 9.85428 102.95 10.3304 102.95 10.9035V24.9311C102.95 24.9311 102.985 25.0104 103.011 25.0104H110.788C111.352 25.0104 111.819 25.4865 111.819 26.0684V26.2712C111.819 26.8708 111.361 27.3292 110.788 27.3292H101.504V27.3204ZM115.54 27.3204C114.985 27.3204 114.517 26.8443 114.509 26.2624V10.9035C114.517 10.3216 114.976 9.85428 115.54 9.85428H115.955C116.519 9.85428 116.986 10.3304 116.986 10.9035V24.9311C116.986 24.9311 117.021 25.0104 117.057 25.0104H124.842C125.397 25.0104 125.873 25.4953 125.873 26.0684V26.2712C125.873 26.8531 125.415 27.3292 124.842 27.3292H115.549L115.54 27.3204ZM144.424 27.3204C143.842 27.3204 143.384 26.8531 143.375 26.2624V26.0067C143.375 25.5571 143.569 25.028 143.833 24.693L153.699 12.1643H144.309C143.728 12.1643 143.26 11.6882 143.26 11.1063V10.8947C143.26 10.3128 143.728 9.84546 144.309 9.84546H155.877C156.459 9.84546 156.926 10.3216 156.926 10.8947V11.1415C156.918 11.5912 156.741 12.1026 156.477 12.4641L146.593 24.9928H155.956C156.538 24.9928 157.006 25.4689 157.006 26.0508V26.2536C157.006 26.8355 156.538 27.3116 155.956 27.3116H144.415L144.424 27.3204Z" fill="#1E1E1E" fill-opacity="0.4"/>
</svg>
