<svg width="129" height="33" viewBox="0 0 129 33" fill="none" xmlns="http://www.w3.org/2000/svg">
<path d="M112.481 31.6627L114.357 21.6264C115.271 16.6325 117.788 13.9034 119.94 13.9034C121.587 13.9034 122.137 15.0136 122.137 16.5861C122.137 17.4176 122.045 18.3443 121.907 19.1294L119.574 31.6627H126.164L128.635 18.5279C128.818 17.4176 129 15.7081 129 14.6907C129 10.8049 126.941 8.54018 123.279 8.54018C120.305 8.54018 117.512 9.83619 115.407 12.7953H115.315L115.773 9.04885H109.914C109.638 11.0371 109.273 13.534 108.723 16.4025L105.887 31.6627H112.477H112.481ZM95.4128 13.5805C98.0675 13.5805 98.9363 15.8009 98.9363 17.8821C98.9363 21.7657 96.9229 27.0846 93.3075 27.0846C91.0205 27.0846 89.738 25.3264 89.738 22.6902C89.692 19.1759 91.6135 13.5805 95.4128 13.5805ZM96.2817 8.54018C88.3198 8.54018 82.9186 14.9694 82.9186 22.8295C82.9186 28.4249 86.7178 32.1714 92.3905 32.1714C100.171 32.1714 105.754 26.1137 105.754 17.8356C105.754 12.7025 102.276 8.54018 96.2817 8.54018ZM74.1317 4.79368L73.3088 9.04885H70.4265L69.5117 14.0891H72.348L70.6082 23.0617C70.2886 24.8199 70.1508 26.0209 70.1508 27.2704C70.1508 30.0925 72.0263 32.1714 75.9635 32.1714C77.3816 32.1714 79.0296 31.9856 79.8525 31.6627L80.6316 26.4366C80.0363 26.5295 79.3951 26.5295 78.7998 26.5295C77.3816 26.5295 76.9242 25.7422 76.9242 24.6342C76.9242 23.8468 77.1081 22.6459 77.2897 21.7679L78.7998 14.0914H83.5598L84.5206 9.05106H79.7605L80.9051 2.90053L74.1317 4.79589V4.79368ZM50.29 30.3667C51.6162 31.384 54.3168 32.0785 57.1553 32.1692C63.0578 32.2156 67.4064 29.3471 67.4064 24.1697C67.4064 21.0248 64.8436 19.2223 62.4187 17.9728C60.5891 17.0947 59.6721 16.3074 59.6721 15.3829C59.6721 14.1798 60.8627 13.3947 62.6004 13.3947C64.5678 13.3947 66.1239 13.9498 67.0846 14.412L68.6407 9.69464C67.542 9.04664 65.4826 8.53796 62.8739 8.53796C57.1072 8.53796 53.0344 11.6364 53.0344 16.3074C53.0344 19.1294 55.1857 21.0248 57.7944 22.3186C59.8538 23.3359 60.5869 24.1211 60.5869 25.2313C60.5869 26.3415 59.6262 27.266 57.7506 27.266C55.5993 27.266 53.1744 26.3415 51.8919 25.6935L50.29 30.3645V30.3667ZM43.0591 18.9901C42.0524 24.5391 39.6275 26.806 37.66 26.806C35.8304 26.806 34.9594 25.28 34.9594 23.0595C34.9594 18.8508 38.0715 13.5783 42.3281 13.5783C42.9694 13.5783 43.6106 13.6711 44.1118 13.764L43.0591 18.9901ZM48.2765 31.6605C48.1846 28.8385 48.596 24.3997 49.1454 21.487L51.5243 9.6482C49.6487 9.04664 46.7642 8.53796 44.1118 8.53796C33.0838 8.53796 28.094 16.6767 28.094 24.3068C28.094 29.0242 30.8406 32.1692 34.8675 32.1692C37.4762 32.1692 40.3125 30.9196 42.3719 27.1753H42.5098C42.3719 28.7942 42.2362 30.3203 42.1902 31.6605H48.2765ZM27.2295 13.9034H16.0178L15.011 19.2223H19.7711L18.5367 25.7886C17.8036 26.1115 16.7071 26.3438 15.1949 26.3438C10.3451 26.3438 7.27901 23.7075 7.27901 18.4814C7.27901 14.2263 9.06265 10.5284 11.7173 8.40084C13.7767 6.78193 16.5211 5.90392 19.5872 5.90392C22.3338 5.90392 24.7127 6.55192 26.1309 7.19993L28.0984 1.55808C26.9078 0.956514 23.9336 0.171387 19.9068 0.171387C14.5536 0.171387 9.79362 1.7903 6.31606 4.70301C2.37892 8.07795 0 13.1182 0 18.9459C0 22.9224 1.41816 26.346 3.889 28.5642C6.45175 30.8776 9.92931 31.9856 14.186 31.9856C18.075 31.9856 21.7823 31.0147 24.1612 30.2274L27.2274 13.9034H27.2295Z" fill="#1E1E1E" fill-opacity="0.4"/>
</svg>
