<svg width="120" height="90" viewBox="0 0 120 90" fill="none" xmlns="http://www.w3.org/2000/svg">
<path d="M35.6 63C55.2613 63 71.2 46.8822 71.2 27C71.2 7.11774 55.2613 -9 35.6 -9C15.9387 -9 0 7.11774 0 27C0 46.8822 15.9387 63 35.6 63Z" fill="#01D859"/>
<path d="M120.15 90C132.438 90 142.4 79.9264 142.4 67.5C142.4 55.0736 132.438 45 120.15 45C107.862 45 97.9 55.0736 97.9 67.5C97.9 79.9264 107.862 90 120.15 90Z" fill="#01D859"/>
<path d="M124.6 18C154.092 18 178 -6.17662 178 -36C178 -65.8234 154.092 -90 124.6 -90C95.108 -90 71.2 -65.8234 71.2 -36C71.2 -6.17662 95.108 18 124.6 18Z" fill="#01D859"/>
</svg>
