<svg width="90" height="90" viewBox="0 0 90 90" fill="none" xmlns="http://www.w3.org/2000/svg">
<path fill-rule="evenodd" clip-rule="evenodd" d="M70 -70C70 -81.0457 78.9543 -90 90 -90C101.046 -90 110 -81.0457 110 -70V-48.7208L125.137 -63.8579C132.948 -71.6684 145.611 -71.6684 153.421 -63.8579C161.232 -56.0474 161.232 -43.3841 153.421 -35.5736L137.848 -20H160C171.046 -20 180 -11.0457 180 0C180 11.0457 171.046 20 160 20H138.284L153.421 35.1371C161.232 42.9476 161.232 55.6109 153.421 63.4214C145.611 71.2319 132.948 71.2319 125.137 63.4214L110 48.2843V70C110 81.0457 101.046 90 90 90C78.9543 90 70 81.0457 70 70V47.8477L54.4264 63.4213C46.6159 71.2318 33.9526 71.2318 26.1421 63.4213C18.3316 55.6108 18.3316 42.9475 26.1421 35.1371L41.2792 20H20C8.95431 20 0 11.0457 0 7.62939e-06C0 -11.0457 8.9543 -20 20 -20H41.7157L26.1421 -35.5736C18.3316 -43.384 18.3316 -56.0473 26.1421 -63.8578C33.9526 -71.6683 46.6159 -71.6683 54.4264 -63.8578L70 -48.2842V-70Z" fill="#E61755"/>
</svg>
