<svg width="107" height="28" viewBox="0 0 107 28" fill="none" xmlns="http://www.w3.org/2000/svg">
<g opacity="0.4">
<path d="M45.8663 0.671541C45.8676 3.77808 45.8676 6.88488 45.8705 9.99168C45.8721 11.1827 45.8792 12.373 45.8837 13.564C45.8837 13.6376 45.8837 13.7119 45.8837 13.8573C46.0404 13.6467 46.1552 13.491 46.2718 13.3361C47.6198 11.5511 48.9634 9.76245 50.3196 7.98297C50.9049 7.21468 51.7016 6.73915 52.6555 6.58869C53.1531 6.51018 53.6738 6.56874 54.1837 6.56874C55.6218 6.56874 57.0605 6.57504 58.4986 6.57084C58.9668 6.56926 59.435 6.54012 59.9029 6.53014C59.964 6.52856 60.026 6.56427 60.0872 6.58292C60.0636 6.63491 60.0499 6.69504 60.0145 6.73784C57.615 9.67816 55.2156 12.6185 52.8091 15.5538C52.686 15.7038 52.6671 15.776 52.7873 15.9545C54.6734 18.7512 56.5422 21.5589 58.4201 24.3606C59.1396 25.4346 59.8735 26.4985 60.5984 27.5688C60.6462 27.6397 60.6748 27.7232 60.7289 27.8353C60.4645 27.8353 60.2492 27.8353 60.0339 27.8353C58.0312 27.8374 56.028 27.8303 54.0254 27.8437C52.6765 27.8532 51.6343 27.2747 50.9243 26.1887C49.4647 23.9552 48.057 21.6889 46.6275 19.4368C46.5086 19.2499 46.3841 19.0663 46.2615 18.8812C46.183 18.762 46.1147 18.777 46.0325 18.8849C45.9217 19.0298 45.8821 19.1863 45.8821 19.3675C45.8866 21.0012 45.8734 22.635 45.8887 24.2687C45.8994 25.4217 45.4365 26.3423 44.5579 27.0712C43.9732 27.5559 43.2991 27.8487 42.5256 27.8731C42.0511 27.8881 41.5758 27.8902 41.1011 27.8915C40.2291 27.8944 39.3571 27.8923 38.4446 27.8923C38.4302 27.3519 38.4021 26.7934 38.4021 26.2352C38.3992 22.2579 38.4094 18.2807 38.4016 14.3029C38.395 10.9763 38.3855 7.64976 38.3454 4.32371C38.3251 2.68419 39.4219 1.29332 40.8299 0.803618C40.9501 0.761344 41.0783 0.741387 41.1998 0.702788C41.2222 0.695699 41.23 0.647121 41.2453 0.617188C42.7769 0.617188 44.3079 0.617188 45.8396 0.617188C45.849 0.635043 45.859 0.652896 45.8684 0.670752L45.8663 0.671541Z" fill="#1E1E1E"/>
<path d="M7.99484 0.66805V13.799C8.0186 13.806 8.04236 13.8126 8.06684 13.8197C8.12518 13.7454 8.18423 13.6727 8.24111 13.5976C9.64823 11.7333 11.0546 9.86767 12.4639 8.0039C12.9896 7.3086 13.6917 6.86879 14.5394 6.65794C14.7511 6.60516 14.975 6.57444 15.1932 6.57365C16.948 6.56814 18.7039 6.57523 20.4587 6.57102C20.9822 6.56945 21.5058 6.5424 22.0294 6.52744C22.1042 6.52534 22.1791 6.52744 22.3067 6.52744C22.2381 6.62958 22.2001 6.69811 22.151 6.75798C19.7681 9.68255 17.386 12.6074 14.9973 15.527C14.8613 15.6934 14.839 15.7982 14.9693 15.9912C17.5753 19.8519 20.1722 23.7191 22.7688 27.5855C22.8129 27.6512 22.8431 27.7255 22.9006 27.8368C22.7646 27.8368 22.6746 27.8368 22.5853 27.8368C20.4508 27.8381 18.3163 27.8355 16.1818 27.8431C14.7862 27.8481 13.7421 27.2255 13.0126 26.0904C11.5364 23.7947 10.0854 21.4835 8.6235 19.1791C8.57453 19.1022 8.52774 19.0229 8.47443 18.9478C8.32897 18.7435 8.21304 18.7493 8.13237 18.9901C8.07836 19.1521 8.0755 19.3348 8.07477 19.5092C8.07188 21.097 8.08269 22.6843 8.07477 24.2723C8.06613 25.9003 6.98809 27.262 5.56729 27.706C5.00562 27.8817 4.4331 27.9347 3.84044 27.9045C3.25571 27.8746 2.66664 27.9145 2.07973 27.9195C1.59365 27.9232 1.10686 27.9203 0.591975 27.9203C0.591975 27.8318 0.591975 27.7512 0.591975 27.6703C0.591975 24.7009 0.598461 21.7311 0.590531 18.7614C0.57756 14.1311 0.555241 9.50059 0.535075 4.87006C0.534366 4.66577 0.504117 4.46175 0.50052 4.25747C0.473868 2.79098 1.47484 1.40642 2.78906 0.89308C2.9727 0.82166 3.16496 0.772296 3.35076 0.705864C3.38101 0.695099 3.39828 0.648098 3.42134 0.618164C4.93719 0.618164 6.45304 0.618164 7.96963 0.618164C7.97827 0.634444 7.98691 0.651508 7.99484 0.66805Z" fill="#1E1E1E"/>
<path d="M45.8664 0.671728C45.857 0.653873 45.847 0.636019 45.8375 0.618164C45.8528 0.618164 45.8685 0.618164 45.8837 0.618164C45.878 0.636019 45.8727 0.653873 45.8664 0.671728Z" fill="#1E1E1E"/>
<path d="M7.99529 0.668991C7.98721 0.652137 7.97841 0.634751 7.9696 0.618164C7.98501 0.618164 8.00128 0.618164 8.01669 0.618164C8.00936 0.634751 8.00262 0.652137 7.99529 0.668991Z" fill="#1E1E1E"/>
<path d="M72.7118 5.31086C73.2879 5.3345 73.8682 5.32373 74.4393 5.39016C75.1947 5.47786 75.9465 5.60784 76.6932 5.75147C78.0024 6.00276 79.2344 6.4641 80.3609 7.17384C82.0309 8.22704 83.1319 9.73134 83.8419 11.5329C84.1601 12.3398 84.3576 13.1766 84.5059 14.0321C84.7246 15.2972 84.7147 16.5696 84.6671 17.8384C84.6267 18.9023 84.4187 19.9492 84.0976 20.9751C83.4343 23.0917 82.2727 24.8402 80.3638 26.057C79.4022 26.6696 78.3488 27.0766 77.2499 27.3644C76.7011 27.5077 76.1374 27.6065 75.5741 27.6863C74.9642 27.7727 74.3492 27.8328 73.7343 27.8706C73.1135 27.9092 72.4878 27.9454 71.8676 27.9126C70.7819 27.8556 69.7074 27.6986 68.6487 27.4316C67.3035 27.0923 66.0347 26.5874 64.9062 25.7821C63.6101 24.8568 62.7006 23.6221 62.0394 22.1961C61.665 21.3894 61.3848 20.5497 61.2107 19.6822C61.1046 19.1544 61.0479 18.6124 61.0235 18.0742C60.9823 17.1867 60.9405 16.2947 60.9809 15.4088C61.0211 14.5168 61.1802 13.6351 61.41 12.7654C61.86 11.0639 62.663 9.56014 63.9003 8.29058C64.7226 7.44666 65.7257 6.8682 66.8067 6.41395C67.8652 5.96993 68.9685 5.67139 70.107 5.52355C70.9696 5.41222 71.8395 5.35157 72.7065 5.26807C72.7089 5.28225 72.7118 5.2959 72.7139 5.31008L72.7118 5.31086ZM72.8089 23.0636C73.3102 23.1088 73.8393 22.9767 74.3592 22.7974C75.0737 22.5511 75.6122 22.0905 76.0121 21.4635C76.756 20.2961 76.9495 18.9824 77.0023 17.6464C77.0453 16.5426 77.0375 15.4358 76.8453 14.3369C76.7192 13.6164 76.5572 12.9109 76.2358 12.2492C75.8104 11.3722 75.2034 10.6724 74.2326 10.3683C73.526 10.1462 72.8016 10.0848 72.0614 10.2013C71.3585 10.3119 70.7464 10.5855 70.2365 11.0839C69.5396 11.765 69.1983 12.626 68.9541 13.5337C68.7689 14.2227 68.6883 14.9275 68.6594 15.6414C68.6185 16.6675 68.6321 17.6879 68.7598 18.7088C68.849 19.423 69.0499 20.1013 69.3177 20.7661C69.8975 22.204 71.1489 23.1009 72.8089 23.0636Z" fill="#1E1E1E"/>
<path d="M106.143 13.0121C105.76 13.0672 105.468 13.0058 105.168 12.8094C104.116 12.1217 102.968 11.6149 101.764 11.2578C101.038 11.0422 100.276 10.9422 99.5306 10.7873C98.6512 10.6053 97.7606 10.6345 96.8725 10.661C96.3907 10.6752 95.9199 10.8043 95.5087 11.0643C95.0873 11.33 94.8612 11.8604 95.3257 12.399C95.541 12.6481 95.8558 12.8501 96.1667 12.9737C96.7018 13.1864 97.2627 13.345 97.8238 13.4834C98.662 13.6914 99.5161 13.8413 100.353 14.0548C101.647 14.3854 102.888 14.8493 103.979 15.6371C104.983 16.361 105.739 17.2779 106.157 18.4432C106.435 19.2178 106.504 20.0218 106.5 20.8416C106.495 21.8275 106.248 22.7429 105.78 23.602C105.029 24.9771 103.881 25.9489 102.507 26.6807C101.605 27.1613 100.639 27.4813 99.6372 27.6675C99.0041 27.7854 98.3532 27.8203 97.7086 27.8705C97.2491 27.9062 96.7853 27.9345 96.3266 27.9141C95.4964 27.8755 94.6645 27.829 93.8408 27.7276C93.0618 27.6313 92.2874 27.4827 91.5199 27.317C89.9731 26.983 88.9866 26.0267 88.5026 24.5565C88.4262 24.3246 88.401 24.0676 88.3989 23.821C88.3882 22.708 88.3945 21.5941 88.3945 20.4666C88.7122 20.4409 88.9966 20.4545 89.2946 20.5924C90.2475 21.0306 91.2017 21.4741 92.1837 21.8404C92.9097 22.1111 93.6715 22.3117 94.435 22.453C95.0592 22.5688 95.7046 22.6331 96.3497 22.5194C96.8027 22.4396 97.2685 22.4239 97.7172 22.3275C98.1544 22.2332 98.5864 22.1012 98.9529 21.8205C99.3922 21.4849 99.4484 20.8644 99.0695 20.4595C98.7707 20.1402 98.3826 19.9669 97.9735 19.8519C96.8581 19.5405 95.744 19.2244 94.6186 18.9521C93.4548 18.6709 92.3163 18.3266 91.2497 17.7833C90.3488 17.3241 89.5375 16.7414 88.928 15.9275C88.3651 15.1757 88.0164 14.3397 87.9213 13.3957C87.8286 12.4688 87.8732 11.5571 88.1742 10.6767C88.8382 8.73366 90.1892 7.37772 91.9923 6.42536C93.2251 5.77469 94.5466 5.39133 95.9183 5.1537C97.0238 4.96228 98.14 4.98355 99.2496 5.02714C100.647 5.08281 102.026 5.32359 103.367 5.71351C104.696 6.09898 105.584 6.9702 105.93 8.3096C106.042 8.74233 106.068 9.20289 106.082 9.65189C106.102 10.3903 106.072 11.1307 106.079 11.8699C106.082 12.2467 106.12 12.6237 106.143 13.0121Z" fill="#1E1E1E"/>
<path d="M25.7813 27.9085C25.7813 27.784 25.7813 27.6719 25.7813 27.5592C25.7813 23.5749 25.785 19.5901 25.7768 15.6057C25.7734 13.9055 25.7553 12.2048 25.7259 10.5054C25.7049 9.29944 26.1024 8.27618 27.0306 7.48136C27.6955 6.91157 28.4716 6.60541 29.3652 6.6104C30.2698 6.61617 31.1749 6.61749 32.0794 6.6104C32.4547 6.60751 32.8291 6.57757 33.2432 6.55762C33.2432 7.03656 33.2432 7.48215 33.2432 7.92853C33.249 13.4085 33.2453 18.8895 33.2676 24.3697C33.275 26.1505 31.7633 27.5613 30.4793 27.7819C30.1718 27.8347 29.8615 27.8969 29.5519 27.9011C28.3464 27.919 27.1401 27.9156 25.9338 27.9198C25.8892 27.9198 25.8446 27.9135 25.7813 27.9085Z" fill="#1E1E1E"/>
</g>
</svg>
