<svg width="20" height="21" viewBox="0 0 20 21" fill="none" xmlns="http://www.w3.org/2000/svg">
<path d="M16.875 3.39062L16.4453 3.82031C14.2188 6.04688 11.25 7.29688 8.125 7.375V12.375V12.4141C11.25 12.4531 14.2188 13.7422 16.4453 15.9688L16.875 16.3984V3.39062ZM6.25 5.5H7.8125C10.5469 5.5 13.1641 4.44531 15.1172 2.49219L16.6016 1.00781C17.3828 0.226562 18.75 0.773438 18.75 1.90625V7.53125C19.4531 7.88281 20 8.82031 20 9.875C20 10.9688 19.4531 11.9062 18.75 12.2578V17.8828C18.75 19.0156 17.3828 19.5625 16.6016 18.7812L15.1172 17.2969C13.2422 15.4219 10.7422 14.3281 8.125 14.2891V18.3125C8.125 19.5234 7.10938 20.5 5.9375 20.5H4.6875C3.47656 20.5 2.5 19.5234 2.5 18.3125V14.25C1.09375 14.25 0 13.1562 0 11.75V8C0 6.63281 1.09375 5.5 2.5 5.5H6.25ZM4.375 14.25V18.3125C4.375 18.5078 4.49219 18.625 4.6875 18.625H5.9375C6.09375 18.625 6.25 18.5078 6.25 18.3125V14.25H4.375ZM2.5 7.375C2.14844 7.375 1.875 7.6875 1.875 8V11.75C1.875 12.1016 2.14844 12.375 2.5 12.375H4.375H6.25V7.375H2.5Z" fill="#e61755"></path>
</svg>