<svg width="25" height="21" viewBox="0 0 25 21" fill="none" xmlns="http://www.w3.org/2000/svg">
<path d="M5 2.375C4.64844 2.375 4.375 2.6875 4.375 3V13H13.75V15.5H1.875C0.820312 15.5 0 14.6797 0 13.625C0 13.3125 0.273438 13 0.625 13H2.5V3C2.5 1.63281 3.59375 0.5 5 0.5H17.5C18.8672 0.5 20 1.63281 20 3V4.25H18.125V3C18.125 2.6875 17.8125 2.375 17.5 2.375H5ZM15 7.375C15 6.35938 15.8203 5.5 16.875 5.5H23.125C24.1406 5.5 25 6.35938 25 7.375V18.625C25 19.6797 24.1406 20.5 23.125 20.5H16.875C15.8203 20.5 15 19.6797 15 18.625V7.375ZM16.875 7.375V18.625H23.125V7.375H16.875Z" fill="#02caf6"></path>
</svg>