<svg width="109" height="40" viewBox="0 0 109 40" fill="none" xmlns="http://www.w3.org/2000/svg">
<g opacity="0.4">
<path fill-rule="evenodd" clip-rule="evenodd" d="M105.828 4.76899H105.32V3.54043C105.304 3.3498 105.218 2.81695 104.732 2.73986H103.288V2.22895H104.682L104.682 2.22784C105.212 2.17982 105.304 1.6238 105.32 1.42502V0.19873H105.828V1.39574L105.829 1.39809C105.839 1.56784 105.915 2.17814 106.469 2.22839L106.469 2.22895H107.859V2.73986H106.419C105.909 2.82062 105.838 3.3962 105.829 3.56348L105.828 3.56507V4.76899Z" fill="#1E1E1E"/>
<path fill-rule="evenodd" clip-rule="evenodd" d="M99.9805 7.06796H100.513V5.76708L100.515 5.7647C100.525 5.58541 100.602 4.94006 101.17 4.8501H102.734V4.31462H101.224L101.224 4.31296C100.604 4.25656 100.525 3.57144 100.515 3.38997L100.513 3.3876V2.09399H99.9805V3.42433C99.9624 3.64503 99.859 4.26 99.2736 4.31351L99.2737 4.31462H97.7599V4.8501H99.3345C99.8678 4.93915 99.9634 5.52081 99.9805 5.73238V7.06796Z" fill="#1E1E1E"/>
<path fill-rule="evenodd" clip-rule="evenodd" d="M105.651 11.8038H106.215V10.3788L106.216 10.3772C106.226 10.1832 106.309 9.44321 106.959 9.34476H108.676V8.77802H107.015L107.015 8.77578C106.312 8.71268 106.226 7.93096 106.216 7.73553L106.215 7.73474V6.31616H105.651V7.77183C105.632 8.01398 105.519 8.7154 104.855 8.77578L104.855 8.77802H103.189V9.34476H104.914C105.517 9.43819 105.63 10.0855 105.651 10.3293V11.8038Z" fill="#1E1E1E"/>
<path d="M101.436 16.8914C101.638 17.0075 101.797 17.1666 101.914 17.3693C102.029 17.572 102.087 17.797 102.087 18.0438C102.087 18.2906 102.028 18.5168 101.91 18.7217C101.791 18.9272 101.63 19.0885 101.426 19.2069C101.222 19.3253 100.997 19.3845 100.75 19.3845C100.503 19.3845 100.278 19.3253 100.075 19.2069C99.8728 19.0885 99.7131 18.9277 99.5958 18.7239C99.4785 18.5201 99.4199 18.2957 99.4199 18.0517C99.4199 17.8076 99.4785 17.5832 99.5958 17.3794C99.7131 17.1756 99.8733 17.0142 100.077 16.8958C100.281 16.7774 100.508 16.7183 100.757 16.7183C101.006 16.7183 101.232 16.7763 101.435 16.8919M101.298 18.9936C101.463 18.8965 101.593 18.7647 101.687 18.5972C101.782 18.4297 101.829 18.2454 101.829 18.0438C101.829 17.8423 101.783 17.6563 101.691 17.4922C101.599 17.3286 101.471 17.1996 101.308 17.1052C101.144 17.0108 100.96 16.9634 100.756 16.9634C100.552 16.9634 100.369 17.0114 100.204 17.1069C100.041 17.2029 99.9124 17.3336 99.8192 17.5C99.7259 17.6658 99.6796 17.8501 99.6796 18.0517C99.6796 18.2532 99.7265 18.4369 99.8192 18.6028C99.9124 18.7692 100.04 18.8998 100.202 18.9959C100.365 19.0913 100.547 19.1394 100.748 19.1394C100.95 19.1394 101.133 19.0908 101.298 18.9936M101.381 18.1136C101.335 18.1907 101.266 18.2499 101.175 18.2929L101.496 18.7837H101.103L100.827 18.361H100.566V18.7837H100.174V17.3185H100.812C101.011 17.3185 101.167 17.3654 101.28 17.4598C101.394 17.5541 101.451 17.6809 101.451 17.8395C101.451 17.945 101.427 18.0366 101.381 18.1131M100.786 18.0656C100.874 18.0656 100.943 18.0461 100.992 18.007C101.041 17.9679 101.066 17.9121 101.066 17.8389C101.066 17.7658 101.041 17.7094 100.992 17.6692C100.943 17.629 100.874 17.6089 100.786 17.6089H100.563V18.0656H100.786Z" fill="#1E1E1E"/>
<path d="M58.4411 9.06787H63.2833L55.7514 29.5589H50.7657L43.2339 9.06787H48.0761L53.241 24.0713L58.4411 9.06787Z" fill="#1E1E1E"/>
<path d="M79.7943 22.9949L83.3813 26.086C81.0501 29.1074 76.9969 29.9064 74.5936 29.9064C68.5683 29.9064 63.7261 25.1831 63.7261 19.2789C63.7261 13.3747 68.5683 8.7207 74.5936 8.7207C79.9735 8.7207 83.5605 12.5411 84.0267 15.8751L70.5762 24.2105C71.6879 25.0787 73.0872 25.6343 74.5573 25.7041C76.673 25.8085 78.9327 24.766 79.7937 22.9954M68.0657 19.1751C68.0657 19.8351 68.1735 20.4945 68.3885 21.0853L78.8613 14.6255C77.893 13.4797 76.3866 12.8549 74.6288 12.8549C71.0424 12.8549 68.0652 15.5635 68.0652 19.1756" fill="#1E1E1E"/>
<path d="M101.512 9.06787L97.316 18.8963L101.8 29.5589H96.9575L93.5503 21.5709L90.0711 29.5589H85.2646L89.7126 18.8963L85.5159 9.06787H90.2146L93.5503 16.5696L96.814 9.06787H101.512Z" fill="#1E1E1E"/>
<path d="M32.2111 30.0448C38.3085 30.0448 43.1858 25.3221 43.1858 19.3827C43.1858 13.4433 38.3085 8.85962 32.2111 8.85962C26.1137 8.85962 21.3435 13.5483 21.3435 19.3827C21.3435 25.2171 26.1857 30.0448 32.2111 30.0448ZM32.2111 13.2009C35.7617 13.2009 38.7027 15.9794 38.7027 19.3832C38.7027 22.7871 35.7612 25.704 32.2111 25.704C28.6609 25.704 25.8267 22.8211 25.8267 19.3832C25.8267 15.9453 28.6961 13.2009 32.2111 13.2009Z" fill="#1E1E1E"/>
<path d="M25.1014 33.7608C21.5206 32.0706 18.6812 28.7947 18.6812 23.307V17.9589C18.6812 12.784 15.0591 8.7207 9.6429 8.7207C7.64281 8.7207 5.87669 9.29805 4.45228 10.2942V8.09253H0.705619V17.1906C0.687193 17.4441 0.676025 17.6999 0.676025 17.9589V29.5585H5.15974V17.9589C5.15974 14.9722 6.84546 13.062 9.6429 13.062C12.4403 13.062 14.1975 14.9722 14.1975 17.9589V24.106C14.1975 30.7395 18.0302 35.1612 22.9801 37.3143C29.4003 40.0581 36.4553 40.3557 42.8654 36.4254L40.9937 32.916C37.6251 35.3957 30.7471 36.4254 25.1014 33.7603" fill="#1E1E1E"/>
</g>
</svg>
