<svg width="127" height="30" viewBox="0 0 127 30" fill="none" xmlns="http://www.w3.org/2000/svg">
<path opacity="0.4" fill-rule="evenodd" clip-rule="evenodd" d="M13.7171 0.326053C13.0128 0.401837 12.4429 0.513824 11.4785 0.766335C10.6244 0.990005 10.5378 1.02099 9.49473 1.47017C4.98129 3.41386 1.81672 7.59671 1.05218 12.6291C0.93162 13.4229 0.929991 16.1535 1.04957 17.0129C1.18049 17.9536 1.61989 19.6553 1.9312 20.4269C2.75711 22.474 3.648 23.8639 5.10818 25.3826C7.15786 27.5144 9.53008 28.8177 12.5655 29.4796C13.4289 29.6676 13.6852 29.6888 15.1452 29.6937C16.9753 29.6995 17.6979 29.6139 19.047 29.2316C21.6371 28.498 23.6371 27.3033 25.4958 25.3789C27.8219 22.9707 29.1919 19.9866 29.5859 16.4699C29.8247 14.3399 29.6104 12.2189 28.947 10.1461C28.49 8.71813 27.6418 7.07788 26.7801 5.95646C24.5065 2.99751 21.41 1.11273 17.7199 0.442336C16.969 0.305802 14.557 0.235848 13.7171 0.326053ZM41.121 0.299971C40.3275 0.396926 39.7565 0.527015 38.9209 0.80039C36.6523 1.5432 34.9092 3.08618 34.0005 5.15628C33.5819 6.10926 33.4528 6.7726 33.4522 7.97379C33.4516 9.22407 33.5782 9.78677 34.1071 10.8784C34.4571 11.6016 34.5828 11.7728 35.282 12.4766C36.5389 13.7423 37.6336 14.3817 41.4299 16.0664C42.3002 16.4524 43.3248 16.9323 43.7071 17.1323C45.6847 18.1675 46.7849 19.2321 47.2723 20.5818C47.46 21.1022 47.4819 21.2667 47.4785 22.1337C47.4739 23.2711 47.3451 23.7651 46.8294 24.6229C46.2504 25.5863 45.1745 26.3721 43.8614 26.7906C43.1699 27.0112 41.5122 27.087 40.4818 26.9456C39.6136 26.8262 38.2055 26.3739 37.3379 25.9355C36.57 25.5474 35.4971 24.8288 34.9584 24.3419C34.7476 24.1517 34.5457 23.9976 34.5097 23.9995C34.4071 24.0053 32.9799 25.9119 32.9534 26.0782C32.9073 26.3703 34.7273 27.7239 36.0948 28.4143C38.5881 29.6732 41.908 30.0702 44.4791 29.4167C47.9084 28.5447 50.1746 25.8563 50.3562 22.4442C50.4069 21.49 50.2539 20.3155 49.9724 19.5025C49.3408 17.6766 47.7391 16.1081 45.2185 14.8465C44.2744 14.374 43.9634 14.2323 42.0473 13.4017C39.3902 12.2502 38.4391 11.6961 37.5202 10.764C36.3309 9.55789 35.9759 8.01337 36.5322 6.46332C37.0816 4.93292 38.2977 3.83574 40.1173 3.22977C40.7455 3.02052 40.8364 3.01132 42.2403 3.01285C43.4941 3.01439 43.7913 3.03832 44.2882 3.17823C45.6207 3.55377 46.9591 4.20944 47.9395 4.96759C48.2259 5.1888 48.4164 5.28852 48.4634 5.24127C48.504 5.20046 48.8168 4.68133 49.1589 4.08733L49.7803 3.00794L49.484 2.74531C48.3494 1.73987 46.4757 0.868197 44.621 0.483141C43.8826 0.329733 41.7781 0.219585 41.121 0.299971ZM66.2479 0.330346C62.9903 0.684107 59.9869 2.1418 57.7506 4.45459C55.0296 7.26872 53.6808 10.7606 53.709 14.918C53.7404 19.5488 55.5557 23.6746 58.7598 26.3988C61.2088 28.4806 64.1246 29.5931 67.4443 29.7118C69.4218 29.7827 71.1219 29.5366 73.0368 28.9021C74.0049 28.5815 75.7212 27.7476 76.5144 27.2128C77.1146 26.8081 78.3476 25.8217 78.6198 25.5287L78.7953 25.3397L78.2566 24.6484C77.9603 24.2683 77.598 23.8175 77.4499 23.6466L77.1822 23.3365L76.8482 23.6522C75.0989 25.3071 72.6219 26.5215 70.1072 26.9566C69.3075 27.095 68.9756 27.1112 67.6757 27.0744C65.6969 27.0186 64.5859 26.7556 63.0422 25.9778C62.1154 25.5106 61.8117 25.3136 60.9832 24.6413C58.7208 22.8054 57.0871 19.7614 56.7035 16.6672C56.5683 15.574 56.5864 13.5352 56.7395 12.6291C57.4946 8.16187 60.2853 4.76632 64.2983 3.43166C64.691 3.30065 65.4292 3.12177 65.9384 3.03372C66.7402 2.89504 67.0727 2.87908 68.4089 2.91529C69.6867 2.94996 70.093 2.99046 70.7633 3.15061C72.7504 3.62465 74.5559 4.45459 75.9517 5.53581L76.5476 5.99696L77.0491 5.31705C77.3251 4.94335 77.6641 4.48435 77.8027 4.29719L78.0541 3.95693L77.6662 3.59887C76.81 2.8082 75.1963 1.86106 73.7744 1.31462C72.9569 1.00044 71.6142 0.638697 70.5666 0.450005C69.7519 0.303653 67.1566 0.231551 66.2479 0.330346ZM90.623 0.816041C90.5554 0.903177 90.2721 1.66347 89.0554 5.02527C88.5265 6.48664 86.887 10.9916 86.4718 12.1247C86.2763 12.658 86.0624 13.2495 85.997 13.4388C85.9312 13.6281 85.4623 14.9198 84.9543 16.3097C84.4469 17.6993 83.8058 19.4647 83.5305 20.2327C83.0845 21.4731 81.8789 24.7788 80.6856 28.0305C80.4588 28.6493 80.2895 29.1816 80.3089 29.2138C80.3282 29.2458 80.9637 29.2721 81.7197 29.2721C82.732 29.2721 83.1171 29.2461 83.1761 29.1743C83.2204 29.1206 83.3783 28.7275 83.5265 28.3014C83.9423 27.1042 84.6731 25.0353 85.2382 23.4527C85.52 22.6633 85.8931 21.6069 86.0658 21.1053L86.3808 20.1931L92.0905 20.213L97.8004 20.2327L98.1065 21.0863C98.2749 21.5557 98.5509 22.324 98.7199 22.7934C98.8886 23.2628 99.0921 23.8387 99.1714 24.0734C99.2507 24.3081 99.4058 24.7447 99.5168 25.0433C99.6274 25.3421 99.999 26.3721 100.343 27.3321C100.687 28.2925 101.002 29.1218 101.044 29.1749C101.099 29.2461 101.485 29.2721 102.487 29.2721C103.239 29.2721 103.873 29.2525 103.897 29.2286C103.921 29.2046 103.844 28.9165 103.726 28.5886C103.349 27.5377 102.571 25.3973 102.014 23.8795C101.717 23.0686 101.355 22.0736 101.209 21.6683C101.063 21.2627 100.877 20.7564 100.796 20.5432C100.715 20.33 100.416 19.5092 100.132 18.7198C99.8475 17.9303 99.4427 16.8132 99.2316 16.237C99.0211 15.6608 98.7165 14.8229 98.5555 14.3749C97.8877 12.5217 96.3702 8.3524 95.9298 7.15888C95.6692 6.45504 95.2014 5.16303 94.8895 4.2883C94.0373 1.89788 93.6728 0.923427 93.5911 0.816041C93.5364 0.744859 93.144 0.719083 92.1074 0.719083C91.0717 0.719083 90.678 0.744859 90.623 0.816041ZM107.636 0.770937C107.608 0.799165 107.585 7.22454 107.585 15.049V29.2755L108.955 29.2544L110.325 29.2332L110.345 23.2386L110.365 17.244L113.929 17.2642L117.492 17.2845L117.658 17.5947C117.748 17.7656 118.043 18.324 118.312 18.8364C118.581 19.3481 118.982 20.0989 119.204 20.5045C119.427 20.9098 120.085 22.1494 120.668 23.2588C121.251 24.3683 121.825 25.4507 121.943 25.664C122.061 25.8775 122.304 26.3313 122.485 26.6728C122.838 27.3407 123.047 27.7301 123.558 28.6708L123.884 29.2721H125.422C126.526 29.2721 126.961 29.247 126.961 29.1832C126.961 29.1074 126.555 28.3342 124.906 25.2636C122.992 21.699 121.517 18.9493 121.251 18.4482C120.825 17.6453 120.405 16.9322 120.259 16.7601C120.195 16.6853 120.157 16.6092 120.176 16.5911C120.194 16.573 120.44 16.4733 120.724 16.3699C121.69 16.0173 122.389 15.5552 123.216 14.7222C124.294 13.6383 124.826 12.6871 125.236 11.1147C125.428 10.3774 125.448 10.1709 125.451 8.90467C125.456 7.43471 125.361 6.74467 125.015 5.72727C124.334 3.72896 122.845 2.13045 120.994 1.41311C120.077 1.05781 119.204 0.891824 117.774 0.800699C116.386 0.712335 107.72 0.686869 107.636 0.770937ZM17.7353 3.1092C22.3384 4.23736 25.4835 7.51479 26.5443 12.2876C26.7029 13.0022 26.7235 13.2943 26.7223 14.8404C26.7211 16.7267 26.6667 17.1409 26.221 18.6609C25.2828 21.861 23.0975 24.5192 20.2072 25.9757C18.721 26.7246 17.4781 27.0241 15.6369 27.0772C13.9906 27.1247 13.1371 27.01 11.8067 26.5626C10.7021 26.1914 10.1309 25.9128 9.12408 25.2547C8.15333 24.6205 6.61987 23.0938 5.98874 22.1337C4.53086 19.9161 3.81158 17.4707 3.82046 14.7627C3.83109 11.5138 4.97256 8.58865 7.11699 6.31513C8.65016 4.68961 11.0618 3.40619 13.2539 3.04936C13.5724 2.99751 13.885 2.9429 13.9487 2.92786C14.0124 2.91283 14.7419 2.9113 15.5697 2.92388C16.7754 2.94259 17.2065 2.97941 17.7353 3.1092ZM117.931 3.35987C119.399 3.53997 120.204 3.87747 121.028 4.65832C122.115 5.68892 122.638 7.10948 122.636 9.02126C122.634 11.6943 121.312 13.7024 119.092 14.4074C118.14 14.7097 117.374 14.76 113.703 14.7615L110.364 14.7627V9.02126V3.27948H113.82C115.73 3.27948 117.57 3.31538 117.931 3.35987ZM92.4095 4.67611C92.6615 5.6524 93.1258 7.12912 93.5324 8.24532C93.6962 8.69327 94.0985 9.81071 94.4264 10.7281C94.7546 11.6455 95.1431 12.7279 95.289 13.1335C95.4347 13.5388 95.6698 14.2022 95.8115 14.6075C96.0303 15.2362 96.3019 15.994 96.8198 17.4201L96.9255 17.7113H92.0677H87.2097L87.4469 17.0709C87.7229 16.3263 88.1012 15.2923 88.5182 14.1421C89.1249 12.4696 90.2168 9.48456 90.6605 8.28398C91.0739 7.16839 91.6857 5.21519 91.9138 4.2883C92.0963 3.54396 92.1237 3.56512 92.4095 4.67611Z" fill="#1E1E1E"/>
</svg>
