<svg width="166" height="38" viewBox="0 0 166 38" fill="none" xmlns="http://www.w3.org/2000/svg">
<g opacity="0.4">
<path d="M144.085 12.4003C143.643 11.1624 142.826 10.0928 141.748 9.33977C140.617 8.62051 139.295 8.26077 137.957 8.30802H137.704C136.382 8.26281 135.078 8.62282 133.967 9.33977C132.898 10.094 132.093 11.1645 131.665 12.4003C131.635 12.4698 131.615 12.5392 131.59 12.6086C131.565 12.5392 131.546 12.4698 131.516 12.4003C131.087 11.1698 130.291 10.101 129.234 9.33977C128.117 8.61709 126.806 8.25677 125.477 8.30802H125.224C123.902 8.2641 122.599 8.62398 121.487 9.33977C120.423 10.0941 119.624 11.1653 119.205 12.4003C119.021 12.9013 118.875 13.4153 118.769 13.938V13.8537C118.747 13.9211 118.719 13.9859 118.684 14.0471V8.44195H117.394C116.542 8.44066 115.723 8.77713 115.119 9.37783C114.514 9.97848 114.172 10.7943 114.168 11.6463V28.6007H114.298C114.255 28.6236 114.212 28.6435 114.168 28.6603V28.7099H116.748C117.42 28.7084 118.074 28.4973 118.619 28.106C119.165 27.7146 119.574 27.1627 119.79 26.5273C119.855 26.5273 119.969 17.2664 119.969 17.2664C119.921 16.2726 120.245 15.2967 120.877 14.5283C121.19 14.1843 121.573 13.9136 122.002 13.7353C122.431 13.5569 122.894 13.4754 123.358 13.4966C123.805 13.4765 124.251 13.5575 124.663 13.7336C125.074 13.9097 125.44 14.1762 125.735 14.5134C126.328 15.2637 126.628 16.2025 126.584 17.1573V26.2346V28.7148H129.159C129.84 28.716 130.503 28.5008 131.053 28.1004C131.603 27.7001 132.012 27.1354 132.221 26.4876C132.285 26.4876 132.414 17.2614 132.414 17.2614C132.366 16.2677 132.69 15.2918 133.322 14.5233C133.632 14.1767 134.016 13.9039 134.445 13.7254C134.875 13.5468 135.339 13.4669 135.804 13.4916C136.256 13.4654 136.711 13.5435 137.129 13.7198C137.548 13.896 137.921 14.1658 138.22 14.5084C138.812 15.2588 139.114 16.1976 139.068 17.1523V20.0789C139.061 20.2045 139.061 20.3303 139.068 20.4558V28.7099H141.639C142.317 28.7094 142.979 28.4948 143.529 28.0967C144.078 27.6986 144.488 27.1372 144.7 26.4926C144.765 26.4926 144.894 17.4747 144.894 17.4747C144.94 15.7478 144.666 14.0273 144.085 12.4003Z" fill="#1E1E1E"/>
<path d="M104.844 15.8433C105.085 15.3266 105.485 14.9006 105.986 14.628C106.347 14.3824 106.743 14.1934 107.161 14.0675C108.765 13.564 110.448 13.3654 112.124 13.4821V11.9693C112.126 11.2319 111.877 10.5158 111.417 9.93953C110.956 9.36322 110.313 8.96107 109.593 8.7996H109.534H109.444L109.404 8.82438C108.493 8.82172 107.592 9.02404 106.77 9.41646C105.947 9.80884 105.223 10.3812 104.651 11.0913C103.854 12.1569 103.327 13.3991 103.112 14.7123V8.44248H101.54C101.115 8.43915 100.695 8.51948 100.302 8.67882C99.9094 8.83819 99.5515 9.07337 99.2499 9.37099C98.9484 9.6686 98.7073 10.0228 98.543 10.4134C98.3778 10.8039 98.2921 11.223 98.2894 11.6468V20.134L98.3294 28.894L98.3592 28.9286H100.929C101.353 28.9293 101.771 28.8465 102.162 28.6849C102.553 28.5234 102.909 28.2863 103.208 27.9872C103.507 27.6881 103.744 27.333 103.906 26.9421C104.067 26.5513 104.15 26.1323 104.15 25.7094V18.1796C104.191 17.3578 104.426 16.5574 104.834 15.8433H104.844Z" fill="#1E1E1E"/>
<path d="M29.4298 13.705C30.2256 13.194 31.1592 12.9395 32.1044 12.9758C32.9986 12.9416 33.8834 13.1692 34.65 13.6306C35.3203 14.0822 35.8391 14.7252 36.1386 15.4758C36.2964 15.8409 36.421 16.2194 36.5108 16.6068H27.5789C27.6397 16.3051 27.7227 16.0084 27.8271 15.7189C28.1472 14.9022 28.7057 14.2005 29.4298 13.705ZM39.4385 21.5324C38.7215 21.4832 38.0026 21.595 37.3345 21.8597C36.6249 22.1971 36.3421 22.9411 35.8459 23.4719C35.3718 23.9167 34.8128 24.2611 34.2022 24.4845C33.5917 24.7078 32.9423 24.8054 32.2929 24.7715C31.2991 24.817 30.3142 24.5648 29.4645 24.0473C28.7213 23.542 28.1501 22.8222 27.8271 21.9838C27.612 21.4361 27.4621 20.8651 27.3804 20.2824H41.4878V18.1793C41.4989 16.5698 41.1443 14.9789 40.4507 13.5264C39.7535 12.0758 38.668 10.8465 37.3147 9.97485C35.7488 9.01513 33.935 8.53731 32.0994 8.60081C30.6516 8.57133 29.2149 8.86095 27.8915 9.44903C26.7305 9.97459 25.7003 10.7504 24.8746 11.7209C24.0881 12.6628 23.487 13.745 23.1031 14.9103C22.7102 16.0857 22.5108 17.317 22.5126 18.5562V19.201C22.5121 20.4288 22.7115 21.6485 23.1031 22.8122C23.4879 23.9771 24.0889 25.0591 24.8746 26.0017C25.7145 26.9843 26.7618 27.7685 27.9412 28.2983C29.3133 28.8933 30.7975 29.1859 32.2929 29.1564C33.7146 29.1792 35.1261 28.9126 36.4413 28.3727C37.0073 28.1286 37.5461 27.826 38.0491 27.4699C38.475 27.1876 38.8649 26.8545 39.2102 26.4779C39.378 26.3321 39.5264 26.1654 39.6518 25.9819C41.3141 23.844 41.4679 22.088 41.4729 21.9788V21.5523L39.4385 21.5324Z" fill="#1E1E1E"/>
<path d="M90.6724 21.4335C90.6737 22.2433 90.4739 23.0408 90.092 23.7549C89.7976 24.272 89.3477 24.6833 88.8064 24.9305C88.2518 25.1672 87.6531 25.2854 87.0505 25.2778C86.2033 25.3344 85.3666 25.0685 84.7076 24.5338C84.4394 24.2893 84.2276 23.989 84.0882 23.6538C83.9483 23.3187 83.8839 22.9569 83.8994 22.5942C83.8843 22.2245 83.9496 21.856 84.0904 21.5136C84.2303 21.1712 84.4425 20.8632 84.7134 20.6101C85.3715 20.0753 86.2081 19.8094 87.055 19.866H90.6826L90.6724 21.4335ZM96.2601 16.6071C96.3263 15.0321 95.9501 13.47 95.173 12.0982C94.4363 10.8937 93.3186 9.96873 91.9975 9.46919C88.0279 7.90167 80.6537 8.59615 80.6537 8.59615C80.1577 14.2063 83.0801 13.3878 87.1047 13.3977C88.1563 13.3977 89.3375 13.5515 89.9432 14.251C90.4597 14.8951 90.7181 15.7086 90.6675 16.5327V16.6071H87.0803C85.4981 16.5822 83.9216 16.8082 82.4105 17.2768C81.1791 17.6437 80.0822 18.3627 79.2549 19.3452C78.4742 20.3679 78.0755 21.6313 78.1283 22.9167C78.0946 24.1212 78.4099 25.3098 79.036 26.3392C79.647 27.2896 80.5192 28.0439 81.5472 28.5119C82.7275 29.0396 84.0104 29.2988 85.3036 29.2709C86.5159 29.3081 87.7189 29.0475 88.8064 28.5119C89.7483 28.015 90.5281 27.2594 91.0543 26.3343C91.2532 25.9815 91.4197 25.6112 91.5512 25.2281V28.7996C96.4581 29.2956 96.2796 26.5575 96.205 22.5347C96.2348 22.3264 96.2601 16.6071 96.2601 16.6071Z" fill="#1E1E1E"/>
<path d="M159.452 21.3343C159.451 22.1422 159.252 22.9374 158.872 23.6507C158.576 24.1696 158.125 24.5825 157.582 24.8313C157.027 25.0664 156.429 25.183 155.825 25.1735C154.979 25.2302 154.142 24.9643 153.483 24.4295C153.215 24.1861 153.002 23.8868 152.862 23.5526C152.721 23.2183 152.655 22.8573 152.669 22.495C152.655 22.1253 152.72 21.7568 152.86 21.4144C153.001 21.072 153.213 20.7639 153.483 20.5109C154.142 19.9761 154.979 19.7102 155.825 19.7668H159.452V21.3343ZM165.035 16.5129C165.1 14.9364 164.724 13.3733 163.948 11.9989C163.21 10.7971 162.093 9.87417 160.773 9.3749C156.803 7.80747 149.429 8.5019 149.429 8.5019C148.933 14.1121 151.851 13.2936 155.88 13.3035C156.932 13.3035 158.113 13.4572 158.718 14.1517C159.233 14.7968 159.492 15.6095 159.443 16.4335V16.5078H155.85C154.264 16.4818 152.686 16.7078 151.171 17.1775C149.94 17.5444 148.843 18.2635 148.015 19.246C147.234 20.2683 146.836 21.532 146.889 22.8174C146.855 24.0219 147.17 25.2105 147.797 26.2401C148.407 27.1992 149.283 27.9607 150.318 28.4325C151.498 28.9603 152.781 29.2195 154.074 29.1914C155.285 29.2288 156.486 28.9682 157.572 28.4325C158.514 27.9365 159.294 27.1807 159.82 26.2549C160.017 25.9011 160.183 25.531 160.316 25.1488V28.7153C165.229 29.2113 165.05 26.4732 164.976 22.4504C165.01 22.2271 165.035 16.5129 165.035 16.5129Z" fill="#1E1E1E"/>
<path d="M81.5921 0.887647C81.5921 0.887647 74.332 0.193201 70.4118 1.76066C69.1049 2.26441 68.0027 3.18954 67.2811 4.38965C66.5857 5.62522 66.2215 7.01955 66.2242 8.43724C66.2242 8.47694 66.2242 8.51171 66.2242 8.55132V13.2835C66.2242 13.2835 66.1647 17.4651 66.1647 17.6784V28.8292H68.4174C69.2714 28.8292 70.0907 28.49 70.6946 27.8863C71.2986 27.2826 71.6374 26.4638 71.6374 25.61V14.4591V13.4671H76.0488V11.6813C76.0474 10.8284 75.7082 10.0108 75.1038 9.4082C74.5003 8.80555 73.6819 8.46699 72.8288 8.46699H71.7417C71.7595 7.7695 72.0051 7.09691 72.442 6.55235C73.0371 5.85791 74.2037 5.70413 75.2406 5.69916C79.1999 5.69423 82.0637 6.49777 81.5921 0.887647Z" fill="#1E1E1E"/>
<path d="M14.5632 21.7656C14.1845 22.6155 13.5614 23.3334 12.7731 23.8281C11.9849 24.3227 11.0672 24.5717 10.137 24.5434C9.25895 24.5461 8.39239 24.344 7.60634 23.9531C6.83313 23.566 6.17968 22.9762 5.71572 22.2468C5.21623 21.4285 4.96777 20.4816 5.00117 19.5236V18.4174C4.97119 17.4359 5.21517 16.4655 5.70582 15.6148C6.15952 14.8642 6.80986 14.2519 7.58645 13.844C8.37503 13.4322 9.25229 13.2194 10.142 13.2239C11.0807 13.1984 12.0065 13.4466 12.8066 13.9382C13.5668 14.439 14.1745 15.1391 14.5632 15.962C15.0093 16.9248 15.2299 17.9766 15.2083 19.0375C15.2323 19.9872 15.0101 20.9271 14.5632 21.7656ZM19.5799 14.8807C19.1786 13.7153 18.5494 12.6412 17.7291 11.7209C16.9137 10.8109 15.9186 10.0796 14.8063 9.57311C13.6148 9.0456 12.3233 8.78164 11.0203 8.79932C9.60936 8.79159 8.21849 9.13232 6.9711 9.79141C6.32405 10.134 5.73468 10.5758 5.22449 11.1009V8.43718C-0.352975 7.94115 -0.000663487 10.6148 0.0688064 14.3896V37.2617H1.06123C1.12068 37.2665 1.18042 37.2665 1.23987 37.2617H1.52768C3.45794 37.2617 5.15499 35.6595 5.15499 33.8292L5.12524 32.1526V26.6962C5.67216 27.2554 6.30966 27.7183 7.01085 28.0653C8.24687 28.6676 9.60546 28.9766 10.9805 28.968C12.2878 28.9849 13.5824 28.7121 14.7717 28.1694C15.88 27.6609 16.8742 26.9337 17.6943 26.0315C18.5196 25.1058 19.1552 24.0272 19.565 22.8569C19.9965 21.6266 20.2131 20.3312 20.2052 19.0275V18.7348C20.2172 17.4239 20.0058 16.1206 19.5799 14.8807Z" fill="#1E1E1E"/>
<path d="M49.1643 15.6545C52.1413 15.4213 53.6303 15.9521 54.3448 17.0235C54.3448 15.8628 54.2902 14.6376 54.3151 13.4471H61.7879V11.2497C61.7186 7.35084 56.8258 8.45702 54.3151 8.31318V0.877621C48.0479 0.341905 49.2633 3.75958 49.1643 8.31318H41.9492C41.453 14.4144 44.5642 13.3777 49.1643 13.4471V15.6545Z" fill="#1E1E1E"/>
<path d="M49.1643 22.1724V22.599H49.2136C49.1941 22.4601 49.1643 22.3212 49.1643 22.1724Z" fill="#1E1E1E"/>
<path d="M57.6545 24.3799C56.662 24.3799 55.5754 24.2361 55.0096 23.5912C54.5584 23.0299 54.3209 22.3269 54.34 21.6071C54.4044 18.363 54.2258 16.2202 49.1643 16.6468V21.6071C49.1319 22.995 49.4747 24.366 50.1568 25.5753C50.8505 26.6979 51.898 27.5581 53.1339 28.0208C56.8356 29.4742 63.6836 28.8293 63.6836 28.8293C64.1002 23.6309 61.4011 24.3948 57.6545 24.3799Z" fill="#1E1E1E"/>
</g>
</svg>
