<svg width="101" height="48" viewBox="0 0 101 48" fill="none" xmlns="http://www.w3.org/2000/svg">
<g opacity="0.4">
<path d="M23.9463 22.768C23.9463 17.2289 19.8979 13.2905 14.2856 13.2905C8.67325 13.2905 4.77557 17.4326 4.77557 22.768C4.77557 28.1033 8.72213 32.1965 14.2856 32.1965C19.8491 32.1965 23.9463 28.254 23.9463 22.768ZM28.3979 22.8168C28.3979 30.4493 23.1358 36.0861 15.145 36.0861C10.5915 36.0861 6.74681 33.7931 4.72669 29.9483L4.72669 47.0582H0.323975L0.323975 9.89378H4.0669L4.72669 15.779V15.8768C6.3436 11.9872 10.1883 9.39282 15.3486 9.39282C23.2906 9.39282 28.3979 15.278 28.3979 22.8128" fill="#1E1E1E"/>
<path d="M37.8551 35.5891H33.4523V9.89777H37.8551V35.5891ZM32.8984 3.31202C32.8984 1.76435 34.1121 0.518066 35.6802 0.518066C37.2482 0.518066 38.5108 1.76435 38.5108 3.31202C38.5108 4.85969 37.2482 6.0571 35.6802 6.0571C34.1121 6.0571 32.8984 4.81082 32.8984 3.31202Z" fill="#1E1E1E"/>
<path d="M42.5591 27.9077L46.9089 27.757C47.3121 30.9501 50.1957 32.5955 53.9386 32.5955C57.3801 32.5955 59.6039 31.2474 59.6039 28.8526C59.6039 22.8167 43.8217 25.8102 43.8217 16.6301C43.8217 12.1907 47.9678 9.39673 53.2788 9.39673C58.5897 9.39673 62.7888 12.5409 63.0943 16.9274L58.8463 17.0781C58.492 14.4837 56.366 12.7894 53.2299 12.7894C50.2975 12.7894 48.1185 14.1864 48.1185 16.3816C48.1185 22.218 64.0514 19.0737 64.0514 28.653C64.0514 33.4426 59.9053 36.0859 53.7838 36.0859C47.6624 36.0859 43.0071 33.5404 42.5551 27.9036" fill="#1E1E1E"/>
<path d="M67.5989 22.719C67.5989 15.0865 73.313 9.3479 81.4098 9.3479C84.6966 9.3479 87.5801 10.3946 89.808 12.3903V16.7319C87.7349 14.6874 85.1527 13.2904 81.8171 13.2904C76.3025 13.2904 72.0545 17.3795 72.0545 22.719C72.0545 28.0584 76.3025 32.1964 81.8171 32.1964C85.1568 32.1964 87.7349 30.7506 89.808 28.7549V33.0436C87.5801 35.0881 84.7006 36.086 81.4098 36.086C73.3171 36.086 67.5989 30.3474 67.5989 22.7149" fill="#1E1E1E"/>
<path d="M99.6683 35.5891H95.2656V9.89777H99.6683V35.5891ZM94.7117 3.31202C94.7117 1.76435 95.9254 0.518066 97.4934 0.518066C99.0614 0.518066 100.324 1.76435 100.324 3.31202C100.324 4.85969 99.0614 6.0571 97.4934 6.0571C95.9254 6.0571 94.7117 4.81082 94.7117 3.31202Z" fill="#1E1E1E"/>
</g>
</svg>
