<svg width="151" height="50" viewBox="0 0 151 50" fill="none" xmlns="http://www.w3.org/2000/svg">
<rect width="132" height="30" rx="15" fill="#1E1E1E"/>
<path d="M16.578 16.5H14.632V20H13.092V9.948H16.578C17.3247 9.948 17.9733 10.074 18.524 10.326C19.084 10.5687 19.518 10.9327 19.826 11.418C20.134 11.894 20.288 12.4867 20.288 13.196C20.288 13.896 20.134 14.4933 19.826 14.988C19.518 15.4733 19.084 15.8467 18.524 16.108C17.9733 16.3693 17.3247 16.5 16.578 16.5ZM16.564 11.25H14.632V15.198H16.564C17.2453 15.198 17.7773 15.0207 18.16 14.666C18.552 14.3113 18.748 13.826 18.748 13.21C18.748 12.5847 18.552 12.104 18.16 11.768C17.7773 11.4227 17.2453 11.25 16.564 11.25ZM23.1303 16.206V20H21.7163V12.58H23.0323V14.148C23.2937 13.6347 23.681 13.2287 24.1943 12.93C24.717 12.6313 25.2817 12.482 25.8883 12.482V13.952C25.3563 13.924 24.8803 13.9847 24.4603 14.134C24.0497 14.2833 23.723 14.5307 23.4803 14.876C23.247 15.212 23.1303 15.6553 23.1303 16.206ZM30.088 20.14C29.5653 20.14 29.08 20.0467 28.632 19.86C28.1933 19.664 27.8107 19.3933 27.484 19.048C27.1573 18.6933 26.9007 18.2827 26.714 17.816C26.5367 17.3493 26.448 16.8407 26.448 16.29C26.448 15.7393 26.5367 15.2307 26.714 14.764C26.9007 14.2973 27.1573 13.8913 27.484 13.546C27.8107 13.1913 28.1933 12.9207 28.632 12.734C29.08 12.538 29.5653 12.44 30.088 12.44C30.62 12.44 31.1053 12.538 31.544 12.734C31.992 12.9207 32.3747 13.1913 32.692 13.546C33.0187 13.8913 33.2707 14.2973 33.448 14.764C33.6347 15.2307 33.728 15.7393 33.728 16.29C33.728 16.8407 33.6347 17.3493 33.448 17.816C33.2707 18.2827 33.0187 18.6933 32.692 19.048C32.3747 19.3933 31.992 19.664 31.544 19.86C31.1053 20.0467 30.62 20.14 30.088 20.14ZM30.088 18.894C30.4987 18.894 30.8673 18.7913 31.194 18.586C31.53 18.3713 31.7913 18.068 31.978 17.676C32.174 17.284 32.272 16.822 32.272 16.29C32.272 15.7487 32.174 15.2867 31.978 14.904C31.7913 14.512 31.53 14.2133 31.194 14.008C30.8673 13.8027 30.4987 13.7 30.088 13.7C29.6867 13.7 29.318 13.8027 28.982 14.008C28.6553 14.2133 28.394 14.512 28.198 14.904C28.0113 15.2867 27.918 15.7487 27.918 16.29C27.918 16.822 28.0113 17.284 28.198 17.676C28.394 18.068 28.6553 18.3713 28.982 18.586C29.318 18.7913 29.6867 18.894 30.088 18.894ZM36.5695 12.58V20.364C36.5695 20.924 36.4715 21.386 36.2755 21.75C36.0888 22.1233 35.8228 22.3987 35.4775 22.576C35.1321 22.7533 34.7355 22.842 34.2875 22.842C34.1381 22.842 33.9795 22.8327 33.8115 22.814C33.6435 22.8047 33.4755 22.7673 33.3075 22.702V21.372C33.4288 21.428 33.5548 21.4653 33.6855 21.484C33.8161 21.512 33.9608 21.526 34.1195 21.526C34.4368 21.526 34.6888 21.4327 34.8755 21.246C35.0621 21.0687 35.1555 20.7653 35.1555 20.336V12.58H36.5695ZM36.8915 10.858C36.8915 11.1193 36.7935 11.3433 36.5975 11.53C36.4108 11.7073 36.1681 11.796 35.8695 11.796C35.5615 11.796 35.3095 11.7073 35.1135 11.53C34.9268 11.3433 34.8335 11.1193 34.8335 10.858C34.8335 10.578 34.9268 10.354 35.1135 10.186C35.3095 10.0087 35.5615 9.92 35.8695 9.92C36.1681 9.92 36.4108 10.0087 36.5975 10.186C36.7935 10.354 36.8915 10.578 36.8915 10.858ZM41.5847 20.14C40.8661 20.14 40.2361 19.9813 39.6947 19.664C39.1627 19.3373 38.7474 18.88 38.4487 18.292C38.1501 17.704 38.0007 17.0227 38.0007 16.248C38.0007 15.5107 38.1547 14.8573 38.4627 14.288C38.7707 13.7187 39.1907 13.2707 39.7227 12.944C40.2547 12.608 40.8614 12.44 41.5427 12.44C42.1027 12.44 42.6021 12.5473 43.0407 12.762C43.4887 12.9673 43.8667 13.2613 44.1747 13.644C44.4921 14.0173 44.7207 14.4607 44.8607 14.974C45.0007 15.478 45.0381 16.0333 44.9727 16.64H38.8267V15.702H43.4747C43.4467 15.0113 43.2554 14.4747 42.9007 14.092C42.5554 13.7 42.0934 13.504 41.5147 13.504C41.0947 13.504 40.7261 13.616 40.4087 13.84C40.1007 14.0547 39.8581 14.3673 39.6807 14.778C39.5127 15.1793 39.4287 15.6693 39.4287 16.248C39.4287 16.8267 39.5127 17.326 39.6807 17.746C39.8487 18.1567 40.0914 18.474 40.4087 18.698C40.7261 18.922 41.1087 19.034 41.5567 19.034C42.0887 19.034 42.5274 18.8987 42.8727 18.628C43.2274 18.3573 43.4607 17.9793 43.5727 17.494H44.9727C44.7954 18.3153 44.4034 18.964 43.7967 19.44C43.1994 19.9067 42.4621 20.14 41.5847 20.14ZM49.2654 20.154C48.584 20.154 47.982 19.9907 47.4594 19.664C46.946 19.3373 46.54 18.8847 46.2414 18.306C45.952 17.718 45.8074 17.046 45.8074 16.29C45.8074 15.5433 45.9567 14.8807 46.2554 14.302C46.554 13.7233 46.9647 13.2707 47.4874 12.944C48.01 12.608 48.6027 12.44 49.2654 12.44C49.8814 12.44 50.4274 12.5707 50.9034 12.832C51.3887 13.084 51.7854 13.448 52.0934 13.924C52.4107 14.3907 52.6114 14.946 52.6954 15.59H51.2114C51.1367 14.9927 50.9267 14.526 50.5814 14.19C50.236 13.854 49.802 13.686 49.2794 13.686C48.8687 13.686 48.514 13.798 48.2154 14.022C47.9167 14.2367 47.6834 14.5353 47.5154 14.918C47.3474 15.3007 47.2634 15.758 47.2634 16.29C47.2634 16.8127 47.3474 17.27 47.5154 17.662C47.6834 18.054 47.9167 18.3573 48.2154 18.572C48.514 18.7867 48.8687 18.894 49.2794 18.894C49.8114 18.894 50.2454 18.726 50.5814 18.39C50.9267 18.054 51.1414 17.5873 51.2254 16.99H52.6954C52.6207 17.6433 52.4294 18.208 52.1214 18.684C51.8134 19.1507 51.4167 19.5147 50.9314 19.776C50.446 20.028 49.8907 20.154 49.2654 20.154ZM58.3047 18.628V19.874C58.09 19.9767 57.88 20.0467 57.6747 20.084C57.4787 20.1213 57.2687 20.14 57.0447 20.14C56.5873 20.14 56.1813 20.056 55.8267 19.888C55.4813 19.72 55.2107 19.4587 55.0147 19.104C54.8187 18.7493 54.7207 18.3013 54.7207 17.76V13.784H53.0827V12.58H54.7207V10.382H56.1347V12.58H58.3747V13.784H56.1347V17.438C56.1347 17.9513 56.2467 18.3107 56.4707 18.516C56.704 18.7213 57.0073 18.824 57.3807 18.824C57.5487 18.824 57.7073 18.81 57.8567 18.782C58.0153 18.7447 58.1647 18.6933 58.3047 18.628ZM67.3539 20L64.1759 12.314V20H62.7619V9.948H64.6519L68.0259 18.11L71.3859 9.948H73.2899V20H71.8619V12.3L68.6699 20H67.3539ZM79.8451 20V18.852C79.6118 19.2627 79.2944 19.58 78.8931 19.804C78.4918 20.028 78.0158 20.14 77.4651 20.14C76.6998 20.14 76.0838 19.9393 75.6171 19.538C75.1504 19.1273 74.9171 18.5813 74.9171 17.9C74.9171 17.172 75.2018 16.6213 75.7711 16.248C76.3498 15.8747 77.1898 15.688 78.2911 15.688C78.5058 15.688 78.7158 15.6927 78.9211 15.702C79.1264 15.7113 79.3784 15.7347 79.6771 15.772V15.226C79.6771 14.7033 79.5418 14.2973 79.2711 14.008C79.0004 13.7093 78.6178 13.56 78.1231 13.56C77.6098 13.56 77.1991 13.7093 76.8911 14.008C76.5924 14.2973 76.4338 14.6987 76.4151 15.212H75.1271C75.1458 14.652 75.2811 14.1667 75.5331 13.756C75.7944 13.336 76.1444 13.014 76.5831 12.79C77.0311 12.5567 77.5444 12.44 78.1231 12.44C79.0378 12.44 79.7471 12.6873 80.2511 13.182C80.7644 13.6673 81.0211 14.3533 81.0211 15.24V20H79.8451ZM76.2611 17.858C76.2611 18.2407 76.3964 18.5487 76.6671 18.782C76.9378 19.0153 77.2971 19.132 77.7451 19.132C78.3424 19.132 78.8138 18.964 79.1591 18.628C79.5044 18.2827 79.6771 17.8253 79.6771 17.256V16.654C79.4064 16.626 79.1684 16.6073 78.9631 16.598C78.7578 16.5793 78.5618 16.57 78.3751 16.57C77.6658 16.57 77.1338 16.6773 76.7791 16.892C76.4338 17.0973 76.2611 17.4193 76.2611 17.858ZM84.3256 15.814V20H82.9116V12.58H84.2276V13.812C84.4796 13.4013 84.8063 13.07 85.2076 12.818C85.6183 12.566 86.0803 12.44 86.5936 12.44C87.359 12.44 87.9703 12.678 88.4276 13.154C88.8943 13.63 89.1276 14.3113 89.1276 15.198V20H87.7136V15.674C87.7136 15.0393 87.5783 14.5493 87.3076 14.204C87.037 13.8587 86.6356 13.686 86.1036 13.686C85.777 13.686 85.4783 13.7747 85.2076 13.952C84.937 14.12 84.7223 14.3627 84.5636 14.68C84.405 14.9973 84.3256 15.3753 84.3256 15.814ZM95.4994 20V18.852C95.2661 19.2627 94.9487 19.58 94.5474 19.804C94.1461 20.028 93.6701 20.14 93.1194 20.14C92.3541 20.14 91.7381 19.9393 91.2714 19.538C90.8047 19.1273 90.5714 18.5813 90.5714 17.9C90.5714 17.172 90.8561 16.6213 91.4254 16.248C92.0041 15.8747 92.8441 15.688 93.9454 15.688C94.1601 15.688 94.3701 15.6927 94.5754 15.702C94.7807 15.7113 95.0327 15.7347 95.3314 15.772V15.226C95.3314 14.7033 95.1961 14.2973 94.9254 14.008C94.6547 13.7093 94.2721 13.56 93.7774 13.56C93.2641 13.56 92.8534 13.7093 92.5454 14.008C92.2467 14.2973 92.0881 14.6987 92.0694 15.212H90.7814C90.8001 14.652 90.9354 14.1667 91.1874 13.756C91.4487 13.336 91.7987 13.014 92.2374 12.79C92.6854 12.5567 93.1987 12.44 93.7774 12.44C94.6921 12.44 95.4014 12.6873 95.9054 13.182C96.4187 13.6673 96.6754 14.3533 96.6754 15.24V20H95.4994ZM91.9154 17.858C91.9154 18.2407 92.0507 18.5487 92.3214 18.782C92.5921 19.0153 92.9514 19.132 93.3994 19.132C93.9967 19.132 94.4681 18.964 94.8134 18.628C95.1587 18.2827 95.3314 17.8253 95.3314 17.256V16.654C95.0607 16.626 94.8227 16.6073 94.6174 16.598C94.4121 16.5793 94.2161 16.57 94.0294 16.57C93.3201 16.57 92.7881 16.6773 92.4334 16.892C92.0881 17.0973 91.9154 17.4193 91.9154 17.858ZM101.534 22.856C100.89 22.856 100.325 22.744 99.8399 22.52C99.3546 22.3053 98.9719 21.9927 98.6919 21.582C98.4213 21.1713 98.2719 20.6907 98.2439 20.14H99.6159C99.6626 20.6533 99.8446 21.0453 100.162 21.316C100.489 21.596 100.941 21.736 101.52 21.736C102.164 21.736 102.649 21.568 102.976 21.232C103.303 20.9053 103.466 20.42 103.466 19.776V18.432C103.251 18.8707 102.943 19.216 102.542 19.468C102.15 19.72 101.702 19.846 101.198 19.846C100.582 19.846 100.036 19.6873 99.5599 19.37C99.0839 19.0527 98.7106 18.614 98.4399 18.054C98.1693 17.494 98.0339 16.8547 98.0339 16.136C98.0339 15.3987 98.1646 14.7547 98.4259 14.204C98.6873 13.644 99.0513 13.21 99.5179 12.902C99.9939 12.594 100.54 12.44 101.156 12.44C101.688 12.44 102.159 12.566 102.57 12.818C102.981 13.07 103.312 13.4293 103.564 13.896V12.58H104.88V19.748C104.88 20.728 104.586 21.4887 103.998 22.03C103.41 22.5807 102.589 22.856 101.534 22.856ZM99.4619 16.136C99.4619 16.9013 99.6393 17.508 99.9939 17.956C100.349 18.3947 100.834 18.614 101.45 18.614C101.851 18.614 102.201 18.516 102.5 18.32C102.808 18.1147 103.046 17.83 103.214 17.466C103.382 17.0927 103.466 16.6633 103.466 16.178C103.466 15.4127 103.284 14.8013 102.92 14.344C102.556 13.8867 102.066 13.658 101.45 13.658C100.843 13.658 100.358 13.882 99.9939 14.33C99.6393 14.7687 99.4619 15.3707 99.4619 16.136ZM109.889 20.14C109.171 20.14 108.541 19.9813 107.999 19.664C107.467 19.3373 107.052 18.88 106.753 18.292C106.455 17.704 106.305 17.0227 106.305 16.248C106.305 15.5107 106.459 14.8573 106.767 14.288C107.075 13.7187 107.495 13.2707 108.027 12.944C108.559 12.608 109.166 12.44 109.847 12.44C110.407 12.44 110.907 12.5473 111.345 12.762C111.793 12.9673 112.171 13.2613 112.479 13.644C112.797 14.0173 113.025 14.4607 113.165 14.974C113.305 15.478 113.343 16.0333 113.277 16.64H107.131V15.702H111.779C111.751 15.0113 111.56 14.4747 111.205 14.092C110.86 13.7 110.398 13.504 109.819 13.504C109.399 13.504 109.031 13.616 108.713 13.84C108.405 14.0547 108.163 14.3673 107.985 14.778C107.817 15.1793 107.733 15.6693 107.733 16.248C107.733 16.8267 107.817 17.326 107.985 17.746C108.153 18.1567 108.396 18.474 108.713 18.698C109.031 18.922 109.413 19.034 109.861 19.034C110.393 19.034 110.832 18.8987 111.177 18.628C111.532 18.3573 111.765 17.9793 111.877 17.494H113.277C113.1 18.3153 112.708 18.964 112.101 19.44C111.504 19.9067 110.767 20.14 109.889 20.14ZM116.195 16.206V20H114.781V12.58H116.097V14.148C116.358 13.6347 116.745 13.2287 117.259 12.93C117.781 12.6313 118.346 12.482 118.953 12.482V13.952C118.421 13.924 117.945 13.9847 117.525 14.134C117.114 14.2833 116.787 14.5307 116.545 14.876C116.311 15.212 116.195 15.6553 116.195 16.206Z" fill="white"/>
<path d="M127.861 37.0058L141.913 42.4207C142.933 42.8105 143.919 41.8084 143.514 40.7951L137.88 26.8291C137.452 25.7496 135.839 25.8285 135.517 26.958L134.247 31.3653C134.161 31.6312 134.208 31.9402 134.408 32.1817L137.845 36.5302C137.912 36.596 137.913 36.7286 137.826 36.8177C137.76 36.8845 137.627 36.8855 137.56 36.8197L133.159 33.451C132.892 33.2763 132.604 33.2122 132.34 33.3027L127.953 34.6407C126.829 34.9809 126.775 36.5944 127.861 37.0058Z" fill="#1E1E1E"/>
</svg>
