<svg width="242" height="207" viewBox="0 0 242 207" fill="none" xmlns="http://www.w3.org/2000/svg">
<line opacity="0.2" x1="44.5789" y1="166.5" x2="242" y2="166.5" stroke="#003063" stroke-dasharray="2 2"/>
<line opacity="0.2" x1="44.5789" y1="126.5" x2="242" y2="126.5" stroke="#003063" stroke-dasharray="2 2"/>
<line opacity="0.2" x1="44.5789" y1="86.5" x2="242" y2="86.5" stroke="#003063" stroke-dasharray="2 2"/>
<line opacity="0.2" x1="44.5789" y1="47.5" x2="242" y2="47.5" stroke="#003063" stroke-dasharray="2 2"/>
<line opacity="0.2" x1="44.5789" y1="7.5" x2="242" y2="7.5" stroke="#003063" stroke-dasharray="2 2"/>
<rect x="45" y="105" width="14" height="63" rx="4" fill="#757575"/>
<rect x="74" y="112" width="15" height="56" rx="4" fill="#757575"/>
<rect x="104" y="81" width="15" height="87" rx="4" fill="url(#paint0_linear_599_323)"/>
<rect x="134" y="67" width="15" height="101" rx="4" fill="url(#paint1_linear_599_323)"/>
<rect x="164" y="30" width="15" height="138" rx="4" fill="url(#paint2_linear_599_323)"/>
<rect x="194" y="36" width="15" height="132" rx="4" fill="url(#paint3_linear_599_323)"/>
<path d="M224 21C224 18.7909 225.791 17 228 17H235C237.209 17 239 18.7909 239 21V164C239 166.209 237.209 168 235 168H228C225.791 168 224 166.209 224 164V21Z" fill="url(#paint4_linear_599_323)"/>
<defs>
<linearGradient id="paint0_linear_599_323" x1="111.5" y1="81" x2="111.5" y2="168" gradientUnits="userSpaceOnUse">
<stop stop-color="#E61755"/>
<stop offset="1" stop-color="#8454F4"/>
</linearGradient>
<linearGradient id="paint1_linear_599_323" x1="141.5" y1="67" x2="141.5" y2="168" gradientUnits="userSpaceOnUse">
<stop stop-color="#E61755"/>
<stop offset="1" stop-color="#8454F4"/>
</linearGradient>
<linearGradient id="paint2_linear_599_323" x1="171.5" y1="30" x2="171.5" y2="168" gradientUnits="userSpaceOnUse">
<stop stop-color="#E61755"/>
<stop offset="1" stop-color="#8454F4"/>
</linearGradient>
<linearGradient id="paint3_linear_599_323" x1="201.5" y1="36" x2="201.5" y2="168" gradientUnits="userSpaceOnUse">
<stop stop-color="#E61755"/>
<stop offset="1" stop-color="#8454F4"/>
</linearGradient>
<linearGradient id="paint4_linear_599_323" x1="231.5" y1="17" x2="231.5" y2="168" gradientUnits="userSpaceOnUse">
<stop stop-color="#E61755"/>
<stop offset="1" stop-color="#8454F4"/>
</linearGradient>
</defs>
</svg>
