<svg width="242" height="207" viewBox="0 0 242 207" fill="none" xmlns="http://www.w3.org/2000/svg">
<line opacity="0.2" x1="44.5789" y1="166.5" x2="242" y2="166.5" stroke="#003063" stroke-dasharray="2 2"/>
<line opacity="0.2" x1="44.5789" y1="126.5" x2="242" y2="126.5" stroke="#003063" stroke-dasharray="2 2"/>
<line opacity="0.2" x1="44.5789" y1="86.5" x2="242" y2="86.5" stroke="#003063" stroke-dasharray="2 2"/>
<line opacity="0.2" x1="44.5789" y1="47.5" x2="242" y2="47.5" stroke="#003063" stroke-dasharray="2 2"/>
<line opacity="0.2" x1="44.5789" y1="7.5" x2="242" y2="7.5" stroke="#003063" stroke-dasharray="2 2"/>
<path opacity="0.7" d="M1.56 130H0.81V122.82H3.37C4.13667 122.82 4.74 123.01 5.18 123.39C5.62 123.763 5.84 124.297 5.84 124.99C5.84 125.53 5.67333 125.99 5.34 126.37C5.01333 126.743 4.56667 126.977 4 127.07L6.03 130H5.13L3.2 127.16H1.56V130ZM1.56 123.45V126.53H3.31C3.85667 126.53 4.29 126.4 4.61 126.14C4.93 125.873 5.09 125.49 5.09 124.99C5.09 124.49 4.93 124.11 4.61 123.85C4.29 123.583 3.85667 123.45 3.31 123.45H1.56ZM9.55719 130.89H9.04719V130.09C8.38052 130.037 7.86052 129.817 7.48719 129.43C7.11385 129.043 6.91385 128.553 6.88719 127.96H7.59719C7.63052 128.433 7.78719 128.81 8.06719 129.09C8.35385 129.37 8.77385 129.51 9.32719 129.51C9.63385 129.51 9.91052 129.46 10.1572 129.36C10.4039 129.253 10.6005 129.103 10.7472 128.91C10.8939 128.717 10.9672 128.487 10.9672 128.22C10.9672 127.873 10.8639 127.61 10.6572 127.43C10.4505 127.25 10.1205 127.113 9.66719 127.02L8.86719 126.85C8.65385 126.797 8.44052 126.73 8.22719 126.65C8.02052 126.57 7.83052 126.467 7.65719 126.34C7.49052 126.207 7.35385 126.037 7.24719 125.83C7.14719 125.623 7.09719 125.37 7.09719 125.07C7.09719 124.73 7.17719 124.423 7.33719 124.15C7.50385 123.87 7.73385 123.643 8.02719 123.47C8.32719 123.297 8.66719 123.193 9.04719 123.16V122.33H9.55719V123.16C9.93719 123.187 10.2772 123.29 10.5772 123.47C10.8839 123.65 11.1305 123.89 11.3172 124.19C11.5039 124.49 11.6072 124.84 11.6272 125.24H10.9172C10.9039 124.947 10.8272 124.69 10.6872 124.47C10.5472 124.243 10.3605 124.067 10.1272 123.94C9.90052 123.807 9.63385 123.74 9.32719 123.74C9.00052 123.74 8.72385 123.8 8.49719 123.92C8.27719 124.04 8.10719 124.197 7.98719 124.39C7.87385 124.583 7.81719 124.797 7.81719 125.03C7.81719 125.29 7.87719 125.5 7.99719 125.66C8.12385 125.82 8.29052 125.943 8.49719 126.03C8.70385 126.11 8.92385 126.173 9.15719 126.22L9.94719 126.39C10.2939 126.463 10.5972 126.567 10.8572 126.7C11.1239 126.833 11.3305 127.013 11.4772 127.24C11.6305 127.467 11.7072 127.763 11.7072 128.13C11.7072 128.477 11.6239 128.793 11.4572 129.08C11.2972 129.367 11.0572 129.603 10.7372 129.79C10.4172 129.97 10.0239 130.07 9.55719 130.09V130.89ZM16.5848 130H15.8948V123.84H14.5648V123.24H16.5848V130ZM17.9514 126.63C17.9514 125.51 18.1581 124.65 18.5714 124.05C18.9847 123.443 19.5781 123.14 20.3514 123.14C21.1181 123.14 21.7081 123.443 22.1214 124.05C22.5414 124.65 22.7514 125.51 22.7514 126.63C22.7514 127.75 22.5447 128.61 22.1314 129.21C21.7247 129.803 21.1314 130.1 20.3514 130.1C19.5714 130.1 18.9747 129.803 18.5614 129.21C18.1547 128.61 17.9514 127.75 17.9514 126.63ZM18.6714 126.63C18.6714 127.557 18.8114 128.263 19.0914 128.75C19.3781 129.237 19.7981 129.48 20.3514 129.48C20.8981 129.48 21.3147 129.24 21.6014 128.76C21.8881 128.28 22.0314 127.57 22.0314 126.63C22.0314 125.683 21.8881 124.97 21.6014 124.49C21.3147 124.003 20.8981 123.76 20.3514 123.76C19.8047 123.76 19.3881 124.003 19.1014 124.49C18.8147 124.977 18.6714 125.69 18.6714 126.63ZM24.8217 130H24.0717V122.82H24.8217V126.28L28.2217 122.82H29.0917L25.5917 126.4L29.1917 130H28.2217L24.8217 126.63V130Z" fill="#1E1E1E"/>
<path opacity="0.7" d="M1.56 169H0.81V161.82H3.37C4.13667 161.82 4.74 162.01 5.18 162.39C5.62 162.763 5.84 163.297 5.84 163.99C5.84 164.53 5.67333 164.99 5.34 165.37C5.01333 165.743 4.56667 165.977 4 166.07L6.03 169H5.13L3.2 166.16H1.56V169ZM1.56 162.45V165.53H3.31C3.85667 165.53 4.29 165.4 4.61 165.14C4.93 164.873 5.09 164.49 5.09 163.99C5.09 163.49 4.93 163.11 4.61 162.85C4.29 162.583 3.85667 162.45 3.31 162.45H1.56ZM9.55719 169.89H9.04719V169.09C8.38052 169.037 7.86052 168.817 7.48719 168.43C7.11385 168.043 6.91385 167.553 6.88719 166.96H7.59719C7.63052 167.433 7.78719 167.81 8.06719 168.09C8.35385 168.37 8.77385 168.51 9.32719 168.51C9.63385 168.51 9.91052 168.46 10.1572 168.36C10.4039 168.253 10.6005 168.103 10.7472 167.91C10.8939 167.717 10.9672 167.487 10.9672 167.22C10.9672 166.873 10.8639 166.61 10.6572 166.43C10.4505 166.25 10.1205 166.113 9.66719 166.02L8.86719 165.85C8.65385 165.797 8.44052 165.73 8.22719 165.65C8.02052 165.57 7.83052 165.467 7.65719 165.34C7.49052 165.207 7.35385 165.037 7.24719 164.83C7.14719 164.623 7.09719 164.37 7.09719 164.07C7.09719 163.73 7.17719 163.423 7.33719 163.15C7.50385 162.87 7.73385 162.643 8.02719 162.47C8.32719 162.297 8.66719 162.193 9.04719 162.16V161.33H9.55719V162.16C9.93719 162.187 10.2772 162.29 10.5772 162.47C10.8839 162.65 11.1305 162.89 11.3172 163.19C11.5039 163.49 11.6072 163.84 11.6272 164.24H10.9172C10.9039 163.947 10.8272 163.69 10.6872 163.47C10.5472 163.243 10.3605 163.067 10.1272 162.94C9.90052 162.807 9.63385 162.74 9.32719 162.74C9.00052 162.74 8.72385 162.8 8.49719 162.92C8.27719 163.04 8.10719 163.197 7.98719 163.39C7.87385 163.583 7.81719 163.797 7.81719 164.03C7.81719 164.29 7.87719 164.5 7.99719 164.66C8.12385 164.82 8.29052 164.943 8.49719 165.03C8.70385 165.11 8.92385 165.173 9.15719 165.22L9.94719 165.39C10.2939 165.463 10.5972 165.567 10.8572 165.7C11.1239 165.833 11.3305 166.013 11.4772 166.24C11.6305 166.467 11.7072 166.763 11.7072 167.13C11.7072 167.477 11.6239 167.793 11.4572 168.08C11.2972 168.367 11.0572 168.603 10.7372 168.79C10.4172 168.97 10.0239 169.07 9.55719 169.09V169.89ZM14.8948 165.63C14.8948 164.51 15.1014 163.65 15.5148 163.05C15.9281 162.443 16.5214 162.14 17.2948 162.14C18.0614 162.14 18.6514 162.443 19.0648 163.05C19.4848 163.65 19.6948 164.51 19.6948 165.63C19.6948 166.75 19.4881 167.61 19.0748 168.21C18.6681 168.803 18.0748 169.1 17.2948 169.1C16.5148 169.1 15.9181 168.803 15.5048 168.21C15.0981 167.61 14.8948 166.75 14.8948 165.63ZM15.6148 165.63C15.6148 166.557 15.7548 167.263 16.0348 167.75C16.3214 168.237 16.7414 168.48 17.2948 168.48C17.8414 168.48 18.2581 168.24 18.5448 167.76C18.8314 167.28 18.9748 166.57 18.9748 165.63C18.9748 164.683 18.8314 163.97 18.5448 163.49C18.2581 163.003 17.8414 162.76 17.2948 162.76C16.7481 162.76 16.3314 163.003 16.0448 163.49C15.7581 163.977 15.6148 164.69 15.6148 165.63ZM21.9298 168.67C21.9298 168.917 21.8698 169.15 21.7498 169.37C21.6298 169.59 21.4564 169.77 21.2298 169.91C21.0031 170.05 20.7298 170.123 20.4098 170.13V169.71C20.6964 169.69 20.9298 169.6 21.1098 169.44C21.2964 169.287 21.3964 169.093 21.4098 168.86C21.3698 168.88 21.3298 168.893 21.2898 168.9C21.2564 168.907 21.2198 168.91 21.1798 168.91C21.0198 168.91 20.8864 168.857 20.7798 168.75C20.6798 168.637 20.6298 168.507 20.6298 168.36C20.6298 168.18 20.6864 168.04 20.7998 167.94C20.9198 167.833 21.0631 167.78 21.2298 167.78C21.4631 167.78 21.6364 167.863 21.7498 168.03C21.8698 168.19 21.9298 168.403 21.9298 168.67ZM22.9026 165.63C22.9026 164.51 23.1092 163.65 23.5226 163.05C23.9359 162.443 24.5292 162.14 25.3026 162.14C26.0692 162.14 26.6592 162.443 27.0726 163.05C27.4926 163.65 27.7026 164.51 27.7026 165.63C27.7026 166.75 27.4959 167.61 27.0826 168.21C26.6759 168.803 26.0826 169.1 25.3026 169.1C24.5226 169.1 23.9259 168.803 23.5126 168.21C23.1059 167.61 22.9026 166.75 22.9026 165.63ZM23.6226 165.63C23.6226 166.557 23.7626 167.263 24.0426 167.75C24.3292 168.237 24.7492 168.48 25.3026 168.48C25.8492 168.48 26.2659 168.24 26.5526 167.76C26.8392 167.28 26.9826 166.57 26.9826 165.63C26.9826 164.683 26.8392 163.97 26.5526 163.49C26.2659 163.003 25.8492 162.76 25.3026 162.76C24.7559 162.76 24.3392 163.003 24.0526 163.49C23.7659 163.977 23.6226 164.69 23.6226 165.63ZM28.7229 165.63C28.7229 164.51 28.9296 163.65 29.3429 163.05C29.7562 162.443 30.3496 162.14 31.1229 162.14C31.8896 162.14 32.4796 162.443 32.8929 163.05C33.3129 163.65 33.5229 164.51 33.5229 165.63C33.5229 166.75 33.3162 167.61 32.9029 168.21C32.4962 168.803 31.9029 169.1 31.1229 169.1C30.3429 169.1 29.7462 168.803 29.3329 168.21C28.9262 167.61 28.7229 166.75 28.7229 165.63ZM29.4429 165.63C29.4429 166.557 29.5829 167.263 29.8629 167.75C30.1496 168.237 30.5696 168.48 31.1229 168.48C31.6696 168.48 32.0862 168.24 32.3729 167.76C32.6596 167.28 32.8029 166.57 32.8029 165.63C32.8029 164.683 32.6596 163.97 32.3729 163.49C32.0862 163.003 31.6696 162.76 31.1229 162.76C30.5762 162.76 30.1596 163.003 29.8729 163.49C29.5862 163.977 29.4429 164.69 29.4429 165.63Z" fill="#1E1E1E"/>
<path opacity="0.7" d="M1.56 90H0.81V82.82H3.37C4.13667 82.82 4.74 83.01 5.18 83.39C5.62 83.7633 5.84 84.2967 5.84 84.99C5.84 85.53 5.67333 85.99 5.34 86.37C5.01333 86.7433 4.56667 86.9767 4 87.07L6.03 90H5.13L3.2 87.16H1.56V90ZM1.56 83.45V86.53H3.31C3.85667 86.53 4.29 86.4 4.61 86.14C4.93 85.8733 5.09 85.49 5.09 84.99C5.09 84.49 4.93 84.11 4.61 83.85C4.29 83.5833 3.85667 83.45 3.31 83.45H1.56ZM9.55719 90.89H9.04719V90.09C8.38052 90.0367 7.86052 89.8167 7.48719 89.43C7.11385 89.0433 6.91385 88.5533 6.88719 87.96H7.59719C7.63052 88.4333 7.78719 88.81 8.06719 89.09C8.35385 89.37 8.77385 89.51 9.32719 89.51C9.63385 89.51 9.91052 89.46 10.1572 89.36C10.4039 89.2533 10.6005 89.1033 10.7472 88.91C10.8939 88.7167 10.9672 88.4867 10.9672 88.22C10.9672 87.8733 10.8639 87.61 10.6572 87.43C10.4505 87.25 10.1205 87.1133 9.66719 87.02L8.86719 86.85C8.65385 86.7967 8.44052 86.73 8.22719 86.65C8.02052 86.57 7.83052 86.4667 7.65719 86.34C7.49052 86.2067 7.35385 86.0367 7.24719 85.83C7.14719 85.6233 7.09719 85.37 7.09719 85.07C7.09719 84.73 7.17719 84.4233 7.33719 84.15C7.50385 83.87 7.73385 83.6433 8.02719 83.47C8.32719 83.2967 8.66719 83.1933 9.04719 83.16V82.33H9.55719V83.16C9.93719 83.1867 10.2772 83.29 10.5772 83.47C10.8839 83.65 11.1305 83.89 11.3172 84.19C11.5039 84.49 11.6072 84.84 11.6272 85.24H10.9172C10.9039 84.9467 10.8272 84.69 10.6872 84.47C10.5472 84.2433 10.3605 84.0667 10.1272 83.94C9.90052 83.8067 9.63385 83.74 9.32719 83.74C9.00052 83.74 8.72385 83.8 8.49719 83.92C8.27719 84.04 8.10719 84.1967 7.98719 84.39C7.87385 84.5833 7.81719 84.7967 7.81719 85.03C7.81719 85.29 7.87719 85.5 7.99719 85.66C8.12385 85.82 8.29052 85.9433 8.49719 86.03C8.70385 86.11 8.92385 86.1733 9.15719 86.22L9.94719 86.39C10.2939 86.4633 10.5972 86.5667 10.8572 86.7C11.1239 86.8333 11.3305 87.0133 11.4772 87.24C11.6305 87.4667 11.7072 87.7633 11.7072 88.13C11.7072 88.4767 11.6239 88.7933 11.4572 89.08C11.2972 89.3667 11.0572 89.6033 10.7372 89.79C10.4172 89.97 10.0239 90.07 9.55719 90.09V90.89ZM19.0148 89.39V90H14.9348V89.6L17.0948 87.16C17.3748 86.8533 17.5948 86.5833 17.7548 86.35C17.9148 86.1167 18.0314 85.9 18.1048 85.7C18.1781 85.5 18.2148 85.2933 18.2148 85.08C18.2148 84.8267 18.1581 84.6 18.0448 84.4C17.9314 84.2 17.7714 84.0433 17.5648 83.93C17.3648 83.8167 17.1314 83.76 16.8648 83.76C16.5914 83.76 16.3481 83.82 16.1348 83.94C15.9281 84.0533 15.7648 84.2167 15.6448 84.43C15.5248 84.6367 15.4648 84.8833 15.4648 85.17H14.7848C14.7848 84.77 14.8748 84.42 15.0548 84.12C15.2348 83.8133 15.4814 83.5733 15.7948 83.4C16.1148 83.2267 16.4814 83.14 16.8948 83.14C17.2881 83.14 17.6381 83.2233 17.9448 83.39C18.2581 83.55 18.5014 83.77 18.6748 84.05C18.8548 84.33 18.9448 84.6533 18.9448 85.02C18.9448 85.26 18.9048 85.4933 18.8248 85.72C18.7514 85.9467 18.6181 86.1967 18.4248 86.47C18.2314 86.7433 17.9614 87.0733 17.6148 87.46L15.9648 89.39H19.0148ZM20.0022 86.63C20.0022 85.51 20.2089 84.65 20.6222 84.05C21.0355 83.4433 21.6289 83.14 22.4022 83.14C23.1689 83.14 23.7589 83.4433 24.1722 84.05C24.5922 84.65 24.8022 85.51 24.8022 86.63C24.8022 87.75 24.5955 88.61 24.1822 89.21C23.7755 89.8033 23.1822 90.1 22.4022 90.1C21.6222 90.1 21.0255 89.8033 20.6122 89.21C20.2055 88.61 20.0022 87.75 20.0022 86.63ZM20.7222 86.63C20.7222 87.5567 20.8622 88.2633 21.1422 88.75C21.4289 89.2367 21.8489 89.48 22.4022 89.48C22.9489 89.48 23.3655 89.24 23.6522 88.76C23.9389 88.28 24.0822 87.57 24.0822 86.63C24.0822 85.6833 23.9389 84.97 23.6522 84.49C23.3655 84.0033 22.9489 83.76 22.4022 83.76C21.8555 83.76 21.4389 84.0033 21.1522 84.49C20.8655 84.9767 20.7222 85.69 20.7222 86.63ZM26.8725 90H26.1225V82.82H26.8725V86.28L30.2725 82.82H31.1425L27.6425 86.4L31.2425 90H30.2725L26.8725 86.63V90Z" fill="#1E1E1E"/>
<path opacity="0.7" d="M1.56 51H0.81V43.82H3.37C4.13667 43.82 4.74 44.01 5.18 44.39C5.62 44.7633 5.84 45.2967 5.84 45.99C5.84 46.53 5.67333 46.99 5.34 47.37C5.01333 47.7433 4.56667 47.9767 4 48.07L6.03 51H5.13L3.2 48.16H1.56V51ZM1.56 44.45V47.53H3.31C3.85667 47.53 4.29 47.4 4.61 47.14C4.93 46.8733 5.09 46.49 5.09 45.99C5.09 45.49 4.93 45.11 4.61 44.85C4.29 44.5833 3.85667 44.45 3.31 44.45H1.56ZM9.55719 51.89H9.04719V51.09C8.38052 51.0367 7.86052 50.8167 7.48719 50.43C7.11385 50.0433 6.91385 49.5533 6.88719 48.96H7.59719C7.63052 49.4333 7.78719 49.81 8.06719 50.09C8.35385 50.37 8.77385 50.51 9.32719 50.51C9.63385 50.51 9.91052 50.46 10.1572 50.36C10.4039 50.2533 10.6005 50.1033 10.7472 49.91C10.8939 49.7167 10.9672 49.4867 10.9672 49.22C10.9672 48.8733 10.8639 48.61 10.6572 48.43C10.4505 48.25 10.1205 48.1133 9.66719 48.02L8.86719 47.85C8.65385 47.7967 8.44052 47.73 8.22719 47.65C8.02052 47.57 7.83052 47.4667 7.65719 47.34C7.49052 47.2067 7.35385 47.0367 7.24719 46.83C7.14719 46.6233 7.09719 46.37 7.09719 46.07C7.09719 45.73 7.17719 45.4233 7.33719 45.15C7.50385 44.87 7.73385 44.6433 8.02719 44.47C8.32719 44.2967 8.66719 44.1933 9.04719 44.16V43.33H9.55719V44.16C9.93719 44.1867 10.2772 44.29 10.5772 44.47C10.8839 44.65 11.1305 44.89 11.3172 45.19C11.5039 45.49 11.6072 45.84 11.6272 46.24H10.9172C10.9039 45.9467 10.8272 45.69 10.6872 45.47C10.5472 45.2433 10.3605 45.0667 10.1272 44.94C9.90052 44.8067 9.63385 44.74 9.32719 44.74C9.00052 44.74 8.72385 44.8 8.49719 44.92C8.27719 45.04 8.10719 45.1967 7.98719 45.39C7.87385 45.5833 7.81719 45.7967 7.81719 46.03C7.81719 46.29 7.87719 46.5 7.99719 46.66C8.12385 46.82 8.29052 46.9433 8.49719 47.03C8.70385 47.11 8.92385 47.1733 9.15719 47.22L9.94719 47.39C10.2939 47.4633 10.5972 47.5667 10.8572 47.7C11.1239 47.8333 11.3305 48.0133 11.4772 48.24C11.6305 48.4667 11.7072 48.7633 11.7072 49.13C11.7072 49.4767 11.6239 49.7933 11.4572 50.08C11.2972 50.3667 11.0572 50.6033 10.7372 50.79C10.4172 50.97 10.0239 51.07 9.55719 51.09V51.89ZM17.2248 51.09C16.7781 51.09 16.3814 51.01 16.0348 50.85C15.6948 50.6833 15.4281 50.4533 15.2348 50.16C15.0481 49.8667 14.9481 49.5267 14.9348 49.14H15.6148C15.6348 49.5533 15.7881 49.8867 16.0748 50.14C16.3681 50.3933 16.7514 50.52 17.2248 50.52C17.7114 50.52 18.0914 50.3967 18.3648 50.15C18.6448 49.9033 18.7848 49.5667 18.7848 49.14C18.7848 48.74 18.6314 48.42 18.3248 48.18C18.0181 47.9333 17.6048 47.81 17.0848 47.81H16.4148V47.23H17.0648C17.3448 47.23 17.5881 47.1767 17.7948 47.07C18.0081 46.9567 18.1748 46.8033 18.2948 46.61C18.4148 46.4167 18.4748 46.1933 18.4748 45.94C18.4748 45.58 18.3514 45.2867 18.1048 45.06C17.8648 44.8267 17.5514 44.71 17.1648 44.71C16.7714 44.71 16.4481 44.8267 16.1948 45.06C15.9481 45.2933 15.8148 45.6033 15.7948 45.99H15.1248C15.1381 45.6367 15.2348 45.32 15.4148 45.04C15.5948 44.76 15.8381 44.54 16.1448 44.38C16.4581 44.22 16.8048 44.14 17.1848 44.14C17.5848 44.14 17.9348 44.2167 18.2348 44.37C18.5348 44.5167 18.7681 44.7233 18.9348 44.99C19.1081 45.25 19.1948 45.5567 19.1948 45.91C19.1948 46.2567 19.0914 46.5667 18.8848 46.84C18.6848 47.1067 18.4014 47.32 18.0348 47.48C18.5014 47.5933 18.8614 47.7933 19.1148 48.08C19.3748 48.3667 19.5048 48.7167 19.5048 49.13C19.5048 49.5167 19.4081 49.8567 19.2148 50.15C19.0214 50.4433 18.7548 50.6733 18.4148 50.84C18.0748 51.0067 17.6781 51.09 17.2248 51.09ZM20.6174 47.63C20.6174 46.51 20.8241 45.65 21.2374 45.05C21.6508 44.4433 22.2441 44.14 23.0174 44.14C23.7841 44.14 24.3741 44.4433 24.7874 45.05C25.2074 45.65 25.4174 46.51 25.4174 47.63C25.4174 48.75 25.2108 49.61 24.7974 50.21C24.3908 50.8033 23.7974 51.1 23.0174 51.1C22.2374 51.1 21.6408 50.8033 21.2274 50.21C20.8208 49.61 20.6174 48.75 20.6174 47.63ZM21.3374 47.63C21.3374 48.5567 21.4774 49.2633 21.7574 49.75C22.0441 50.2367 22.4641 50.48 23.0174 50.48C23.5641 50.48 23.9808 50.24 24.2674 49.76C24.5541 49.28 24.6974 48.57 24.6974 47.63C24.6974 46.6833 24.5541 45.97 24.2674 45.49C23.9808 45.0033 23.5641 44.76 23.0174 44.76C22.4708 44.76 22.0541 45.0033 21.7674 45.49C21.4808 45.9767 21.3374 46.69 21.3374 47.63ZM27.4877 51H26.7377V43.82H27.4877V47.28L30.8877 43.82H31.7577L28.2577 47.4L31.8577 51H30.8877L27.4877 47.63V51Z" fill="#1E1E1E"/>
<path opacity="0.7" d="M1.56 11H0.81V3.82H3.37C4.13667 3.82 4.74 4.01 5.18 4.39C5.62 4.76333 5.84 5.29667 5.84 5.99C5.84 6.53 5.67333 6.99 5.34 7.37C5.01333 7.74333 4.56667 7.97667 4 8.07L6.03 11H5.13L3.2 8.16H1.56V11ZM1.56 4.45V7.53H3.31C3.85667 7.53 4.29 7.4 4.61 7.14C4.93 6.87333 5.09 6.49 5.09 5.99C5.09 5.49 4.93 5.11 4.61 4.85C4.29 4.58333 3.85667 4.45 3.31 4.45H1.56ZM9.55719 11.89H9.04719V11.09C8.38052 11.0367 7.86052 10.8167 7.48719 10.43C7.11385 10.0433 6.91385 9.55333 6.88719 8.96H7.59719C7.63052 9.43333 7.78719 9.81 8.06719 10.09C8.35385 10.37 8.77385 10.51 9.32719 10.51C9.63385 10.51 9.91052 10.46 10.1572 10.36C10.4039 10.2533 10.6005 10.1033 10.7472 9.91C10.8939 9.71667 10.9672 9.48667 10.9672 9.22C10.9672 8.87333 10.8639 8.61 10.6572 8.43C10.4505 8.25 10.1205 8.11333 9.66719 8.02L8.86719 7.85C8.65385 7.79667 8.44052 7.73 8.22719 7.65C8.02052 7.57 7.83052 7.46667 7.65719 7.34C7.49052 7.20667 7.35385 7.03667 7.24719 6.83C7.14719 6.62333 7.09719 6.37 7.09719 6.07C7.09719 5.73 7.17719 5.42333 7.33719 5.15C7.50385 4.87 7.73385 4.64333 8.02719 4.47C8.32719 4.29667 8.66719 4.19333 9.04719 4.16V3.33H9.55719V4.16C9.93719 4.18667 10.2772 4.29 10.5772 4.47C10.8839 4.65 11.1305 4.89 11.3172 5.19C11.5039 5.49 11.6072 5.84 11.6272 6.24H10.9172C10.9039 5.94667 10.8272 5.69 10.6872 5.47C10.5472 5.24333 10.3605 5.06667 10.1272 4.94C9.90052 4.80667 9.63385 4.74 9.32719 4.74C9.00052 4.74 8.72385 4.8 8.49719 4.92C8.27719 5.04 8.10719 5.19667 7.98719 5.39C7.87385 5.58333 7.81719 5.79667 7.81719 6.03C7.81719 6.29 7.87719 6.5 7.99719 6.66C8.12385 6.82 8.29052 6.94333 8.49719 7.03C8.70385 7.11 8.92385 7.17333 9.15719 7.22L9.94719 7.39C10.2939 7.46333 10.5972 7.56667 10.8572 7.7C11.1239 7.83333 11.3305 8.01333 11.4772 8.24C11.6305 8.46667 11.7072 8.76333 11.7072 9.13C11.7072 9.47667 11.6239 9.79333 11.4572 10.08C11.2972 10.3667 11.0572 10.6033 10.7372 10.79C10.4172 10.97 10.0239 11.07 9.55719 11.09V11.89ZM19.5648 9.39H18.6548V11H17.9648V9.39H14.6748V8.92L18.1648 4.24H18.6548V8.78H19.5648V9.39ZM15.4848 8.78H17.9648V5.38L15.4848 8.78ZM20.5002 7.63C20.5002 6.51 20.7069 5.65 21.1202 5.05C21.5336 4.44333 22.1269 4.14 22.9002 4.14C23.6669 4.14 24.2569 4.44333 24.6702 5.05C25.0902 5.65 25.3002 6.51 25.3002 7.63C25.3002 8.75 25.0936 9.61 24.6802 10.21C24.2736 10.8033 23.6802 11.1 22.9002 11.1C22.1202 11.1 21.5236 10.8033 21.1102 10.21C20.7036 9.61 20.5002 8.75 20.5002 7.63ZM21.2202 7.63C21.2202 8.55667 21.3602 9.26333 21.6402 9.75C21.9269 10.2367 22.3469 10.48 22.9002 10.48C23.4469 10.48 23.8636 10.24 24.1502 9.76C24.4369 9.28 24.5802 8.57 24.5802 7.63C24.5802 6.68333 24.4369 5.97 24.1502 5.49C23.8636 5.00333 23.4469 4.76 22.9002 4.76C22.3536 4.76 21.9369 5.00333 21.6502 5.49C21.3636 5.97667 21.2202 6.69 21.2202 7.63ZM27.3705 11H26.6205V3.82H27.3705V7.28L30.7705 3.82H31.6405L28.1405 7.4L31.7405 11H30.7705L27.3705 7.63V11Z" fill="#1E1E1E"/>
<rect x="45" y="105" width="14" height="63" rx="4" fill="#757575"/>
<rect x="74" y="112" width="15" height="56" rx="4" fill="#757575"/>
<rect x="104" y="81" width="15" height="87" rx="4" fill="#235AB1"/>
<rect x="104" y="81" width="15" height="87" rx="4" fill="url(#paint0_linear_599_323)"/>
<rect x="134" y="67" width="15" height="101" rx="4" fill="#235AB1"/>
<rect x="134" y="67" width="15" height="101" rx="4" fill="url(#paint1_linear_599_323)"/>
<rect x="164" y="30" width="15" height="138" rx="4" fill="#235AB1"/>
<rect x="164" y="30" width="15" height="138" rx="4" fill="url(#paint2_linear_599_323)"/>
<rect x="194" y="36" width="15" height="132" rx="4" fill="#235AB1"/>
<rect x="194" y="36" width="15" height="132" rx="4" fill="url(#paint3_linear_599_323)"/>
<path d="M224 21C224 18.7909 225.791 17 228 17H235C237.209 17 239 18.7909 239 21V164C239 166.209 237.209 168 235 168H228C225.791 168 224 166.209 224 164V21Z" fill="#235AB1"/>
<path d="M224 21C224 18.7909 225.791 17 228 17H235C237.209 17 239 18.7909 239 21V164C239 166.209 237.209 168 235 168H228C225.791 168 224 166.209 224 164V21Z" fill="url(#paint4_linear_599_323)"/>
<rect x="140" y="191" width="16" height="16" rx="6" fill="#CF3E42"/>
<rect x="140" y="191" width="16" height="16" rx="6" fill="url(#paint5_linear_599_323)"/>
<path d="M164.85 202.5H162.81V195.32H164.85C165.617 195.32 166.267 195.473 166.8 195.78C167.333 196.08 167.737 196.497 168.01 197.03C168.283 197.563 168.42 198.18 168.42 198.88C168.42 199.573 168.28 200.193 168 200.74C167.72 201.28 167.31 201.71 166.77 202.03C166.237 202.343 165.597 202.5 164.85 202.5ZM163.56 195.97V201.85H164.83C165.443 201.85 165.96 201.727 166.38 201.48C166.8 201.233 167.117 200.887 167.33 200.44C167.55 199.993 167.66 199.473 167.66 198.88C167.66 198.287 167.55 197.773 167.33 197.34C167.117 196.9 166.8 196.563 166.38 196.33C165.96 196.09 165.443 195.97 164.83 195.97H163.56ZM171.646 202.6C171.153 202.6 170.72 202.487 170.346 202.26C169.98 202.027 169.693 201.7 169.486 201.28C169.286 200.86 169.186 200.373 169.186 199.82C169.186 199.307 169.29 198.85 169.496 198.45C169.71 198.043 169.996 197.723 170.356 197.49C170.723 197.25 171.14 197.13 171.606 197.13C171.98 197.13 172.316 197.203 172.616 197.35C172.923 197.49 173.18 197.69 173.386 197.95C173.6 198.21 173.756 198.517 173.856 198.87C173.963 199.217 174 199.603 173.966 200.03H169.566V199.55H173.236C173.21 198.957 173.05 198.497 172.756 198.17C172.47 197.837 172.083 197.67 171.596 197.67C171.256 197.67 170.956 197.76 170.696 197.94C170.443 198.113 170.243 198.36 170.096 198.68C169.95 199 169.876 199.38 169.876 199.82C169.876 200.273 169.946 200.67 170.086 201.01C170.226 201.343 170.426 201.6 170.686 201.78C170.953 201.96 171.27 202.05 171.636 202.05C172.076 202.05 172.44 201.933 172.726 201.7C173.02 201.46 173.21 201.133 173.296 200.72H173.986C173.866 201.3 173.596 201.76 173.176 202.1C172.763 202.433 172.253 202.6 171.646 202.6ZM179.953 199.86C179.953 200.4 179.857 200.877 179.663 201.29C179.477 201.703 179.21 202.027 178.863 202.26C178.523 202.487 178.117 202.6 177.643 202.6C177.25 202.6 176.893 202.497 176.573 202.29C176.253 202.083 176.003 201.793 175.823 201.42V204.43H175.123V197.23H175.773V198.37C175.953 197.977 176.21 197.673 176.543 197.46C176.877 197.24 177.243 197.13 177.643 197.13C178.11 197.13 178.517 197.247 178.863 197.48C179.21 197.707 179.477 198.027 179.663 198.44C179.857 198.847 179.953 199.32 179.953 199.86ZM179.243 199.86C179.243 199.193 179.083 198.673 178.763 198.3C178.45 197.927 178.037 197.74 177.523 197.74C177.203 197.74 176.913 197.823 176.653 197.99C176.393 198.157 176.187 198.397 176.033 198.71C175.887 199.023 175.813 199.407 175.813 199.86C175.813 200.293 175.887 200.67 176.033 200.99C176.18 201.31 176.383 201.557 176.643 201.73C176.903 201.903 177.197 201.99 177.523 201.99C178.037 201.99 178.45 201.803 178.763 201.43C179.083 201.057 179.243 200.533 179.243 199.86ZM183.19 202.6C182.83 202.6 182.497 202.533 182.19 202.4C181.884 202.267 181.617 202.077 181.39 201.83C181.17 201.583 180.997 201.293 180.87 200.96C180.75 200.627 180.69 200.26 180.69 199.86C180.69 199.467 180.75 199.103 180.87 198.77C180.997 198.437 181.17 198.15 181.39 197.91C181.617 197.663 181.884 197.473 182.19 197.34C182.497 197.207 182.83 197.14 183.19 197.14C183.557 197.14 183.894 197.207 184.2 197.34C184.507 197.473 184.77 197.663 184.99 197.91C185.217 198.15 185.39 198.437 185.51 198.77C185.637 199.103 185.7 199.467 185.7 199.86C185.7 200.26 185.637 200.627 185.51 200.96C185.39 201.293 185.217 201.583 184.99 201.83C184.77 202.077 184.507 202.267 184.2 202.4C183.894 202.533 183.557 202.6 183.19 202.6ZM183.19 202C183.537 202 183.844 201.913 184.11 201.74C184.384 201.56 184.597 201.31 184.75 200.99C184.91 200.67 184.99 200.293 184.99 199.86C184.99 199.427 184.91 199.053 184.75 198.74C184.597 198.427 184.384 198.183 184.11 198.01C183.844 197.837 183.537 197.75 183.19 197.75C182.85 197.75 182.544 197.837 182.27 198.01C182.004 198.183 181.79 198.427 181.63 198.74C181.477 199.053 181.4 199.427 181.4 199.86C181.4 200.293 181.477 200.67 181.63 200.99C181.79 201.31 182.004 201.56 182.27 201.74C182.544 201.913 182.85 202 183.19 202ZM187.532 202.5H186.832V197.23H187.532V202.5ZM187.742 196.01C187.742 196.163 187.689 196.29 187.582 196.39C187.482 196.49 187.346 196.54 187.172 196.54C187.012 196.54 186.879 196.49 186.772 196.39C186.666 196.29 186.612 196.163 186.612 196.01C186.612 195.857 186.666 195.733 186.772 195.64C186.879 195.54 187.012 195.49 187.172 195.49C187.346 195.49 187.482 195.54 187.582 195.64C187.689 195.733 187.742 195.857 187.742 196.01ZM192.989 201.03C192.989 201.517 192.806 201.9 192.439 202.18C192.072 202.46 191.562 202.6 190.909 202.6C190.256 202.6 189.736 202.443 189.349 202.13C188.969 201.817 188.752 201.39 188.699 200.85H189.369C189.389 201.223 189.539 201.52 189.819 201.74C190.099 201.96 190.462 202.07 190.909 202.07C191.342 202.07 191.679 201.99 191.919 201.83C192.166 201.67 192.289 201.44 192.289 201.14C192.289 200.88 192.206 200.683 192.039 200.55C191.872 200.41 191.589 200.3 191.189 200.22L190.429 200.07C189.929 199.977 189.549 199.81 189.289 199.57C189.029 199.323 188.899 199.01 188.899 198.63C188.899 198.337 188.979 198.077 189.139 197.85C189.306 197.623 189.532 197.447 189.819 197.32C190.112 197.193 190.449 197.13 190.829 197.13C191.236 197.13 191.589 197.2 191.889 197.34C192.196 197.473 192.439 197.667 192.619 197.92C192.799 198.173 192.899 198.477 192.919 198.83H192.259C192.226 198.463 192.082 198.18 191.829 197.98C191.576 197.773 191.242 197.67 190.829 197.67C190.456 197.67 190.152 197.75 189.919 197.91C189.692 198.07 189.579 198.29 189.579 198.57C189.579 198.83 189.662 199.03 189.829 199.17C190.002 199.31 190.286 199.417 190.679 199.49L191.469 199.64C191.989 199.74 192.372 199.903 192.619 200.13C192.866 200.357 192.989 200.657 192.989 201.03ZM195.905 199.86C195.905 199.32 195.998 198.847 196.185 198.44C196.378 198.027 196.648 197.707 196.995 197.48C197.342 197.247 197.752 197.13 198.225 197.13C198.618 197.13 198.975 197.237 199.295 197.45C199.615 197.657 199.862 197.95 200.035 198.33V195.32H200.735V202.5H200.085V201.39C199.898 201.77 199.642 202.067 199.315 202.28C198.995 202.493 198.632 202.6 198.225 202.6C197.752 202.6 197.342 202.487 196.995 202.26C196.648 202.027 196.378 201.703 196.185 201.29C195.998 200.877 195.905 200.4 195.905 199.86ZM196.615 199.86C196.615 200.533 196.772 201.057 197.085 201.43C197.398 201.803 197.812 201.99 198.325 201.99C198.672 201.99 198.972 201.903 199.225 201.73C199.485 201.557 199.685 201.31 199.825 200.99C199.972 200.663 200.045 200.28 200.045 199.84C200.045 199.4 199.968 199.023 199.815 198.71C199.668 198.397 199.465 198.157 199.205 197.99C198.952 197.823 198.658 197.74 198.325 197.74C197.812 197.74 197.398 197.927 197.085 198.3C196.772 198.673 196.615 199.193 196.615 199.86ZM205.492 202.5V201.54C205.339 201.867 205.109 202.127 204.802 202.32C204.496 202.507 204.136 202.6 203.722 202.6C203.176 202.6 202.739 202.46 202.412 202.18C202.086 201.893 201.922 201.513 201.922 201.04C201.922 200.527 202.126 200.14 202.532 199.88C202.939 199.613 203.542 199.48 204.342 199.48C204.502 199.48 204.659 199.483 204.812 199.49C204.966 199.497 205.169 199.513 205.422 199.54V199.09C205.422 198.65 205.309 198.307 205.082 198.06C204.862 197.813 204.552 197.69 204.152 197.69C203.726 197.69 203.386 197.817 203.132 198.07C202.879 198.317 202.749 198.653 202.742 199.08H202.102C202.109 198.687 202.199 198.347 202.372 198.06C202.546 197.767 202.782 197.54 203.082 197.38C203.389 197.213 203.742 197.13 204.142 197.13C204.762 197.13 205.242 197.3 205.582 197.64C205.922 197.98 206.092 198.457 206.092 199.07V202.5H205.492ZM202.592 201.02C202.592 201.34 202.706 201.6 202.932 201.8C203.159 201.993 203.456 202.09 203.822 202.09C204.316 202.09 204.706 201.943 204.992 201.65C205.279 201.35 205.422 200.953 205.422 200.46V199.99C205.196 199.97 204.999 199.957 204.832 199.95C204.672 199.943 204.519 199.94 204.372 199.94C203.779 199.94 203.332 200.03 203.032 200.21C202.739 200.383 202.592 200.653 202.592 201.02ZM212.245 202.5H211.505V195.99H209.095V195.32H214.655V195.99H212.245V202.5ZM219.972 201.85V202.5H215.662V195.32H219.902V195.97H216.412V198.47H219.602V199.12H216.412V201.85H219.972ZM224.465 202.65C223.965 202.65 223.501 202.557 223.075 202.37C222.648 202.177 222.275 201.91 221.955 201.57C221.641 201.23 221.395 200.833 221.215 200.38C221.041 199.92 220.955 199.427 220.955 198.9C220.955 198.373 221.041 197.883 221.215 197.43C221.395 196.977 221.641 196.583 221.955 196.25C222.275 195.91 222.648 195.647 223.075 195.46C223.501 195.267 223.965 195.17 224.465 195.17C225.031 195.17 225.555 195.29 226.035 195.53C226.515 195.763 226.915 196.097 227.235 196.53C227.561 196.957 227.771 197.457 227.865 198.03H227.075C227.001 197.603 226.841 197.227 226.595 196.9C226.348 196.567 226.041 196.307 225.675 196.12C225.315 195.933 224.911 195.84 224.465 195.84C224.065 195.84 223.698 195.917 223.365 196.07C223.031 196.223 222.741 196.437 222.495 196.71C222.248 196.983 222.058 197.307 221.925 197.68C221.791 198.053 221.725 198.46 221.725 198.9C221.725 199.347 221.791 199.757 221.925 200.13C222.058 200.503 222.248 200.83 222.495 201.11C222.741 201.383 223.031 201.597 223.365 201.75C223.698 201.903 224.065 201.98 224.465 201.98C224.911 201.98 225.318 201.887 225.685 201.7C226.051 201.507 226.355 201.243 226.595 200.91C226.841 200.577 227.001 200.2 227.075 199.78H227.865C227.771 200.347 227.565 200.847 227.245 201.28C226.925 201.713 226.521 202.05 226.035 202.29C225.555 202.53 225.031 202.65 224.465 202.65ZM233.45 200.89H232.54V202.5H231.85V200.89H228.56V200.42L232.05 195.74H232.54V200.28H233.45V200.89ZM229.37 200.28H231.85V196.88L229.37 200.28ZM239.915 195.32V200.04C239.915 200.573 239.805 201.037 239.585 201.43C239.372 201.823 239.068 202.127 238.675 202.34C238.282 202.547 237.822 202.65 237.295 202.65C236.762 202.65 236.298 202.547 235.905 202.34C235.512 202.127 235.205 201.823 234.985 201.43C234.772 201.037 234.665 200.573 234.665 200.04V195.32H235.415V200.08C235.415 200.467 235.495 200.803 235.655 201.09C235.815 201.377 236.035 201.597 236.315 201.75C236.595 201.903 236.922 201.98 237.295 201.98C237.668 201.98 237.995 201.903 238.275 201.75C238.555 201.597 238.772 201.377 238.925 201.09C239.085 200.803 239.165 200.467 239.165 200.08V195.32H239.915Z" fill="#1E1E1E"/>
<rect y="191" width="16" height="16" rx="6" fill="#13B682"/>
<rect y="191" width="16" height="16" rx="6" fill="#757575"/>
<path d="M20.75 199.9H24.22L24.43 200.51H20.45L20.75 199.9ZM24.87 202.5L22.45 196.12L20.01 202.5H19.27L22.06 195.32H22.88L25.66 202.5H24.87ZM27.3838 199.43V202.5H26.6838V197.23H27.3338V198.22C27.5072 197.9 27.7438 197.64 28.0438 197.44C28.3505 197.233 28.6938 197.13 29.0738 197.13C29.6205 197.13 30.0572 197.3 30.3838 197.64C30.7172 197.98 30.8838 198.46 30.8838 199.08V202.5H30.1838V199.32C30.1838 198.813 30.0705 198.423 29.8438 198.15C29.6238 197.877 29.2972 197.74 28.8638 197.74C28.5905 197.74 28.3405 197.813 28.1138 197.96C27.8872 198.1 27.7072 198.297 27.5738 198.55C27.4472 198.803 27.3838 199.097 27.3838 199.43ZM35.0579 201.83V202.45C34.9246 202.51 34.7979 202.55 34.6779 202.57C34.5579 202.59 34.4312 202.6 34.2979 202.6C34.0112 202.6 33.7512 202.547 33.5179 202.44C33.2846 202.333 33.0979 202.163 32.9579 201.93C32.8246 201.697 32.7579 201.39 32.7579 201.01V197.82H31.5179V197.23H32.7579V195.67H33.4579V197.23H35.1079V197.82H33.4579V200.86C33.4579 201.273 33.5479 201.56 33.7279 201.72C33.9146 201.88 34.1512 201.96 34.4379 201.96C34.5512 201.96 34.6546 201.95 34.7479 201.93C34.8479 201.91 34.9512 201.877 35.0579 201.83ZM38.0605 202.6C37.5671 202.6 37.1338 202.487 36.7605 202.26C36.3938 202.027 36.1071 201.7 35.9005 201.28C35.7005 200.86 35.6005 200.373 35.6005 199.82C35.6005 199.307 35.7038 198.85 35.9105 198.45C36.1238 198.043 36.4105 197.723 36.7705 197.49C37.1371 197.25 37.5538 197.13 38.0205 197.13C38.3938 197.13 38.7305 197.203 39.0305 197.35C39.3371 197.49 39.5938 197.69 39.8005 197.95C40.0138 198.21 40.1705 198.517 40.2705 198.87C40.3771 199.217 40.4138 199.603 40.3805 200.03H35.9805V199.55H39.6505C39.6238 198.957 39.4638 198.497 39.1705 198.17C38.8838 197.837 38.4971 197.67 38.0105 197.67C37.6705 197.67 37.3705 197.76 37.1105 197.94C36.8571 198.113 36.6571 198.36 36.5105 198.68C36.3638 199 36.2905 199.38 36.2905 199.82C36.2905 200.273 36.3605 200.67 36.5005 201.01C36.6405 201.343 36.8405 201.6 37.1005 201.78C37.3671 201.96 37.6838 202.05 38.0505 202.05C38.4905 202.05 38.8538 201.933 39.1405 201.7C39.4338 201.46 39.6238 201.133 39.7105 200.72H40.4005C40.2805 201.3 40.0105 201.76 39.5905 202.1C39.1771 202.433 38.6671 202.6 38.0605 202.6ZM45.4773 201.03C45.4773 201.517 45.294 201.9 44.9273 202.18C44.5607 202.46 44.0507 202.6 43.3973 202.6C42.744 202.6 42.224 202.443 41.8373 202.13C41.4573 201.817 41.2407 201.39 41.1873 200.85H41.8573C41.8773 201.223 42.0273 201.52 42.3073 201.74C42.5873 201.96 42.9507 202.07 43.3973 202.07C43.8307 202.07 44.1673 201.99 44.4073 201.83C44.654 201.67 44.7773 201.44 44.7773 201.14C44.7773 200.88 44.694 200.683 44.5273 200.55C44.3607 200.41 44.0773 200.3 43.6773 200.22L42.9173 200.07C42.4173 199.977 42.0373 199.81 41.7773 199.57C41.5173 199.323 41.3873 199.01 41.3873 198.63C41.3873 198.337 41.4673 198.077 41.6273 197.85C41.794 197.623 42.0207 197.447 42.3073 197.32C42.6007 197.193 42.9373 197.13 43.3173 197.13C43.724 197.13 44.0773 197.2 44.3773 197.34C44.684 197.473 44.9273 197.667 45.1073 197.92C45.2873 198.173 45.3873 198.477 45.4073 198.83H44.7473C44.714 198.463 44.5707 198.18 44.3173 197.98C44.064 197.773 43.7307 197.67 43.3173 197.67C42.944 197.67 42.6407 197.75 42.4073 197.91C42.1807 198.07 42.0673 198.29 42.0673 198.57C42.0673 198.83 42.1507 199.03 42.3173 199.17C42.4907 199.31 42.774 199.417 43.1673 199.49L43.9573 199.64C44.4773 199.74 44.8607 199.903 45.1073 200.13C45.354 200.357 45.4773 200.657 45.4773 201.03ZM48.3934 199.86C48.3934 199.32 48.4868 198.847 48.6734 198.44C48.8668 198.027 49.1368 197.707 49.4834 197.48C49.8301 197.247 50.2401 197.13 50.7134 197.13C51.1068 197.13 51.4634 197.237 51.7834 197.45C52.1034 197.657 52.3501 197.95 52.5234 198.33V195.32H53.2234V202.5H52.5734V201.39C52.3868 201.77 52.1301 202.067 51.8034 202.28C51.4834 202.493 51.1201 202.6 50.7134 202.6C50.2401 202.6 49.8301 202.487 49.4834 202.26C49.1368 202.027 48.8668 201.703 48.6734 201.29C48.4868 200.877 48.3934 200.4 48.3934 199.86ZM49.1034 199.86C49.1034 200.533 49.2601 201.057 49.5734 201.43C49.8868 201.803 50.3001 201.99 50.8134 201.99C51.1601 201.99 51.4601 201.903 51.7134 201.73C51.9734 201.557 52.1734 201.31 52.3134 200.99C52.4601 200.663 52.5334 200.28 52.5334 199.84C52.5334 199.4 52.4568 199.023 52.3034 198.71C52.1568 198.397 51.9534 198.157 51.6934 197.99C51.4401 197.823 51.1468 197.74 50.8134 197.74C50.3001 197.74 49.8868 197.927 49.5734 198.3C49.2601 198.673 49.1034 199.193 49.1034 199.86ZM57.9805 202.5V201.54C57.8271 201.867 57.5971 202.127 57.2905 202.32C56.9838 202.507 56.6238 202.6 56.2105 202.6C55.6638 202.6 55.2271 202.46 54.9005 202.18C54.5738 201.893 54.4105 201.513 54.4105 201.04C54.4105 200.527 54.6138 200.14 55.0205 199.88C55.4271 199.613 56.0305 199.48 56.8305 199.48C56.9905 199.48 57.1471 199.483 57.3005 199.49C57.4538 199.497 57.6571 199.513 57.9105 199.54V199.09C57.9105 198.65 57.7971 198.307 57.5705 198.06C57.3505 197.813 57.0405 197.69 56.6405 197.69C56.2138 197.69 55.8738 197.817 55.6205 198.07C55.3671 198.317 55.2371 198.653 55.2305 199.08H54.5905C54.5971 198.687 54.6871 198.347 54.8605 198.06C55.0338 197.767 55.2705 197.54 55.5705 197.38C55.8771 197.213 56.2305 197.13 56.6305 197.13C57.2505 197.13 57.7305 197.3 58.0705 197.64C58.4105 197.98 58.5805 198.457 58.5805 199.07V202.5H57.9805ZM55.0805 201.02C55.0805 201.34 55.1938 201.6 55.4205 201.8C55.6471 201.993 55.9438 202.09 56.3105 202.09C56.8038 202.09 57.1938 201.943 57.4805 201.65C57.7671 201.35 57.9105 200.953 57.9105 200.46V199.99C57.6838 199.97 57.4871 199.957 57.3205 199.95C57.1605 199.943 57.0071 199.94 56.8605 199.94C56.2671 199.94 55.8205 200.03 55.5205 200.21C55.2271 200.383 55.0805 200.653 55.0805 201.02ZM64.7328 202.5H63.9928V195.99H61.5828V195.32H67.1428V195.99H64.7328V202.5ZM72.4598 201.85V202.5H68.1498V195.32H72.3898V195.97H68.8998V198.47H72.0898V199.12H68.8998V201.85H72.4598ZM76.953 202.65C76.453 202.65 75.9896 202.557 75.563 202.37C75.1363 202.177 74.763 201.91 74.443 201.57C74.1296 201.23 73.883 200.833 73.703 200.38C73.5296 199.92 73.443 199.427 73.443 198.9C73.443 198.373 73.5296 197.883 73.703 197.43C73.883 196.977 74.1296 196.583 74.443 196.25C74.763 195.91 75.1363 195.647 75.563 195.46C75.9896 195.267 76.453 195.17 76.953 195.17C77.5196 195.17 78.043 195.29 78.523 195.53C79.003 195.763 79.403 196.097 79.723 196.53C80.0496 196.957 80.2596 197.457 80.353 198.03H79.563C79.4896 197.603 79.3296 197.227 79.083 196.9C78.8363 196.567 78.5296 196.307 78.163 196.12C77.803 195.933 77.3996 195.84 76.953 195.84C76.553 195.84 76.1863 195.917 75.853 196.07C75.5196 196.223 75.2296 196.437 74.983 196.71C74.7363 196.983 74.5463 197.307 74.413 197.68C74.2796 198.053 74.213 198.46 74.213 198.9C74.213 199.347 74.2796 199.757 74.413 200.13C74.5463 200.503 74.7363 200.83 74.983 201.11C75.2296 201.383 75.5196 201.597 75.853 201.75C76.1863 201.903 76.553 201.98 76.953 201.98C77.3996 201.98 77.8063 201.887 78.173 201.7C78.5396 201.507 78.843 201.243 79.083 200.91C79.3296 200.577 79.4896 200.2 79.563 199.78H80.353C80.2596 200.347 80.053 200.847 79.733 201.28C79.413 201.713 79.0096 202.05 78.523 202.29C78.043 202.53 77.5196 202.65 76.953 202.65ZM85.9378 200.89H85.0278V202.5H84.3378V200.89H81.0478V200.42L84.5378 195.74H85.0278V200.28H85.9378V200.89ZM81.8578 200.28H84.3378V196.88L81.8578 200.28ZM92.4033 195.32V200.04C92.4033 200.573 92.2933 201.037 92.0733 201.43C91.8599 201.823 91.5566 202.127 91.1633 202.34C90.7699 202.547 90.3099 202.65 89.7833 202.65C89.2499 202.65 88.7866 202.547 88.3933 202.34C87.9999 202.127 87.6933 201.823 87.4733 201.43C87.2599 201.037 87.1533 200.573 87.1533 200.04V195.32H87.9033V200.08C87.9033 200.467 87.9833 200.803 88.1433 201.09C88.3033 201.377 88.5233 201.597 88.8033 201.75C89.0833 201.903 89.4099 201.98 89.7833 201.98C90.1566 201.98 90.4833 201.903 90.7633 201.75C91.0433 201.597 91.2599 201.377 91.4133 201.09C91.5733 200.803 91.6533 200.467 91.6533 200.08V195.32H92.4033Z" fill="#1E1E1E"/>
<defs>
<linearGradient id="paint0_linear_599_323" x1="111.5" y1="81" x2="111.5" y2="168" gradientUnits="userSpaceOnUse">
<stop stop-color="#E61755"/>
<stop offset="1" stop-color="#8454F4"/>
</linearGradient>
<linearGradient id="paint1_linear_599_323" x1="141.5" y1="67" x2="141.5" y2="168" gradientUnits="userSpaceOnUse">
<stop stop-color="#E61755"/>
<stop offset="1" stop-color="#8454F4"/>
</linearGradient>
<linearGradient id="paint2_linear_599_323" x1="171.5" y1="30" x2="171.5" y2="168" gradientUnits="userSpaceOnUse">
<stop stop-color="#E61755"/>
<stop offset="1" stop-color="#8454F4"/>
</linearGradient>
<linearGradient id="paint3_linear_599_323" x1="201.5" y1="36" x2="201.5" y2="168" gradientUnits="userSpaceOnUse">
<stop stop-color="#E61755"/>
<stop offset="1" stop-color="#8454F4"/>
</linearGradient>
<linearGradient id="paint4_linear_599_323" x1="231.5" y1="17" x2="231.5" y2="168" gradientUnits="userSpaceOnUse">
<stop stop-color="#E61755"/>
<stop offset="1" stop-color="#8454F4"/>
</linearGradient>
<linearGradient id="paint5_linear_599_323" x1="148" y1="191" x2="148" y2="207" gradientUnits="userSpaceOnUse">
<stop stop-color="#E61755"/>
<stop offset="1" stop-color="#8454F4"/>
</linearGradient>
</defs>
</svg>
