<svg width="130" height="32" viewBox="0 0 130 32" fill="none" xmlns="http://www.w3.org/2000/svg">
<g opacity="0.4">
<path d="M15.1541 30.1191L14.6332 31.5692H13.9387L15.8119 26.5854H16.5749L18.3796 31.5692H17.6435L17.152 30.1191H15.1541ZM16.9099 29.5224L16.1738 27.3289H16.1591L15.3619 29.5224H16.9099Z" fill="#1E1E1E"/>
<path d="M22.451 30.9725H24.9771V31.5692H21.7786V26.5854H22.451V30.9725Z" fill="#1E1E1E"/>
<path d="M27.222 26.5854H31.2692V27.1821H29.5819V31.5692H28.9069V27.1821H27.222V26.5854Z" fill="#1E1E1E"/>
<path d="M34.6219 30.1191L34.101 31.5692H33.4065L35.2797 26.5854H36.0426L37.8473 31.5692H37.1113L36.6173 30.1191H34.6194H34.6219ZM36.3777 29.5224L35.6416 27.3289H35.6269L34.8297 29.5224H36.3777Z" fill="#1E1E1E"/>
<path d="M46.6948 31.5692H46.0223V26.5854H48.2648C49.1891 26.5854 49.7442 27.1821 49.7442 27.9867C49.7442 28.6812 49.3481 29.4661 48.2648 29.4661H46.6973V31.5692H46.6948ZM46.6948 28.889H48.0349C48.6389 28.889 49.0473 28.6665 49.0473 27.994C49.0473 27.3631 48.6169 27.1601 48.0618 27.1601H46.6948V28.889Z" fill="#1E1E1E"/>
<path d="M57.1096 31.5692H53.4293V26.5854H57.0607V27.1821H54.1043V28.7105H56.8309V29.3072H54.1043V30.9725H57.1096V31.5692Z" fill="#1E1E1E"/>
<path d="M61.5261 31.5692H60.8536V26.5854H63.1572C63.9764 26.5854 64.7956 26.8691 64.7956 27.9255C64.7956 28.6616 64.4215 28.933 64.1011 29.1189C64.3848 29.2363 64.6709 29.361 64.6978 30.0555L64.7394 30.9578C64.7467 31.2366 64.781 31.3393 64.9888 31.4567V31.5667H64.1623C64.0645 31.2611 64.0449 30.5054 64.0449 30.3171C64.0449 29.9063 63.9617 29.4295 63.1572 29.4295H61.5261V31.5667V31.5692ZM61.5261 28.8548H63.0887C63.5803 28.8548 64.1011 28.7301 64.1011 27.994C64.1011 27.2579 63.5387 27.1601 63.2061 27.1601H61.5261V28.8523V28.8548Z" fill="#1E1E1E"/>
<path d="M69.3025 31.5692H68.6276V26.5854H72.078V27.1821H69.3025V28.7105H71.7454V29.3072H69.3025V31.5692Z" fill="#1E1E1E"/>
<path d="M79.5219 26.5854V29.8207C79.5219 30.8404 78.8837 31.7012 77.5167 31.7012C76.1497 31.7012 75.6019 30.8404 75.6019 29.9112V26.5854H76.2744V29.7229C76.2744 30.8062 76.9347 31.1046 77.5387 31.1046C78.1427 31.1046 78.8494 30.8209 78.8494 29.7376V26.5854H79.5219Z" fill="#1E1E1E"/>
<path d="M87.4694 31.5692V28.6249C87.4694 28.4782 87.4841 27.8473 87.4841 27.3827H87.4694L86.0682 31.5692H85.4006L83.9994 27.39H83.9847C83.9847 27.8473 83.9994 28.4806 83.9994 28.6249V31.5692H83.3464V26.5854H84.3124L85.7356 30.7989H85.7503L87.1662 26.5854H88.1248V31.5692H87.4718H87.4694Z" fill="#1E1E1E"/>
<path d="M92.7123 30.1191L92.1914 31.5692H91.4969L93.3701 26.5854H94.1331L95.9378 31.5692H95.2017L94.7078 30.1191H92.7099H92.7123ZM94.4681 29.5224L93.732 27.3289H93.7174L92.9177 29.5224H94.4657H94.4681Z" fill="#1E1E1E"/>
<path d="M100.093 31.5692H99.42V26.5854H101.724C102.543 26.5854 103.362 26.8691 103.362 27.9255C103.362 28.6616 102.988 28.933 102.668 29.1189C102.951 29.2363 103.237 29.361 103.264 30.0555L103.306 30.9578C103.313 31.2366 103.347 31.3393 103.555 31.4567V31.5667H102.729C102.631 31.2611 102.611 30.5054 102.611 30.3171C102.611 29.9063 102.528 29.4295 101.724 29.4295H100.093V31.5667V31.5692ZM100.093 28.8548H101.655C102.149 28.8548 102.668 28.7301 102.668 27.994C102.668 27.2579 102.105 27.1601 101.773 27.1601H100.093V28.8523V28.8548Z" fill="#1E1E1E"/>
<path d="M107.903 26.5854H107.231V31.5692H107.903V26.5854Z" fill="#1E1E1E"/>
<path d="M112.618 30.1191L112.097 31.5692H111.403L113.276 26.5854H114.039L115.843 31.5692H115.107L114.613 30.1191H112.616H112.618ZM114.374 29.5224L113.638 27.3289H113.623L112.823 29.5224H114.371H114.374Z" fill="#1E1E1E"/>
<path d="M6.0328 9.4064L4.21832 8.62143C2.34758 7.80222 1.54794 6.77515 1.54794 5.1832C1.54794 3.07526 3.08365 1.65693 5.36765 1.65693C6.7004 1.65693 7.79594 2.20959 8.62493 3.29779L8.71052 3.41028L9.50772 2.64487L9.43925 2.55439C8.46353 1.30479 7.06476 0.64209 5.39455 0.64209C2.57012 0.64209 0.440172 2.61308 0.440172 5.22966C0.440172 7.84624 2.2351 8.90999 3.80015 9.60937L5.61464 10.4188C7.53917 11.2796 8.65427 12.1942 8.65427 14.3241C8.65427 16.1166 7.37533 18.046 4.56312 18.046C3.10321 18.046 1.87318 17.4836 0.907244 16.3733L0.821655 16.2755L0 17.0336L0.0782528 17.1265C1.4648 18.7429 3.22793 19.0829 4.46286 19.0829C7.03053 19.0829 9.75959 17.3882 9.75959 14.2507C9.75959 11.5632 8.2679 10.3699 6.03036 9.40396" fill="#1E1E1E"/>
<path d="M28.616 1.06992L28.5794 1.01367H27.5376L27.5009 1.06992C23.9893 6.35198 22.4487 13.1722 21.5024 18.5203L21.4755 18.667H22.5661L22.5832 18.5619C22.9256 16.4148 23.4147 14.1235 24.0016 11.9275H32.0934C32.6778 14.0746 33.1449 16.3048 33.4873 18.5619L33.5044 18.6695H34.6684L34.6415 18.5227C33.6413 12.8739 32.1423 6.38377 28.616 1.07236M31.7755 10.8466H24.2901C25.2903 7.36193 26.5546 4.39566 28.0438 2.02607C29.4597 4.33208 30.7142 7.29591 31.773 10.8466" fill="#1E1E1E"/>
<path d="M59.2471 16.9653C58.7971 16.1828 57.9804 14.9137 57.0022 13.4709L48.6071 1.11182H47.4333V18.6673H48.4947V2.75757C48.7514 3.2222 49.2087 3.9656 50.2505 5.49887L59.1982 18.6135L59.2349 18.6673H60.3108V1.11182H59.2495V16.9653H59.2471Z" fill="#1E1E1E"/>
<path d="M72.511 2.17312H78.4924V18.6698H79.6002V2.17312H85.7039V1.11182H72.511V2.17312Z" fill="#1E1E1E"/>
<path d="M101.619 1.06992L101.582 1.01367H100.54L100.503 1.06992C96.9919 6.35198 95.4513 13.1698 94.5049 18.5203L94.478 18.667H95.5687L95.5858 18.5619C95.9281 16.4148 96.4172 14.121 97.0041 11.9275H105.096C105.68 14.0746 106.147 16.3048 106.49 18.5619L106.507 18.6695H107.671L107.644 18.5227C106.703 13.204 105.167 6.41556 101.619 1.07236M104.778 10.8466H97.2951C98.2953 7.36193 99.5571 4.39566 101.049 2.02607C102.465 4.33208 103.719 7.29591 104.778 10.8466Z" fill="#1E1E1E"/>
<path d="M121.544 17.584V1.11182H120.434V18.6698H130V17.584H121.544Z" fill="#1E1E1E"/>
</g>
</svg>
