<svg width="75" height="75" viewBox="0 0 75 75" fill="none" xmlns="http://www.w3.org/2000/svg">
<path d="M75 37.5002C75 58.2109 58.2107 75.0003 37.5 75.0003C16.7894 75.0003 4.10104e-05 58.2109 4.10104e-05 37.5002C4.10104e-05 16.7896 16.7894 0.000248777 37.5 0.000248777C58.2107 0.000248777 75 16.7896 75 37.5002Z" fill="#E5FAEF"/>
<path d="M14.0815 11.9324C13.0265 10.7806 11.2286 10.6952 10.1595 11.834C4.72251 17.6255 1.24725 25.0157 0.277272 32.949C-0.80749 41.8211 1.31239 50.7889 6.25488 58.2362C11.1974 65.6835 18.6374 71.1206 27.2341 73.5675C35.8308 76.0144 45.0188 75.3102 53.1423 71.5819C61.2657 67.8536 67.7903 61.3463 71.5402 53.2328C75.2901 45.1193 76.0187 35.9331 73.5947 27.33C71.1706 18.7268 65.7533 11.2723 58.3192 6.31007C51.6716 1.87291 43.8024 -0.310642 35.8662 0.0356378C34.3058 0.103725 33.1982 1.52255 33.3837 3.07344C33.5691 4.62434 34.9776 5.718 36.5388 5.67082C43.1331 5.47155 49.6531 7.32615 55.1789 11.0146C61.4918 15.2284 66.0919 21.5584 68.1504 28.864C70.2088 36.1695 69.5901 43.97 66.4058 50.8597C63.2215 57.7495 57.6811 63.2752 50.7829 66.4412C43.8847 69.6072 36.0826 70.2051 28.7826 68.1273C21.4825 66.0495 15.1647 61.4325 10.9677 55.1085C6.77074 48.7845 4.97061 41.1693 5.89175 33.6354C6.69805 27.0408 9.543 20.8881 13.9936 16.0182C15.0473 14.8652 15.1365 13.0842 14.0815 11.9324Z" fill="#00CC66"/>
<path d="M22.9917 30.1673C24.1612 30.1673 25.1865 30.4027 26.0675 30.8736C26.9637 31.3293 27.6624 31.9445 28.1636 32.7191C28.68 33.4938 28.9383 34.3443 28.9383 35.2709C28.9383 35.8937 28.8699 36.4632 28.7332 36.9797C28.5965 37.4961 28.3838 38.0125 28.0953 38.529C27.8067 39.0302 27.4117 39.5694 26.9105 40.1466L22.2854 45.7515H18.7083L23.1284 40.3517C22.9917 40.3973 22.8626 40.4276 22.741 40.4428C22.6195 40.458 22.4904 40.4656 22.3537 40.4656C21.3057 40.4656 20.3791 40.253 19.5741 39.8277C18.7843 39.4024 18.1615 38.8176 17.7058 38.0733C17.2501 37.3138 17.0223 36.4481 17.0223 35.4759C17.0223 34.4886 17.2729 33.5925 17.7742 32.7875C18.2754 31.9824 18.9741 31.3445 19.8703 30.8736C20.7816 30.4027 21.8221 30.1673 22.9917 30.1673ZM22.9689 32.8102C22.4828 32.8102 22.0347 32.909 21.6246 33.1064C21.2297 33.3039 20.9107 33.5925 20.6677 33.9722C20.4247 34.3519 20.3032 34.8152 20.3032 35.362C20.3032 35.9392 20.4247 36.4253 20.6677 36.8202C20.9107 37.2151 21.2297 37.5113 21.6246 37.7088C22.0347 37.891 22.4828 37.9822 22.9689 37.9822C23.6828 37.9822 24.3055 37.7771 24.8372 37.367C25.3688 36.9417 25.6346 36.281 25.6346 35.3848C25.6346 34.8228 25.5055 34.3519 25.2473 33.9722C25.0042 33.5925 24.6777 33.3039 24.2676 33.1064C23.8726 32.909 23.4398 32.8102 22.9689 32.8102ZM30.6049 38.0733C30.6049 35.5215 31.1213 33.5621 32.1542 32.1951C33.187 30.8129 34.6528 30.1217 36.5514 30.1217C38.4501 30.1217 39.9159 30.8129 40.9487 32.1951C41.9968 33.5621 42.5208 35.5215 42.5208 38.0733C42.5208 40.6099 42.0044 42.5617 40.9715 43.9288C39.9538 45.2958 38.4805 45.9793 36.5514 45.9793C34.6376 45.9793 33.1642 45.2958 32.1314 43.9288C31.1137 42.5617 30.6049 40.6099 30.6049 38.0733ZM33.8629 38.0733C33.8629 39.7289 34.0908 40.9896 34.5465 41.8554C35.0021 42.7212 35.6705 43.1541 36.5514 43.1541C37.4324 43.1541 38.1007 42.7212 38.5564 41.8554C39.0273 40.9896 39.2627 39.7289 39.2627 38.0733C39.2627 36.4025 39.0273 35.1342 38.5564 34.2684C38.1007 33.3874 37.4324 32.9469 36.5514 32.9469C35.6857 32.9469 35.0173 33.3874 34.5465 34.2684C34.0908 35.1342 33.8629 36.4025 33.8629 38.0733Z" fill="#00B34E"/>
<path d="M50.9766 40.7827C51.7275 40.7827 52.373 40.9876 52.9129 41.3975C53.468 41.8074 53.8854 42.3676 54.1653 43.0779C54.4452 43.7883 54.5852 44.6185 54.5852 45.5686C54.5852 46.5187 54.4452 47.3489 54.1653 48.0593C53.8854 48.7696 53.468 49.3299 52.9129 49.7398C52.373 50.1497 51.7275 50.3546 50.9766 50.3546C50.256 50.3546 49.6257 50.1648 49.0858 49.7854C48.5459 49.3907 48.1285 48.853 47.8334 48.1731L47.7117 51.0423H44.4176V35.1217H47.8334V43.1387C48.1133 42.4284 48.5231 41.8683 49.0629 41.4584C49.6181 41.0181 50.2712 40.7827 50.9766 40.7827ZM50.0111 43.7579C49.4559 43.7579 49.0096 43.9856 48.672 44.4411C48.3345 44.8813 48.1589 45.4947 48.1437 46.2811V46.5798C48.1437 47.3662 48.3193 47.9796 48.6568 48.4351C48.9943 48.8906 49.4407 49.1182 50.0111 49.1182C50.5207 49.1182 50.9138 48.8981 51.1785 48.4579C51.4584 48.0177 51.5954 47.3966 51.5954 46.5798C51.5954 45.7629 51.4584 45.1419 51.1785 44.7017C50.899 44.2615 50.506 44.0415 50.0111 44.0415V43.7579Z" fill="#00B34E"/>
</svg>
