<svg width="106" height="17" viewBox="0 0 106 17" fill="none" xmlns="http://www.w3.org/2000/svg">
<path d="M9.875 0.5625L11.9062 4.71875L16.375 5.375C16.75 5.4375 17.0625 5.6875 17.1875 6.0625C17.3125 6.40625 17.2188 6.8125 16.9375 7.0625L13.6875 10.2812L14.4688 14.8438C14.5312 15.2188 14.375 15.5938 14.0625 15.8125C13.75 16.0625 13.3438 16.0625 13 15.9062L9 13.75L4.96875 15.9062C4.65625 16.0625 4.25 16.0625 3.9375 15.8125C3.625 15.5938 3.46875 15.2188 3.53125 14.8438L4.28125 10.2812L1.03125 7.0625C0.78125 6.8125 0.6875 6.40625 0.78125 6.0625C0.90625 5.6875 1.21875 5.4375 1.59375 5.375L6.09375 4.71875L8.09375 0.5625C8.25 0.21875 8.59375 0 9 0C9.375 0 9.71875 0.21875 9.875 0.5625Z" fill="#02CAF6"/>
<path d="M31.875 0.5625L33.9062 4.71875L38.375 5.375C38.75 5.4375 39.0625 5.6875 39.1875 6.0625C39.3125 6.40625 39.2188 6.8125 38.9375 7.0625L35.6875 10.2812L36.4688 14.8438C36.5312 15.2188 36.375 15.5938 36.0625 15.8125C35.75 16.0625 35.3438 16.0625 35 15.9062L31 13.75L26.9688 15.9062C26.6562 16.0625 26.25 16.0625 25.9375 15.8125C25.625 15.5938 25.4688 15.2188 25.5312 14.8438L26.2812 10.2812L23.0312 7.0625C22.7812 6.8125 22.6875 6.40625 22.7812 6.0625C22.9062 5.6875 23.2188 5.4375 23.5938 5.375L28.0938 4.71875L30.0938 0.5625C30.25 0.21875 30.5938 0 31 0C31.375 0 31.7188 0.21875 31.875 0.5625Z" fill="#02CAF6"/>
<path d="M53.875 0.5625L55.9062 4.71875L60.375 5.375C60.75 5.4375 61.0625 5.6875 61.1875 6.0625C61.3125 6.40625 61.2188 6.8125 60.9375 7.0625L57.6875 10.2812L58.4688 14.8438C58.5312 15.2188 58.375 15.5938 58.0625 15.8125C57.75 16.0625 57.3438 16.0625 57 15.9062L53 13.75L48.9688 15.9062C48.6562 16.0625 48.25 16.0625 47.9375 15.8125C47.625 15.5938 47.4688 15.2188 47.5312 14.8438L48.2812 10.2812L45.0312 7.0625C44.7812 6.8125 44.6875 6.40625 44.7812 6.0625C44.9062 5.6875 45.2188 5.4375 45.5938 5.375L50.0938 4.71875L52.0938 0.5625C52.25 0.21875 52.5938 0 53 0C53.375 0 53.7188 0.21875 53.875 0.5625Z" fill="#02CAF6"/>
<path d="M75.875 0.5625L77.9062 4.71875L82.375 5.375C82.75 5.4375 83.0625 5.6875 83.1875 6.0625C83.3125 6.40625 83.2188 6.8125 82.9375 7.0625L79.6875 10.2812L80.4688 14.8438C80.5312 15.2188 80.375 15.5938 80.0625 15.8125C79.75 16.0625 79.3438 16.0625 79 15.9062L75 13.75L70.9688 15.9062C70.6562 16.0625 70.25 16.0625 69.9375 15.8125C69.625 15.5938 69.4688 15.2188 69.5312 14.8438L70.2812 10.2812L67.0312 7.0625C66.7812 6.8125 66.6875 6.40625 66.7812 6.0625C66.9062 5.6875 67.2188 5.4375 67.5938 5.375L72.0938 4.71875L74.0938 0.5625C74.25 0.21875 74.5938 0 75 0C75.375 0 75.7188 0.21875 75.875 0.5625Z" fill="#02CAF6"/>
<path d="M97.875 0.5625L99.9062 4.71875L104.375 5.375C104.75 5.4375 105.062 5.6875 105.188 6.0625C105.312 6.40625 105.219 6.8125 104.938 7.0625L101.688 10.2812L102.469 14.8438C102.531 15.2188 102.375 15.5938 102.062 15.8125C101.75 16.0625 101.344 16.0625 101 15.9062L97 13.75L92.9688 15.9062C92.6562 16.0625 92.25 16.0625 91.9375 15.8125C91.625 15.5938 91.4688 15.2188 91.5312 14.8438L92.2812 10.2812L89.0312 7.0625C88.7812 6.8125 88.6875 6.40625 88.7812 6.0625C88.9062 5.6875 89.2188 5.4375 89.5938 5.375L94.0938 4.71875L96.0938 0.5625C96.25 0.21875 96.5938 0 97 0C97.375 0 97.7188 0.21875 97.875 0.5625Z" fill="#02CAF6"/>
</svg>
