<svg width="125" height="60" viewBox="0 0 125 60" fill="none" xmlns="http://www.w3.org/2000/svg">
<path d="M60.6323 29.5745C59.5985 30.9047 58.2966 33.6031 59.7133 34.7623C61.1301 35.9215 63.6382 34.4393 64.6912 33.1851C65.7442 31.9309 66.8547 29.5935 65.4571 28.1493C64.0594 26.705 61.8385 28.0162 60.6323 29.5745Z" fill="#1E1E1E" fill-opacity="0.4"/>
<path d="M109.55 35.1233C109.379 35.3385 109.263 35.5914 109.211 35.8606C109.159 36.1297 109.173 36.4073 109.252 36.6699C109.331 36.9326 109.472 37.1726 109.664 37.3697C109.855 37.5668 110.092 37.7153 110.354 37.8027C113.119 38.6021 116.069 38.509 118.778 37.5367C120.764 37.0299 122.551 35.9444 123.909 34.4202C123.968 34.3163 124.019 34.2083 124.062 34.0971C120.999 33.8881 117.131 33.7171 114.106 33.6791C113.286 33.5619 112.45 33.631 111.661 33.8812C110.872 34.1314 110.15 34.5561 109.55 35.1233Z" fill="#1E1E1E" fill-opacity="0.4"/>
<path d="M123.967 28.4342C121.248 26.895 112.575 27.9591 109.799 28.4342L112.077 25.1277C115.872 24.5016 119.732 24.3548 123.565 24.6906C121.305 20.586 116.136 16.4623 107.999 12.8327C98.4262 8.53804 85.0242 4.94647 69.4204 2.57109C37.7533 -2.06565 10.9301 0.366737 3.6739 3.61625C-4.80766 6.90378 8.03913 13.8589 18.1672 20.0539C23.6993 23.4672 28.9721 27.2779 33.9433 31.4557V26.7619L36.26 26.6479V33.432L40.9124 26.0968L43.9182 25.7928L37.7342 34.8192C41.1721 37.9818 44.1607 41.5938 46.6178 45.5559C51.2511 53.4422 51.3468 54.3733 52.687 56.6917C54.4867 59.8082 57.4351 60.4923 64.3468 59.6942C76.4367 58.4767 88.3057 55.645 99.6323 51.2758C107.999 48.0073 115.715 43.8837 120.386 39.1709C119.831 39.3989 118.874 39.684 118.472 39.798C115.655 40.6291 112.713 40.9636 109.78 40.7862C107.061 40.6911 100.207 39.3229 102.581 35.0853C103.391 33.9484 104.456 33.0135 105.692 32.3541C106.928 31.6946 108.301 31.3286 109.703 31.2847C114.722 30.9046 119.766 30.9809 124.771 31.5127C124.845 31.1622 124.89 30.8063 124.905 30.4485C124.94 30.0606 124.872 29.6704 124.707 29.3169C124.542 28.9634 124.287 28.659 123.967 28.4342ZM116.098 20.1869C117.38 21.6121 118.012 22.3342 119.41 23.7595L112.843 23.5314C111.522 22.2392 110.928 21.6311 109.588 20.3009L116.098 20.1869ZM89.2936 21.3271L95.0374 20.985L93.2185 23.3604L87.762 23.5694L89.2936 21.3271ZM48.6855 36.3585C46.2923 37.4416 42.5398 38.0877 41.391 35.6173C41.0405 34.5133 40.9796 33.3387 41.2142 32.2048C41.4487 31.0708 41.9708 30.015 42.7312 29.1373C43.3486 28.2839 44.1504 27.5782 45.0779 27.0718C46.0054 26.5655 47.0352 26.2713 48.092 26.2108C48.092 26.2108 51.1936 26.0208 51.5574 28.6432C51.6538 29.9328 51.3462 31.2205 50.6767 32.3298L43.5736 32.6339C42.9993 34.7622 44.5118 35.1993 45.6797 35.2183C47.0041 35.0869 48.2977 34.7402 49.5088 34.1921L48.6855 36.3585ZM52.821 37.1186H49.8534L55.5972 23.3604L58.9668 22.9613L52.821 37.1186ZM69.1906 35.2183C68.8652 34.4763 68.7146 33.6704 68.7503 32.8619C67.9716 34.1571 66.8935 35.2497 65.6051 36.0494C64.3167 36.8491 62.855 37.3328 61.3409 37.4606C57.684 37.7267 55.1377 35.5603 56.1141 31.7597C56.6935 29.9304 57.8288 28.3238 59.3645 27.1603C60.9001 25.9967 62.7608 25.3332 64.6914 25.2607C67.6973 25.1467 69.8416 26.7239 69.765 29.4224C70.2073 28.6386 70.7765 27.9324 71.4498 27.332C75.279 23.7595 79.7016 23.5314 84.9859 24.6716L83.2819 27.237C81.6355 26.5628 79.8135 26.4353 78.0881 26.8737C76.3627 27.3121 74.8265 28.2929 73.709 29.6694C70.3011 34.0401 75.8342 35.9784 79.2804 34.3441L77.7105 37.0996C75.1067 37.8787 70.5691 38.4108 69.1906 35.2943V35.2183ZM78.7635 37.7457C81.463 33.394 84.2009 29.0803 87.0153 24.7856L92.4336 24.5576L83.4351 38.0117L78.7635 37.7457ZM107.999 27.408L102.045 27.275C100.36 29.5744 97.4306 33.489 96.9902 34.1541C96.7796 34.4772 95.7266 36.3205 97.7752 36.4155C99.0532 36.4627 100.333 36.4182 101.604 36.2824L99.8238 38.8288C97.2774 39.1139 92.9888 39.646 91.1699 38.0307C89.6574 36.6815 90.8445 34.4772 91.1699 33.9641C92.7399 31.6647 94.4247 29.3653 96.033 27.028H91.8592L93.7738 24.4246L97.7178 24.4816L100.456 20.681C102.677 20.5669 104.917 20.4719 107.137 20.3959C106.008 22.0112 105.414 22.8093 104.266 24.4246C106.18 24.4246 108.248 24.4246 110.258 24.4246L107.999 27.408Z" fill="#1E1E1E" fill-opacity="0.4"/>
<path d="M47.2686 28.2251C45.354 28.2251 44.2819 30.7145 44.2819 30.7145L48.7045 30.5244C49.0109 29.5743 49.164 28.1871 47.2686 28.2251Z" fill="#1E1E1E" fill-opacity="0.4"/>
</svg>
