<svg width="137" height="21" viewBox="0 0 137 21" fill="none" xmlns="http://www.w3.org/2000/svg">
<g opacity="0.4">
<path d="M28.3599 0.770996H25.8715V19.433H28.3599V0.770996Z" fill="#1E1E1E"/>
<path d="M120.466 19.433H117.978V8.53171C117.978 6.96141 117.403 5.60848 116.248 4.47293C115.097 3.33738 113.75 2.76961 112.216 2.76961C110.681 2.76961 109.302 3.33738 108.15 4.47293C106.998 5.60848 106.421 6.96141 106.421 8.53171V19.433H103.932V8.79127C103.932 6.36768 104.718 4.35613 106.288 2.75014C107.858 1.14739 109.834 0.342773 112.212 0.342773C114.59 0.342773 116.534 1.14415 118.104 2.75014C119.678 4.35289 120.46 6.36768 120.46 8.79127V19.4297" fill="#1E1E1E"/>
<path d="M18.4514 0.758301H15.6482L9.41569 15.9325L3.15719 0.758301H0.5L8.1601 19.4332C8.1601 19.4332 8.57538 20.1989 9.40596 20.1989C10.1716 20.1989 10.6518 19.4332 10.6518 19.4332L10.7167 19.2743H10.72L18.4514 0.758301Z" fill="#1E1E1E"/>
<path d="M95.8538 10.9746V6.95795C95.8538 4.97236 95.2438 3.44423 94.0207 2.37357C92.7975 1.30291 91.2369 0.767578 89.339 0.767578H85.1017C83.2005 0.767578 81.6432 1.30291 80.42 2.37357C79.1969 3.44423 78.5869 4.97236 78.5869 6.95795V13.2424C78.5869 15.228 79.1969 16.7561 80.42 17.8235C81.6432 18.8942 83.2037 19.4295 85.1017 19.4295H89.339C91.2402 19.4295 92.7975 18.8942 94.0207 17.8235C95.0362 16.9346 95.6234 15.7212 95.7954 14.1995H93.3101C93.1739 14.8938 92.7813 15.5881 92.1194 16.2857C91.5938 16.808 90.6757 17.0708 89.3617 17.0708H85.079C83.765 17.0708 82.8469 16.808 82.3213 16.2889C81.4907 15.4194 81.0721 14.5499 81.0721 13.6804V6.52968C81.0721 5.65693 81.4874 4.78418 82.3213 3.91143C82.8469 3.38908 83.765 3.12628 85.079 3.12628H89.3617C90.6757 3.12628 91.5938 3.38908 92.1194 3.91143C92.95 4.78094 93.3653 5.65044 93.3653 6.51995V8.55096H84.1381V10.9746H93.3653H95.8538Z" fill="#1E1E1E"/>
<path d="M60.204 15.9515H67.3969V9.375L60.204 15.9515Z" fill="#1E1E1E"/>
<path d="M136.5 0.73877H125.368V2.76978H129.69V19.4332H132.178V2.76978H136.5V0.73877Z" fill="#1E1E1E"/>
<path d="M41.6361 15.9515H48.829V9.375L41.6361 15.9515Z" fill="#1E1E1E"/>
<path d="M52.5115 0.80344V0.770996H46.2108V3.09401H50.1658L37.2887 14.6669C36.682 15.2282 35.9812 15.8998 35.6535 16.3086C35.6275 16.3443 35.6016 16.3799 35.5756 16.4189C34.5536 17.8626 34.8845 19.4297 35.9649 19.4297H48.855V17.1067H38.2068L52.7321 3.78183C53.6957 2.41917 53.4459 0.962417 52.505 0.80344" fill="#1E1E1E"/>
<path d="M71.3032 3.78183C72.2668 2.41917 72.017 0.962417 71.0761 0.80344V0.770996H64.7786V3.09401H68.7336L55.4509 15.0335C55.0129 15.4488 54.5782 15.8771 54.3056 16.1918C54.2537 16.2631 54.2018 16.3378 54.1466 16.4189C53.1247 17.8626 53.4556 19.4297 54.536 19.4297H71.6536V17.1067H56.7779L71.3032 3.78183Z" fill="#1E1E1E"/>
</g>
</svg>
