<?xml version="1.0" standalone="no"?>
<!DOCTYPE svg PUBLIC "-//W3C//DTD SVG 20010904//EN"
 "http://www.w3.org/TR/2001/REC-SVG-20010904/DTD/svg10.dtd">
<svg version="1.0" xmlns="http://www.w3.org/2000/svg"
 width="237.000000pt" height="121.000000pt" viewBox="0 0 237.000000 121.000000"
 preserveAspectRatio="xMidYMid meet">

<g transform="translate(0.000000,121.000000) scale(0.100000,-0.100000)"
fill="#000000" stroke="none">
<path d="M1640 1025 l0 -146 -42 24 c-128 74 -279 23 -348 -116 -74 -151 -16
-349 123 -416 78 -38 212 -21 256 32 17 21 31 13 31 -19 0 -23 3 -24 65 -24
l65 0 0 405 0 405 -75 0 -75 0 0 -145z m-73 -226 c64 -24 73 -43 73 -154 0
-106 -4 -118 -50 -149 -31 -20 -111 -21 -149 -1 -38 19 -71 89 -71 149 0 118
96 194 197 155z"/>
<path d="M905 931 c-40 -10 -66 -25 -89 -50 -25 -27 -36 -27 -36 2 0 41 -13
48 -76 45 l-59 -3 -3 -282 -2 -283 75 0 75 0 0 188 0 188 28 26 c77 72 159 63
182 -20 5 -20 10 -115 10 -209 l0 -173 76 0 76 0 -4 208 c-3 198 -5 209 -29
257 -43 85 -136 129 -224 106z"/>
<path d="M2015 925 c-33 -7 -77 -20 -98 -28 l-37 -16 16 -43 c10 -24 20 -46
23 -50 3 -4 31 2 61 12 30 11 79 19 108 20 46 0 58 -4 83 -29 19 -19 29 -40
29 -58 l0 -29 -92 0 c-166 0 -248 -58 -248 -174 1 -113 74 -180 198 -180 52 0
74 5 109 26 44 25 44 25 50 5 5 -19 13 -21 69 -21 l64 0 0 193 c0 230 -10 276
-69 330 -60 54 -147 68 -266 42z m154 -311 c30 -6 31 -8 31 -63 0 -56 -1 -58
-39 -79 -78 -44 -161 -14 -161 58 0 64 77 102 169 84z"/>
<path d="M27 923 c-2 -4 42 -132 98 -283 l103 -275 60 -3 c50 -2 62 0 70 15
12 23 222 542 222 549 0 3 -37 4 -82 2 l-82 -3 -54 -167 c-30 -93 -58 -168
-62 -168 -4 0 -32 75 -62 168 l-54 167 -76 3 c-42 2 -78 -1 -81 -5z"/>
<path d="M1470 170 c0 -82 3 -100 15 -100 12 0 15 18 15 100 0 82 -3 100 -15
100 -12 0 -15 -18 -15 -100z"/>
<path d="M1530 255 c0 -8 7 -15 15 -15 8 0 15 7 15 15 0 8 -7 15 -15 15 -8 0
-15 -7 -15 -15z"/>
<path d="M1010 157 l0 -84 37 -1 c62 -2 93 47 60 92 -10 14 -23 17 -45 14 -30
-4 -32 -3 -32 29 0 18 -4 33 -10 33 -6 0 -10 -34 -10 -83z m78 1 c31 -31 -3
-87 -42 -72 -19 7 -22 70 -3 77 21 9 32 8 45 -5z"/>
<path d="M1720 225 c0 -8 -4 -15 -10 -15 -5 0 -10 -7 -10 -15 0 -8 4 -15 9
-15 6 0 11 -24 13 -52 3 -52 4 -53 36 -56 35 -4 45 16 12 25 -16 4 -20 14 -20
44 0 32 3 39 20 39 11 0 20 7 20 15 0 8 -9 15 -20 15 -11 0 -20 7 -20 15 0 8
-7 15 -15 15 -8 0 -15 -7 -15 -15z"/>
<path d="M1326 189 c-50 -39 -22 -119 43 -119 33 0 71 39 71 72 0 24 -44 68
-68 68 -11 0 -31 -9 -46 -21z m73 -33 c26 -31 -27 -72 -56 -43 -21 21 -8 57
21 57 13 0 29 -6 35 -14z"/>
<path d="M1530 140 c0 -56 3 -70 15 -70 12 0 15 14 15 70 0 56 -3 70 -15 70
-12 0 -15 -14 -15 -70z"/>
<path d="M1602 198 c-21 -21 -13 -47 18 -63 38 -19 39 -37 3 -33 -20 2 -28 -2
-28 -12 0 -10 12 -16 37 -18 28 -2 39 1 47 17 15 26 7 43 -31 64 -32 19 -32
29 2 31 11 0 21 6 23 11 3 15 -56 18 -71 3z"/>
<path d="M1140 171 c0 -5 7 -26 16 -47 10 -23 14 -52 10 -73 -7 -47 7 -29 38
48 28 70 31 81 18 81 -5 0 -15 -19 -22 -42 l-13 -43 -13 30 c-7 17 -13 36 -14
43 0 13 -20 17 -20 3z"/>
</g>
</svg>
