<?xml version="1.0" standalone="no"?>
<!DOCTYPE svg PUBLIC "-//W3C//DTD SVG 20010904//EN"
 "http://www.w3.org/TR/2001/REC-SVG-20010904/DTD/svg10.dtd">
<svg version="1.0" xmlns="http://www.w3.org/2000/svg"
 width="41.000000pt" height="35.000000pt" viewBox="0 0 41.000000 35.000000"
 preserveAspectRatio="xMidYMid meet">

<g transform="translate(0.000000,35.000000) scale(0.100000,-0.100000)"
fill="#000000" stroke="none">
<path d="M47 327 c-3 -7 3 -28 13 -46 17 -33 17 -33 96 -35 93 -1 95 -5 43
-99 -29 -54 -32 -57 -48 -43 -9 9 -30 43 -46 76 -26 55 -32 60 -60 60 -17 0
-35 -3 -38 -7 -10 -9 95 -203 110 -203 8 0 19 11 25 25 15 33 21 32 41 -11 31
-63 49 -47 139 119 44 82 77 155 74 163 -8 20 -341 21 -349 1z"/>
</g>
</svg>
