<svg width="81" height="53" viewBox="0 0 81 53" fill="none" xmlns="http://www.w3.org/2000/svg">
<g opacity="0.4">
<path d="M65.6318 15.6028C65.6318 15.4936 65.6318 15.4127 65.6318 15.3317C65.6318 11.056 65.6399 6.78028 65.6257 2.50455C65.6217 1.4164 66.0596 0.649843 67.0807 0.265553C67.4157 0.140153 67.781 0.0673404 68.1382 0.030934C68.5458 -0.0095176 68.9615 -0.00749503 69.3712 0.0208211C69.8838 0.0552049 70.3923 0.144198 70.8585 0.382863C71.6172 0.773221 71.9321 1.4346 71.9865 2.25173C71.9926 2.34072 71.9906 2.42971 71.9906 2.51871C71.9906 14.6603 71.9906 26.7998 71.9906 38.9413V39.2043C71.8856 39.2043 71.7989 39.2043 71.7121 39.2043C64.3544 39.2043 56.9987 39.2103 49.641 39.1861C49.1163 39.1861 48.5734 39.0141 48.073 38.826C45.9016 38.0089 44.5919 36.3362 43.7423 34.2611C43.4436 33.5329 43.2095 32.7724 43.0218 32.0099C42.8624 31.3627 42.7999 30.6912 42.7111 30.0278C42.5133 28.5554 42.5375 27.0748 42.5718 25.5963C42.586 25.0179 42.6788 24.4414 42.7555 23.867C42.8241 23.3594 42.8947 22.8497 43.0077 22.3501C43.1026 21.9213 43.2458 21.5026 43.3871 21.084C43.6757 20.2223 44.0773 19.4153 44.5919 18.667C45.3789 17.5242 46.3919 16.6404 47.6673 16.0963C48.3958 15.7848 49.1708 15.6048 49.9739 15.6048C55.1038 15.6048 60.2356 15.6048 65.3654 15.6048C65.4441 15.6048 65.5248 15.6048 65.6338 15.6048L65.6318 15.6028ZM65.6217 18.1492C61.9025 18.1492 58.1833 18.1532 54.4661 18.1492C53.6407 18.1492 52.8133 18.1472 51.9879 18.1452C51.3119 18.1452 50.6883 18.1047 50.208 18.6629C49.7338 19.2131 49.5179 19.9311 49.3383 20.6208C49.1405 21.3833 49.0779 22.1438 48.9791 22.9205C48.7752 24.5223 48.8015 26.1303 48.8176 27.7423C48.8338 29.3563 48.8741 30.9703 49.0275 32.5783C49.1022 33.3529 49.2918 34.1498 49.5199 34.8921C49.6248 35.2339 49.7701 35.5656 49.986 35.8549C50.1979 36.138 50.3876 36.2614 50.7368 36.2654C52.3875 36.2836 54.0423 36.2614 55.693 36.2614C57.3639 36.2614 59.0329 36.2614 60.7038 36.2614C62.3364 36.2614 63.9911 36.3362 65.6237 36.2493V18.1512L65.6217 18.1492Z" fill="#1E1E1E"/>
<path d="M19.3303 36.7788C19.754 36.6717 20.1899 36.5928 20.6016 36.4512C22.1434 35.9233 23.2049 34.8291 24.0161 33.4598C24.5569 32.5476 24.9061 31.5565 25.1361 30.5271C25.2854 29.8576 25.3864 29.176 25.4711 28.4964C25.5478 27.8977 25.6083 27.2909 25.6144 26.6882C25.6467 23.8141 25.6729 20.938 25.6648 18.0639C25.6628 17.0911 26.0442 16.4115 26.9301 16.0393C27.2369 15.9099 27.5759 15.833 27.9069 15.7905C28.2943 15.74 28.6899 15.7258 29.0793 15.74C29.6525 15.7602 30.2256 15.8269 30.7583 16.0656C31.5232 16.4095 31.9227 17.0364 31.9308 17.8475C31.955 20.6366 31.951 23.4258 31.9308 26.2129C31.9268 26.7489 31.8037 27.2828 31.7209 27.8168C31.618 28.4701 31.5292 29.1295 31.3799 29.7726C30.9077 31.7871 30.2336 33.7248 29.0551 35.452C28.2035 36.7 27.1642 37.7517 25.7859 38.401C25.1502 38.7003 24.4702 38.9369 23.7861 39.0947C23.1948 39.2322 22.5692 39.2626 21.9577 39.2646C18.1659 39.2788 14.374 39.2767 10.5821 39.2686C9.69016 39.2666 8.8325 39.0441 7.993 38.7549C5.3171 37.8387 3.40603 36.0467 2.10239 33.571C1.43846 32.311 0.986422 30.97 0.750313 29.5643C0.633268 28.8746 0.522277 28.1829 0.459718 27.4871C0.391105 26.7125 0.354781 25.9338 0.348726 25.1571C0.3346 22.8696 0.338636 20.582 0.342672 18.2945C0.34469 17.261 1.03082 16.28 2.08423 15.9443C2.7643 15.7278 3.45245 15.6692 4.15674 15.7845C4.53007 15.8452 4.9135 15.8714 5.26867 15.9888C6.08799 16.2557 6.59249 16.82 6.69339 17.6999C6.7277 17.9931 6.75394 18.2904 6.75394 18.5857C6.75999 21.2697 6.74384 23.9537 6.77008 26.6376C6.77613 27.3152 6.88914 27.9928 6.98601 28.6663C7.07884 29.3095 7.18781 29.9547 7.33513 30.5877C7.6459 31.9429 8.12014 33.2373 8.87891 34.4145C9.41974 35.2518 10.1099 35.9334 11.0079 36.3703C11.4115 36.5665 11.8454 36.7081 12.3055 36.7404C12.5154 36.7546 12.7253 36.7829 12.9594 36.8051V36.4916C12.9594 30.3329 12.9594 24.1721 12.9594 18.0134C12.9594 17.2185 13.3186 16.6279 13.9805 16.2153C14.489 15.8977 15.0561 15.7602 15.6474 15.7501C16.1357 15.742 16.6322 15.7299 17.1125 15.8007C17.5302 15.8634 17.954 15.9908 18.3354 16.1748C19.0175 16.5045 19.2859 17.1234 19.2859 17.8516C19.2919 24.0669 19.2879 30.2843 19.2899 36.4997C19.2899 36.5806 19.2919 36.6615 19.2939 36.7424C19.3081 36.7566 19.3202 36.7708 19.3343 36.7849L19.3303 36.7788Z" fill="#1E1E1E"/>
<path d="M34.7096 27.4994C34.7096 24.2835 34.7157 21.0656 34.7056 17.8497C34.7016 16.8081 35.307 16.1083 36.1929 15.811C36.6651 15.6532 37.1413 15.5622 37.6398 15.5885C38.0878 15.6107 38.5398 15.5844 38.9818 15.6471C39.8132 15.7644 40.5579 16.0719 40.9272 16.9011C41.0523 17.1843 41.129 17.516 41.131 17.8255C41.1431 24.2269 41.1411 30.6284 41.139 37.0298C41.139 38.0674 40.5054 38.7895 39.5367 39.0767C38.7255 39.3174 37.9062 39.2729 37.0909 39.2466C36.6167 39.2324 36.1505 39.0807 35.7267 38.832C35.0668 38.4436 34.7096 37.8834 34.7096 37.1006C34.7116 33.9009 34.7096 30.6992 34.7096 27.4994Z" fill="#1E1E1E"/>
<path d="M74.5736 27.4489C74.5736 24.1501 74.5635 20.8533 74.5837 17.5545C74.5877 17.0205 74.8662 16.5614 75.2981 16.2216C75.7178 15.8919 76.2042 15.7139 76.7248 15.6452C77.6007 15.5299 78.4845 15.5137 79.3402 15.7544C80.3593 16.0416 80.9889 16.6747 80.9909 17.8619C81.003 24.2229 81.003 30.586 80.9909 36.947C80.9889 38.2273 80.3169 38.8199 79.2696 39.1091C78.535 39.3114 77.7782 39.2831 77.0316 39.2467C76.5533 39.2224 76.0791 39.0929 75.6492 38.8583C74.957 38.4801 74.5696 37.9138 74.5696 37.1007C74.5736 33.8828 74.5696 30.6669 74.5696 27.4489H74.5736Z" fill="#1E1E1E"/>
<path d="M34.6471 8.86107C34.7843 8.09249 34.8106 7.28751 35.1839 6.58365C35.4846 6.01733 35.9689 5.5845 36.5561 5.3337C37.9163 4.75524 39.7063 5.18807 40.5377 6.44814C40.9978 7.1439 41.0523 7.95294 41.0927 8.76399C41.1371 9.61752 41.0745 10.465 40.683 11.2417C40.0796 12.439 38.6266 13.151 37.3169 12.7829C36.536 12.5624 35.8196 12.1356 35.3595 11.454C34.8449 10.6915 34.7016 9.78135 34.7197 8.87726C34.6955 8.87321 34.6713 8.86917 34.6471 8.86512V8.86107Z" fill="#1E1E1E"/>
<path d="M80.9707 8.95217C81.003 10.4934 80.4925 12.0973 78.9325 12.6717C77.5986 13.1632 76.075 12.6272 75.2416 11.4804C74.7714 10.8332 74.5877 9.9493 74.5595 9.16252C74.5292 8.33933 74.6563 7.40085 75.0216 6.6525C75.623 5.41873 77.078 4.86656 78.3856 5.13557C79.1121 5.28524 79.8084 5.66953 80.2705 6.26214C80.8698 7.03274 80.9142 8.01976 80.9707 8.95217Z" fill="#1E1E1E"/>
<path d="M55.0452 45.3165C55.019 44.198 54.4479 43.1038 53.1907 43.0027C52.3512 42.9359 51.5036 42.948 50.6601 42.9379C49.9901 42.9278 49.3201 42.9218 48.6521 42.942C48.3898 42.9501 48.2768 42.8166 48.2364 42.6083C48.2041 42.4444 48.2102 42.2664 48.2364 42.1026C48.2869 41.7871 48.3757 41.7244 48.7066 41.7264C50.0849 41.7264 51.4653 41.6961 52.8436 41.7406C53.5479 41.7648 54.2521 41.8963 54.9443 42.0359C55.4145 42.1309 55.8847 42.2786 56.3186 42.4829C56.6758 42.6507 57.0047 42.9076 57.2973 43.1766C57.6828 43.5326 57.8644 44.016 57.8664 44.5358C57.8765 47.1065 57.8705 49.6751 57.8705 52.2458C57.8705 52.2681 57.8624 52.2924 57.8523 52.3389C57.7675 52.3389 57.6828 52.3389 57.596 52.3389C54.2804 52.3389 50.9668 52.3308 47.6512 52.3429C46.1296 52.347 45.0318 51.3134 44.8038 49.9017C44.721 49.3839 44.6585 48.8439 44.7069 48.3241C44.8199 47.0964 45.284 46.0466 46.5251 45.5612C46.8924 45.4176 47.3041 45.3306 47.6976 45.3266C50.0526 45.3064 52.4077 45.3165 54.7627 45.3165H55.0432H55.0452ZM55.0775 46.5017H54.8313C52.6862 46.5017 50.543 46.5058 48.3979 46.4957C48.1093 46.4957 47.9256 46.6069 47.8409 46.8597C47.74 47.1631 47.6189 47.4766 47.6088 47.7881C47.5785 48.676 47.4837 49.576 47.7501 50.4478C47.9155 50.9959 48.1557 51.2244 48.6642 51.2184C50.7125 51.1981 52.7588 51.2103 54.8071 51.2103H55.0775V46.4997V46.5017Z" fill="#1E1E1E"/>
<path d="M80.9506 47.6279H70.586C70.6062 48.0708 70.6123 48.5016 70.6486 48.9284C70.6788 49.2824 70.7192 49.6404 70.7979 49.9862C70.8706 50.3017 70.9816 50.6132 71.1087 50.9105C71.2056 51.1391 71.4094 51.218 71.6636 51.2159C73.494 51.2099 75.3243 51.2159 77.1567 51.2079C77.3706 51.2079 77.4453 51.2625 77.4211 51.4789C77.4029 51.6548 77.4211 51.8328 77.4211 52.0108C77.4231 52.2535 77.3504 52.3344 77.1143 52.3344C75.0015 52.3344 72.8886 52.3425 70.7757 52.3304C70.1178 52.3263 69.579 52.0048 69.125 51.5497C68.4933 50.9166 68.1704 50.1197 67.9807 49.2621C67.7931 48.4106 67.6982 47.545 67.7426 46.6753C67.7931 45.7024 67.9101 44.7376 68.3359 43.8376C68.788 42.8829 69.4701 42.1811 70.4912 41.8595C70.7313 41.7847 70.9916 41.7442 71.2439 41.7422C73.3568 41.7341 75.4717 41.7017 77.5825 41.7503C78.8135 41.7786 80.1898 42.5411 80.6681 43.8639C80.8295 44.3109 80.9506 44.7558 80.9506 45.2311C80.9506 46.0179 80.9506 46.8067 80.9506 47.6259V47.6279ZM70.6869 46.5074H78.2041C78.1354 45.4718 78.0931 44.4342 77.8368 43.425C77.7399 43.0467 77.5119 42.9658 77.1446 42.9638C76.6623 42.9618 76.178 42.9638 75.6957 42.9638C74.7472 42.9638 73.7987 42.9638 72.8502 42.9638C72.4123 42.9638 71.9159 42.8951 71.4861 42.976C71.0986 43.0488 70.9856 43.4958 70.8766 43.8254C70.5961 44.6769 70.6869 45.6235 70.6869 46.5074Z" fill="#1E1E1E"/>
<path d="M38.8466 52.3369C37.1615 52.3369 35.4744 52.3369 33.7894 52.3369C33.1456 52.3369 32.516 52.2176 31.9429 51.9486C30.9601 51.4854 30.2094 50.7694 29.7614 49.75C29.3437 48.7974 29.2529 47.8002 29.2751 46.7788C29.2872 46.1599 29.3538 45.5451 29.5596 44.9666C29.9894 43.7591 30.7886 42.8672 31.955 42.313C32.5322 42.0379 33.1355 41.864 33.7692 41.7851C33.9972 41.7568 34.2293 41.7325 34.4594 41.7325C37.6458 41.7285 40.8323 41.7305 44.0167 41.7305C44.3537 41.7305 44.4466 41.8215 44.4546 42.1552C44.4768 43.0249 44.4002 42.9359 43.6979 42.9359C40.7697 42.9339 37.8416 42.94 34.9134 42.9319C34.195 42.9319 33.6057 43.1989 33.1315 43.7227C32.5887 44.3234 32.296 45.0536 32.2234 45.8485C32.1588 46.5665 32.1043 47.3007 32.175 48.0146C32.292 49.208 32.6916 50.2981 33.8237 50.9272C34.0961 51.0788 34.4251 51.2103 34.7298 51.2123C37.8113 51.2346 40.8928 51.2305 43.9723 51.2326C44.3618 51.2326 44.4365 51.2932 44.4526 51.6796C44.4587 51.8373 44.4365 51.9991 44.4002 52.1508C44.3578 52.3288 44.2044 52.3369 44.051 52.3369C42.6404 52.3369 41.2278 52.3369 39.8172 52.3369C39.4943 52.3369 39.1715 52.3369 38.8486 52.3369H38.8466Z" fill="#1E1E1E"/>
<path d="M58.9864 41.7767C61.7632 41.7767 64.542 41.7767 67.3188 41.7767C67.6538 41.7767 68.3016 41.6108 68.3904 42.0517C68.4307 42.252 68.467 42.6585 68.35 42.8405C68.2108 43.059 67.7971 42.9821 67.5832 42.9841C66.4349 42.9862 65.1797 42.8385 64.0778 43.2329C63.2061 43.5464 62.5482 44.2058 62.1607 45.0411C61.9085 45.5852 61.852 46.1677 61.8459 46.7603C61.8399 47.4682 61.8459 48.1761 61.8459 48.884C61.8459 49.5595 61.8459 50.2371 61.8459 50.9127C61.8459 51.3698 61.8943 51.8997 61.4241 52.1444C60.96 52.3871 60.2073 52.381 59.7169 52.2455C59.2104 52.106 58.9823 51.7096 58.9803 51.2039C58.9722 48.0628 58.9843 44.9197 58.9843 41.7787L58.9864 41.7767Z" fill="#1E1E1E"/>
</g>
</svg>
