<svg width="15" height="21" viewBox="0 0 15 21" fill="none" xmlns="http://www.w3.org/2000/svg">
<path d="M11.2891 0.5C12.0312 0.5 12.5781 1.24219 12.3828 1.94531L10.2734 9.25H13.6328C14.375 9.25 14.9609 9.875 14.9609 10.6172C14.9609 11.0469 14.8047 11.3984 14.4922 11.6719L4.375 20.2656C4.17969 20.4219 3.94531 20.5 3.67188 20.5C2.92969 20.5 2.38281 19.7969 2.57812 19.0938L4.6875 11.75H1.28906C0.585938 11.75 0 11.1641 0 10.4609C0 10.0703 0.15625 9.71875 0.429688 9.44531L10.5859 0.773438C10.7812 0.617188 11.0156 0.5 11.2891 0.5ZM9.88281 3.82031L2.8125 9.875H5.9375C6.21094 9.875 6.48438 10.0312 6.67969 10.2656C6.83594 10.5 6.91406 10.8125 6.83594 11.0859L5.07812 17.2188L12.2266 11.125H9.0625C8.75 11.125 8.47656 11.0078 8.28125 10.7734C8.125 10.5391 8.04688 10.2266 8.125 9.95312L9.88281 3.82031Z" fill="#01d859"></path>
</svg>