<svg width="84" height="30" viewBox="0 0 84 30" fill="none" xmlns="http://www.w3.org/2000/svg">
<g clip-path="url(#clip0_1582_381)">
<path d="M71.9345 24.7815C68.7842 24.7815 68.2444 21.6765 69.239 18.6547C70.0266 16.253 71.8919 13.7277 74.6706 13.7277C77.9466 13.7277 78.2775 17.0394 77.3236 19.9376C76.4934 22.4224 74.628 24.7815 71.9345 24.7815ZM70.9805 29.21C76.4528 29.21 81.3445 26.188 83.2931 20.724C85.3249 14.9701 83.0436 9.21619 75.5821 9.21619C69.6125 9.21619 65.0516 12.9413 63.3101 17.8683C61.3615 23.4155 63.4764 29.21 70.9805 29.21ZM52.8223 29.21C54.9779 29.21 57.176 28.7539 58.7086 28.0932C59.2485 26.6035 59.2891 25.1544 58.875 23.7053C57.7971 24.1188 56.3053 24.5342 54.7708 24.5342C50.624 24.5342 50.2525 21.4717 51.1232 18.8634C52.0772 16.0907 54.5638 13.8552 58.5035 13.8552C59.5406 13.8552 60.5352 14.0213 61.1564 14.3944C62.2342 12.9452 62.8553 11.4961 62.9811 10.0064C62.0697 9.59296 60.5352 9.22006 58.546 9.22006C52.0791 9.22006 46.9784 12.9877 45.1557 18.2025C43.414 23.1295 44.7415 29.2138 52.826 29.2138L52.8223 29.21ZM30.5597 17.3293C31.6781 14.8445 33.4196 13.3974 35.7011 13.3974C37.7328 13.3974 38.0637 14.5141 37.7328 15.3836C37.2355 16.5834 35.5347 17.3293 30.5597 17.3293ZM32.3418 29.21C34.4568 29.21 37.4406 28.7965 39.9291 27.5541C40.3432 26.188 40.3025 24.822 39.8459 23.4136C38.2708 24.2 36.0726 24.6559 34.0834 24.6559C31.1402 24.6559 29.5225 23.7034 29.5651 21.3036C37.607 21.5103 41.7945 20.0613 43.1626 16.5023C44.5306 12.9007 42.1679 9.21619 36.5698 9.21619C30.6003 9.21619 26.2058 13.4804 24.5881 18.0751C22.8892 22.9595 23.9669 29.21 32.3399 29.21H32.3418ZM8.31066 29.21C13.8255 29.21 16.9622 26.6847 20.6098 18.9445C22.5989 14.6802 24.2999 10.4991 26.2484 6.36049L28.5704 7.10629C29.1916 7.31303 29.5244 6.94012 29.2342 6.36049L26.4148 0.606568C26.2078 0.193089 25.7511 0.150581 25.4609 0.276171L18.4542 2.92513C17.8736 3.13187 17.9142 3.67094 18.4947 3.83518L20.5672 4.4979C18.8681 8.34865 16.7532 14.1431 15.0523 17.7852C13.1444 21.8428 12.1923 24.6984 8.9589 24.6984C5.72546 24.6984 5.18558 22.1731 6.55366 18.5716C8.12876 14.3905 10.7817 13.1481 13.8081 14.0175C14.6382 12.8582 15.2594 11.1193 15.5071 9.54658C14.6363 9.29734 13.5991 9.21619 12.7303 9.21619C7.83851 9.21619 2.98739 11.7415 0.99818 17.0394C-1.57154 23.8695 0.804677 29.21 8.30872 29.21H8.31066Z" fill="#282828"/>
</g>
<defs>
<clipPath id="clip0_1582_381">
<rect width="84" height="30" fill="white"/>
</clipPath>
</defs>
</svg>
