<svg width="142" height="30" viewBox="0 0 142 30" fill="none" xmlns="http://www.w3.org/2000/svg">
<path d="M14.6663 28.4402H8.76872V5.89755H0V0.581997H23.4738V5.89755H14.6663V28.4402Z" fill="#1E1E1E"/>
<path d="M49.6398 23.3186V28.4402H30.157V0.581997H49.3682V5.70355H36.0545V11.5623H48.2042V16.6451H36.0545V23.3186H49.6398Z" fill="#1E1E1E"/>
<path d="M64.8201 27.9358C66.5273 28.66 68.3509 29.0221 70.2909 29.0221C72.7482 29.0221 74.9727 28.5177 76.9644 27.509C78.9561 26.5002 80.5986 25.0904 81.892 23.2798C82.9586 21.7866 83.6997 20.091 84.1154 18.1931H77.7859C77.5208 19.0225 77.1436 19.7869 76.654 20.4862C75.9556 21.495 75.0632 22.2969 73.9768 22.8918C72.8904 23.4609 71.6877 23.7454 70.3685 23.7454C69.1527 23.7454 68.0534 23.5255 67.0705 23.0858C66.1134 22.6202 65.2728 21.9735 64.5485 21.1458C63.8501 20.3181 63.3069 19.3481 62.9189 18.2358C62.5568 17.0977 62.3757 15.8432 62.3757 14.4723C62.3757 13.1272 62.5568 11.8986 62.9189 10.7863C63.3069 9.64818 63.8501 8.66526 64.5485 7.83753C65.2728 7.0098 66.1134 6.37608 67.0705 5.93635C68.0534 5.49662 69.1527 5.27675 70.3685 5.27675C71.6877 5.27675 72.8775 5.56128 73.938 6.13034C75.0244 6.69941 75.9297 7.48833 76.654 8.49712C77.1599 9.17741 77.5422 9.93416 77.801 10.7674H84.1203C83.7205 8.90126 82.9907 7.22625 81.9308 5.74235C80.6374 3.9317 78.982 2.52198 76.9644 1.51319C74.9727 0.504396 72.7482 0 70.2909 0C68.3509 0 66.5273 0.375063 64.8201 1.12519C63.1129 1.84945 61.6256 2.87117 60.3582 4.19036C59.0907 5.50955 58.0948 7.0486 57.3706 8.80752C56.6722 10.5406 56.323 12.4288 56.323 14.4723C56.323 16.5157 56.6722 18.4169 57.3706 20.1758C58.0948 21.9347 59.0907 23.4867 60.3582 24.8318C61.6256 26.151 63.1129 27.1856 64.8201 27.9358Z" fill="#1E1E1E"/>
<path d="M89.3184 23.9536L104.015 0.230963L111.084 0.230962L99.9609 18.1857L112.386 18.1857V28.7912H106.619V23.9536L89.3184 23.9536Z" fill="url(#paint0_linear_607_168)"/>
<path d="M142 0.291V17.5568C142 19.7555 141.547 21.6955 140.642 23.3768C139.763 25.0581 138.469 26.3773 136.762 27.3344C135.055 28.2656 132.986 28.7311 130.554 28.7311C128.097 28.7311 126.015 28.2656 124.307 27.3344C122.6 26.3773 121.294 25.0581 120.389 23.3768C119.509 21.6955 119.069 19.7555 119.069 17.5568V0.291H124.967V17.6732C124.967 18.8114 125.161 19.8202 125.549 20.6996C125.937 21.5791 126.532 22.2645 127.334 22.756C128.161 23.2216 129.235 23.4544 130.554 23.4544C131.847 23.4544 132.895 23.2216 133.697 22.756C134.525 22.2645 135.132 21.5791 135.52 20.6996C135.908 19.8202 136.102 18.8114 136.102 17.6732V0.291H142Z" fill="#1E1E1E"/>
<defs>
<linearGradient id="paint0_linear_607_168" x1="70.9999" y1="0" x2="70.9999" y2="29.0222" gradientUnits="userSpaceOnUse">
<stop stop-color="#E61755"/>
<stop offset="1" stop-color="#8454F4"/>
</linearGradient>
</defs>
</svg>
