<svg width="749" height="153" viewBox="0 0 749 153" fill="none" xmlns="http://www.w3.org/2000/svg">
<path d="M77.3594 149.932H46.2519V31.0909H0V3.06819H123.816V31.0909H77.3594V149.932Z" fill="white"/>
<path d="M261.832 122.932V149.932H159.067V3.06819H260.4V30.0682H190.175V60.9546H254.26V87.75H190.175V122.932H261.832Z" fill="white"/>
<path d="M341.903 147.273C350.908 151.091 360.527 153 370.76 153C383.721 153 395.455 150.341 405.96 145.023C416.466 139.705 425.129 132.273 431.951 122.727C437.577 114.855 441.486 105.916 443.679 95.9113H410.293C408.895 100.284 406.905 104.313 404.323 108C400.639 113.318 395.932 117.545 390.202 120.682C384.471 123.682 378.127 125.182 371.169 125.182C364.756 125.182 358.958 124.023 353.773 121.705C348.725 119.25 344.291 115.841 340.471 111.477C336.787 107.114 333.922 102 331.875 96.1364C329.965 90.1364 329.01 83.5227 329.01 76.2954C329.01 69.2045 329.965 62.7273 331.875 56.8636C333.922 50.8636 336.787 45.6818 340.471 41.3182C344.291 36.9545 348.725 33.6136 353.773 31.2955C358.958 28.9773 364.756 27.8182 371.169 27.8182C378.127 27.8182 384.403 29.3182 389.997 32.3182C395.727 35.3182 400.503 39.4773 404.323 44.7955C406.991 48.3818 409.008 52.3713 410.373 56.7638H443.705C441.596 46.926 437.747 38.0956 432.156 30.2727C425.334 20.7273 416.602 13.2955 405.96 7.97728C395.455 2.65909 383.721 0 370.76 0C360.527 0 350.908 1.97727 341.903 5.93182C332.898 9.75 325.053 15.1364 318.368 22.0909C311.683 29.0455 306.43 37.1591 302.61 46.4318C298.926 55.5682 297.084 65.5227 297.084 76.2954C297.084 87.0682 298.926 97.0909 302.61 106.364C306.43 115.636 311.683 123.818 318.368 130.909C325.053 137.864 332.898 143.318 341.903 147.273Z" fill="white"/>
<path d="M471.123 126.28L548.641 1.2176L585.928 1.2176L527.259 95.8721L592.798 95.8722V151.782H562.379V126.279L471.123 126.28Z" fill="white"/>
<path d="M749 1.53411V92.5568C749 104.148 746.612 114.375 741.837 123.239C737.198 132.102 730.376 139.057 721.372 144.102C712.367 149.011 701.452 151.466 688.627 151.466C675.665 151.466 664.682 149.011 655.678 144.102C646.673 139.057 639.783 132.102 635.007 123.239C630.369 114.375 628.049 104.148 628.049 92.5568V1.53411H659.157V93.1705C659.157 99.1705 660.18 104.489 662.227 109.125C664.273 113.761 667.411 117.375 671.641 119.966C676.007 122.42 681.669 123.648 688.627 123.648C695.449 123.648 700.974 122.42 705.204 119.966C709.57 117.375 712.776 113.761 714.823 109.125C716.869 104.489 717.892 99.1705 717.892 93.1705V1.53411H749Z" fill="white"/>
</svg>
