<?xml version="1.0" encoding="UTF-8"?>
<svg id="Layer_2" xmlns="http://www.w3.org/2000/svg" viewBox="0 0 403 226.26">
  <defs>
    <style>
      .cls-1 {
        fill: #5a6980;
      }

      .cls-2 {
        fill: #fff;
      }

      .cls-3 {
        fill: #010b23;
      }
    </style>
  </defs>
  <g id="Nuvemshop_Partners_Selos">
    <g>
      <path class="cls-1" d="M22.61,225.15c-11.86,0-21.51-9.65-21.51-21.51v-62.65h400.79v62.65c0,11.86-9.65,21.51-21.51,21.51H22.61Z"/>
      <g>
        <path class="cls-2" d="M92.6,197.2v-29.08h10.89c1.98,0,3.73.36,5.25,1.07,1.52.72,2.71,1.76,3.57,3.12s1.29,3.04,1.29,5.02-.44,3.57-1.31,4.94c-.87,1.37-2.06,2.41-3.57,3.12-1.51.72-3.25,1.07-5.23,1.07h-5.54v10.73h-5.35ZM97.95,181.78h5.62c.94,0,1.76-.19,2.46-.57.7-.38,1.25-.9,1.66-1.58.4-.68.6-1.46.6-2.34s-.2-1.7-.6-2.36c-.4-.66-.96-1.18-1.66-1.56-.7-.38-1.52-.57-2.46-.57h-5.62v8.98Z"/>
        <path class="cls-2" d="M120.97,197.2l10.03-29.08h6.87l10.03,29.08h-5.78l-2.07-6.21h-11.24l-2.11,6.21h-5.74ZM130.33,186.27h8.16l-4.8-14.44h1.48l-4.84,14.44Z"/>
        <path class="cls-2" d="M159.16,197.2v-29.08h10.85c1.98,0,3.73.36,5.25,1.07,1.52.72,2.71,1.76,3.57,3.12s1.29,3.04,1.29,5.02-.48,3.68-1.42,5.09c-.95,1.42-2.23,2.47-3.84,3.14l6.67,11.63h-6.01l-7.18-12.76,3.47,2.03h-7.3v10.73h-5.35ZM164.51,181.78h5.58c.96,0,1.8-.19,2.5-.57.7-.38,1.25-.9,1.64-1.58.39-.68.58-1.46.58-2.34s-.19-1.7-.58-2.36-.94-1.18-1.64-1.56c-.7-.38-1.54-.57-2.5-.57h-5.58v8.98Z"/>
        <path class="cls-2" d="M198.11,197.2v-24.39h-7.53v-4.68h20.29v4.68h-7.42v24.39h-5.35Z"/>
        <path class="cls-2" d="M222.13,197.2v-29.08h4.18l15.96,21.54-2.11.43v-21.97h5.31v29.08h-4.22l-15.73-21.7,1.95-.43v22.13h-5.35Z"/>
        <path class="cls-2" d="M259.13,197.2v-29.08h19.36v4.68h-14.01v7.46h13.23v4.72h-13.23v7.53h14.01v4.68h-19.36Z"/>
        <path class="cls-2" d="M290.14,197.2v-29.08h10.85c1.98,0,3.73.36,5.25,1.07,1.52.72,2.71,1.76,3.57,3.12s1.29,3.04,1.29,5.02-.48,3.68-1.42,5.09c-.95,1.42-2.23,2.47-3.84,3.14l6.67,11.63h-6.01l-7.18-12.76,3.47,2.03h-7.3v10.73h-5.35ZM295.49,181.78h5.58c.96,0,1.8-.19,2.5-.57.7-.38,1.25-.9,1.64-1.58.39-.68.58-1.46.58-2.34s-.19-1.7-.58-2.36-.94-1.18-1.64-1.56c-.7-.38-1.54-.57-2.5-.57h-5.58v8.98Z"/>
      </g>
      <path class="cls-3" d="M380.39,0H22.61C10.12,0,0,10.12,0,22.61v181.04c0,12.49,10.12,22.61,22.61,22.61h357.78c12.49,0,22.61-10.12,22.61-22.61V22.61c0-12.49-10.12-22.61-22.61-22.61ZM400.79,203.65c0,11.25-9.15,20.4-20.4,20.4H22.61c-11.25,0-20.4-9.15-20.4-20.4v-61.54h398.58v61.54Z"/>
      <g>
        <g>
          <path class="cls-2" d="M93.24,28.48h-.03s-.02,0-.03,0c-6.54.01-12.77,2.58-17.41,7.1-2.38-1.01-4.94-1.53-7.59-1.53-10.74,0-19.48,8.74-19.48,19.48s8.74,19.48,19.48,19.48c2.61,0,5.19-.53,7.57-1.54,4.51,4.39,10.67,7.1,17.45,7.1,13.81,0,25.05-11.24,25.05-25.05s-11.21-25.02-25-25.05ZM93.2,73c-10.74,0-19.48-8.74-19.48-19.48h-5.57c0,4.91,1.43,9.49,3.88,13.37-1.25.36-2.54.55-3.85.55-7.67,0-13.91-6.24-13.91-13.91s6.24-13.91,13.91-13.91c3.04,0,5.92.96,8.35,2.78,3.54,2.66,5.57,6.72,5.57,11.13h5.57c0-5.83-2.52-11.21-6.96-14.92,3.48-2.92,7.9-4.56,12.51-4.56,10.74,0,19.47,8.74,19.47,19.48s-8.74,19.48-19.48,19.48Z"/>
          <path class="cls-2" d="M151.08,45.92c.71,1.27,1.07,2.74,1.07,4.41v14.34h-5.37v-13.07c0-.98-.19-1.83-.57-2.54-.38-.71-.92-1.26-1.6-1.64-.68-.38-1.46-.57-2.34-.57s-1.65.19-2.34.57c-.68.38-1.22.93-1.6,1.64-.38.71-.57,1.56-.57,2.54v13.07h-5.41v-22.29h5.08v2.74c.52-.92,1.23-1.65,2.15-2.19,1.19-.7,2.57-1.05,4.16-1.05s3.09.36,4.36,1.07c1.27.71,2.26,1.7,2.97,2.97ZM170.35,42.37h5.37v13.52c0,1.83-.42,3.44-1.25,4.84-.83,1.39-1.98,2.48-3.44,3.26-1.46.78-3.19,1.17-5.18,1.17s-3.7-.39-5.18-1.17c-1.49-.78-2.65-1.86-3.48-3.26-.83-1.39-1.25-3.01-1.25-4.84v-13.52h5.41v13.36c0,.9.19,1.69.57,2.36.38.67.92,1.2,1.6,1.58.68.38,1.46.57,2.34.57s1.69-.19,2.38-.57c.68-.38,1.21-.91,1.58-1.58.37-.67.55-1.45.55-2.36v-13.36ZM199.84,42.37l-8.77,22.29h-4.75l-8.77-22.29h5.86l5.27,14.55,5.3-14.55h5.86ZM218.88,45.12c-.93-1.01-2.06-1.8-3.38-2.38-1.33-.57-2.86-.86-4.61-.86-2.1,0-3.99.51-5.66,1.52-1.67,1.01-2.99,2.38-3.98,4.12-.98,1.74-1.48,3.72-1.48,5.96s.48,4.13,1.43,5.9c.96,1.78,2.3,3.18,4.04,4.22,1.73,1.04,3.75,1.56,6.04,1.56,1.5,0,2.9-.23,4.18-.7,1.28-.46,2.39-1.11,3.32-1.93.93-.82,1.61-1.76,2.05-2.83l-4.34-2.13c-.49.87-1.17,1.57-2.03,2.09-.86.52-1.91.78-3.14.78s-2.32-.29-3.26-.86c-.94-.57-1.65-1.39-2.13-2.44-.29-.63-.47-1.32-.54-2.07h16.05c.11-.33.18-.69.23-1.09.04-.4.06-.8.06-1.21,0-1.5-.25-2.9-.74-4.2-.49-1.3-1.2-2.45-2.13-3.46ZM207.9,47.17c.87-.57,1.87-.86,2.99-.86s2.18.29,3.01.86c.83.57,1.43,1.35,1.8,2.34.17.45.27.93.3,1.43h-10.49c.09-.47.22-.91.39-1.31.45-1.07,1.11-1.89,1.99-2.46ZM256.91,45.92c.71,1.27,1.07,2.74,1.07,4.41v14.34h-5.37v-13.07c0-.98-.18-1.83-.53-2.54-.36-.71-.85-1.26-1.5-1.64-.64-.38-1.4-.57-2.27-.57s-1.6.19-2.25.57c-.66.38-1.16.93-1.52,1.64-.36.71-.53,1.56-.53,2.54v13.07h-5.37v-13.07c0-.98-.18-1.83-.53-2.54-.36-.71-.85-1.26-1.5-1.64-.64-.38-1.4-.57-2.27-.57s-1.6.19-2.25.57c-.66.38-1.16.93-1.52,1.64-.36.71-.53,1.56-.53,2.54v13.07h-5.41v-22.29h5.08v2.8c.45-.88,1.08-1.59,1.89-2.11,1.23-.79,2.68-1.19,4.34-1.19,1.83,0,3.44.48,4.84,1.43.88.6,1.56,1.33,2.05,2.17.6-.94,1.33-1.7,2.21-2.27,1.37-.89,2.94-1.33,4.71-1.33,1.58,0,3,.36,4.24,1.07,1.24.71,2.22,1.7,2.93,2.97ZM266.62,48.52c0,.38.11.72.33,1.02.22.3.53.55.92.74.4.19.85.37,1.37.53l3.57,1.07c1.83.55,3.24,1.37,4.24,2.46,1,1.09,1.5,2.43,1.5,4.02,0,1.34-.36,2.52-1.07,3.55-.71,1.02-1.69,1.82-2.95,2.4-1.26.57-2.73.86-4.43.86-2.38,0-4.45-.57-6.21-1.7-1.76-1.13-2.99-2.67-3.67-4.61l4.06-1.93c.57,1.26,1.37,2.24,2.4,2.95,1.02.71,2.17,1.07,3.42,1.07.96,0,1.72-.22,2.29-.66.57-.44.86-1.01.86-1.72,0-.44-.12-.8-.35-1.09-.23-.29-.54-.53-.92-.74-.38-.2-.82-.38-1.31-.51l-3.65-1.02c-1.86-.52-3.27-1.35-4.24-2.48-.97-1.13-1.45-2.47-1.45-4,0-1.37.35-2.56,1.05-3.59.7-1.02,1.67-1.82,2.91-2.4,1.24-.57,2.67-.86,4.28-.86,2.1,0,3.96.51,5.57,1.52,1.61,1.01,2.76,2.43,3.44,4.26l-4.1,1.93c-.38-1.01-1.02-1.81-1.93-2.4-.9-.59-1.91-.88-3.03-.88-.9,0-1.61.2-2.13.59-.52.4-.78.94-.78,1.62ZM300.27,45.92c.71,1.27,1.07,2.74,1.07,4.41v14.34h-5.37v-13.07c0-.98-.19-1.83-.57-2.54-.38-.71-.91-1.26-1.58-1.64-.67-.38-1.45-.57-2.36-.57s-1.65.19-2.34.57c-.68.38-1.22.93-1.6,1.64-.38.71-.57,1.56-.57,2.54v13.07h-5.41v-30.61h5.41v10.54c.48-.68,1.09-1.23,1.82-1.67,1.19-.7,2.57-1.05,4.16-1.05s3.09.36,4.36,1.07c1.27.71,2.26,1.7,2.97,2.97ZM321.95,43.4c-1.78-1.01-3.77-1.52-5.98-1.52s-4.17.51-5.94,1.52c-1.78,1.01-3.2,2.39-4.26,4.14-1.07,1.75-1.6,3.74-1.6,5.98s.53,4.24,1.6,5.98c1.07,1.75,2.49,3.13,4.28,4.14,1.79,1.01,3.76,1.52,5.92,1.52s4.17-.51,5.94-1.52c1.78-1.01,3.2-2.39,4.26-4.14,1.07-1.75,1.6-3.74,1.6-5.98s-.53-4.27-1.58-6c-1.05-1.73-2.47-3.11-4.24-4.12ZM321.36,56.98c-.53,1.02-1.26,1.82-2.17,2.4-.92.57-1.99.86-3.22.86s-2.27-.29-3.2-.86c-.93-.57-1.66-1.37-2.19-2.4-.53-1.02-.8-2.18-.8-3.46s.27-2.43.8-3.44c.53-1.01,1.26-1.8,2.19-2.38.93-.57,1.99-.86,3.2-.86s2.3.29,3.22.86c.92.57,1.64,1.37,2.17,2.38.53,1.01.8,2.16.8,3.44s-.27,2.44-.8,3.46ZM352.8,47.62c-1-1.75-2.34-3.14-4.04-4.18-1.69-1.04-3.59-1.56-5.7-1.56-1.72,0-3.24.33-4.55,1-1.05.54-1.92,1.25-2.62,2.12v-2.64h-5.08v30.65h5.41v-10.5c.66.7,1.44,1.27,2.36,1.69,1.35.63,2.83.94,4.45.94,2.16,0,4.08-.51,5.78-1.54,1.69-1.02,3.03-2.42,4.02-4.2.98-1.78,1.48-3.74,1.48-5.9s-.5-4.15-1.5-5.9ZM347.91,57.01c-.55,1.01-1.29,1.8-2.23,2.38s-2.03.86-3.26.86-2.23-.29-3.18-.86-1.68-1.37-2.21-2.38c-.53-1.01-.8-2.17-.8-3.48s.27-2.43.8-3.44c.53-1.01,1.27-1.8,2.21-2.38s2-.86,3.18-.86,2.32.29,3.26.86,1.69,1.37,2.23,2.38c.55,1.01.82,2.16.82,3.44s-.27,2.47-.82,3.48Z"/>
        </g>
        <path class="cls-2" d="M148.7,84.23c.75,1.24,1.13,2.66,1.13,4.26v14.55h-2.52v-13.84c0-1.34-.27-2.49-.8-3.46-.53-.96-1.26-1.7-2.2-2.22-.94-.52-2.01-.78-3.21-.78s-2.36.29-3.31.88c-.95.59-1.68,1.4-2.18,2.43-.5,1.03-.75,2.22-.75,3.56v13.42h-2.52v-22.29h2.52v2.99c.51-.86,1.2-1.58,2.08-2.17,1.3-.87,2.82-1.3,4.55-1.3,1.54,0,2.93.35,4.19,1.05,1.26.7,2.26,1.67,3.02,2.91ZM173.97,86.83c.49,1.27.73,2.61.73,4,0,.28-.01.57-.04.88-.03.31-.07.63-.13.96h-18.19c.05,1.49.4,2.84,1.04,4.02.75,1.4,1.79,2.49,3.1,3.29,1.31.8,2.77,1.19,4.36,1.19s3.03-.38,4.23-1.15c1.2-.77,2.18-1.8,2.93-3.08l2.14,1.13c-.5,1.03-1.22,1.96-2.14,2.79-.92.82-1.99,1.47-3.21,1.95-1.22.47-2.54.71-3.96.71-2.1,0-3.98-.51-5.66-1.53-1.68-1.02-3-2.42-3.98-4.19-.98-1.77-1.47-3.77-1.47-5.97s.47-4.19,1.43-5.93c.95-1.75,2.24-3.12,3.86-4.13,1.62-1.01,3.44-1.51,5.45-1.51,1.54,0,2.93.28,4.17.84,1.24.56,2.32,1.34,3.23,2.33.91.99,1.61,2.12,2.1,3.4ZM156.4,90.38h15.63c.01-1.27-.24-2.44-.76-3.5-.64-1.3-1.56-2.33-2.75-3.1-1.19-.77-2.54-1.15-4.05-1.15s-2.89.4-4.15,1.19c-1.26.8-2.25,1.89-2.98,3.27-.52.99-.83,2.08-.95,3.29ZM203.77,75.58h-2.52v5.17h-4.19v2.39h4.19v19.9h2.52v-19.9h4.19v-2.39h-4.19v-5.17ZM194.89,80.74h-3.14l-6.21,8.95-6.24-8.95h-3.14l7.82,11.14-7.84,11.15h3.14l6.26-8.96,6.19,8.96h3.14l-7.8-11.15,7.82-11.14Z"/>
      </g>
    </g>
  </g>
</svg>