<svg width="51" height="31" viewBox="0 0 51 31" fill="none" xmlns="http://www.w3.org/2000/svg">
<path d="M49.5646 13.4664H46.455L46.443 17.8041C46.443 19.8898 48.2278 20.3141 49.5813 20.3711C49.7588 20.3783 49.8982 20.5256 49.8982 20.7039V23.5145C49.8982 23.7035 49.7433 23.852 49.5538 23.8473C47.2115 23.7914 45.26 23.1592 44.0959 21.9672C42.4673 20.2986 42.5054 18.3912 42.5173 18.2237L42.5519 6.23245C42.5519 6.04943 42.702 5.90088 42.8855 5.90088H46.1488C46.3334 5.90088 46.4836 6.05181 46.4824 6.23602L46.455 10.178H49.5646C49.7492 10.178 49.8982 10.3266 49.8982 10.5108V13.1336C49.8982 13.3178 49.7492 13.4664 49.5646 13.4664Z" fill="#0A4EE4"/>
<path d="M20.9813 22.9935L20.9897 4.12963C20.9897 3.94543 20.8407 3.79688 20.6561 3.79688H17.3868C17.2021 3.79688 17.0532 3.94543 17.0532 4.12963V22.9935C17.0532 23.1777 17.2021 23.3263 17.3868 23.3263H20.6477C20.8324 23.3263 20.9813 23.1777 20.9813 22.9935Z" fill="#0A4EE4"/>
<path d="M38.4405 15.6241C37.4397 15.2486 36.1125 14.9657 34.9389 14.7732C34.3575 14.671 33.894 14.5224 33.5592 14.3299C32.9862 14.0387 32.9778 13.1355 33.5426 12.8075C34.1835 12.3738 35.7491 12.4142 36.4103 12.9014C36.6641 13.0512 36.8666 13.3257 37.012 13.6537C37.0608 13.7642 37.1835 13.8213 37.2991 13.7868L40.2443 12.8919C40.4409 12.8325 40.535 12.6114 40.4468 12.426C40.0763 11.6429 39.4985 10.9774 38.7109 10.4509C36.788 9.06637 32.8206 9.08657 30.9786 10.5222C29.3297 11.5835 28.9187 14.488 30.1923 15.9866C31.2705 17.2701 33.01 17.73 34.6959 18.0841L34.7125 18.0877C35.4453 18.2018 36.6986 18.4478 37.0954 18.7401C37.7221 19.1133 37.6565 19.9773 37.0561 20.379C36.7189 20.6274 36.1744 20.7533 35.4369 20.7533C34.012 20.751 33.06 20.234 32.6299 19.0396C32.5894 18.9279 32.4619 18.859 32.3464 18.8899L29.3785 19.6564C29.1951 19.704 29.0866 19.8941 29.1414 20.0747C29.475 21.1526 30.1196 22.0463 31.0644 22.6762C34.2372 24.8023 41.3142 24.2568 41.2105 19.2749C41.2105 18.3028 40.9556 17.5173 40.4504 16.9373C39.956 16.3704 39.2792 15.9283 38.4381 15.6241H38.4405Z" fill="#0A4EE4"/>
<path d="M26.9908 9.64893H23.6727C23.4885 9.64893 23.3391 9.79791 23.3391 9.98168V22.9937C23.3391 23.1775 23.4885 23.3265 23.6727 23.3265H26.9908C27.1751 23.3265 27.3244 23.1775 27.3244 22.9937V9.98168C27.3244 9.79791 27.1751 9.64893 26.9908 9.64893Z" fill="#0A4EE4"/>
<path d="M25.3312 5.14578C24.1326 5.14578 23.1604 4.17602 23.1604 2.98047V5.26581C23.1604 6.46136 24.1326 7.43112 25.3312 7.43112C26.5297 7.43112 27.5019 6.46136 27.5019 5.26581V2.98047C27.5019 4.17602 26.5297 5.14578 25.3312 5.14578Z" fill="#E64E36"/>
<path d="M27.4926 3.18229C27.6046 1.99166 26.7278 0.935894 25.5341 0.824184C24.3405 0.712474 23.2821 1.58712 23.1701 2.77776C23.0581 3.96839 23.9349 5.02415 25.1286 5.13586C26.3222 5.24757 27.3806 4.37293 27.4926 3.18229Z" fill="#0A4EE4"/>
<path d="M8.22835 9.4292C4.2359 9.4292 1 12.657 1 16.6394C1 20.6218 4.2359 23.8495 8.22835 23.8495C12.2208 23.8495 15.4567 20.6218 15.4567 16.6394C15.4567 12.657 12.2208 9.4292 8.22835 9.4292ZM8.22835 20.1785C6.26846 20.1785 4.6803 18.5943 4.6803 16.6394C4.6803 14.6844 6.26846 13.1002 8.22835 13.1002C10.1882 13.1002 11.7764 14.6844 11.7764 16.6394C11.7764 18.5943 10.1882 20.1785 8.22835 20.1785Z" fill="#0A4EE4"/>
</svg>
